{"glyphs":{"0":{"ha":726,"x_min":53,"x_max":674,"o":"m 364 -17 q 138 102 222 -17 q 53 446 53 221 q 138 785 53 671 q 364 900 222 900 q 589 785 504 900 q 674 446 674 669 q 589 102 674 221 q 364 -17 504 -17 m 364 131 q 430 158 400 131 q 477 255 460 186 q 494 446 494 324 q 477 633 494 567 q 430 726 460 700 q 364 753 400 753 q 297 726 326 753 q 250 633 267 700 q 233 446 233 567 q 250 255 233 324 q 297 158 267 186 q 364 131 326 131 z "},"1":{"ha":664,"x_min":56,"x_max":608,"o":"m 56 0 l 56 154 l 250 154 l 250 688 l 86 688 l 86 806 q 205 837 156 818 q 300 883 254 856 l 440 883 l 440 154 l 608 154 l 608 0 l 56 0 z "},"2":{"ha":726,"x_min":43,"x_max":665,"o":"m 53 0 l 53 110 q 256 309 168 219 q 392 473 343 399 q 440 611 440 547 q 406 714 440 678 q 308 750 372 750 q 221 722 261 750 q 147 658 181 694 l 43 761 q 174 865 107 829 q 335 900 242 900 q 485 865 421 900 q 586 768 550 831 q 622 622 622 706 q 581 468 622 546 q 472 310 539 390 q 326 150 404 231 q 402 157 361 154 q 475 160 443 160 l 665 160 l 665 0 l 53 0 z "},"3":{"ha":726,"x_min":32,"x_max":658,"o":"m 336 -17 q 208 0 265 -17 q 108 44 151 17 q 32 108 64 72 l 119 229 q 209 164 160 190 q 318 138 258 138 q 427 167 386 138 q 468 251 468 197 q 447 323 468 293 q 374 369 426 353 q 224 385 322 385 l 224 521 q 352 537 306 521 q 419 581 399 553 q 439 646 439 610 q 408 723 439 696 q 324 750 378 750 q 235 729 275 750 q 154 671 194 708 l 58 788 q 185 869 118 839 q 332 900 251 900 q 488 872 421 900 q 592 790 554 843 q 629 660 629 738 q 590 541 629 590 q 481 463 551 492 l 481 457 q 572 413 532 442 q 635 341 613 385 q 658 240 658 297 q 615 101 658 158 q 497 13 571 43 q 336 -17 424 -17 z "},"4":{"ha":726,"x_min":26,"x_max":693,"o":"m 411 0 l 411 524 q 414 620 411 564 q 418 717 417 676 l 413 717 q 378 645 396 681 q 340 572 360 610 l 210 361 l 693 361 l 693 217 l 26 217 l 26 347 l 358 883 l 588 883 l 588 0 l 411 0 z "},"5":{"ha":726,"x_min":32,"x_max":660,"o":"m 340 -17 q 211 0 268 -17 q 110 45 154 17 q 32 107 67 74 l 118 228 q 206 164 158 190 q 314 138 254 138 q 396 155 361 138 q 450 205 431 172 q 469 286 469 238 q 429 394 469 357 q 324 432 389 432 q 257 422 285 432 q 189 385 229 411 l 103 440 l 128 883 l 619 883 l 619 724 l 292 724 l 276 542 q 326 560 303 554 q 381 565 350 565 q 519 535 456 565 q 622 445 583 506 q 660 290 660 385 q 615 124 660 193 q 498 19 571 56 q 340 -17 425 -17 z "},"6":{"ha":726,"x_min":58,"x_max":676,"o":"m 388 -17 q 265 8 324 -17 q 159 87 206 33 q 85 222 113 140 q 58 419 58 304 q 88 635 58 544 q 167 785 117 726 q 280 872 217 843 q 413 900 343 900 q 560 869 497 900 q 663 796 622 838 l 563 682 q 501 727 539 708 q 424 746 463 746 q 327 715 371 746 q 258 613 283 685 q 232 419 232 542 q 253 246 232 310 q 308 154 274 182 q 385 126 343 126 q 444 143 417 126 q 487 193 471 160 q 503 278 503 226 q 487 356 503 326 q 443 401 471 386 q 379 415 415 415 q 304 393 343 415 q 233 315 265 371 l 225 442 q 315 522 261 493 q 415 550 369 550 q 549 521 490 550 q 642 431 608 492 q 676 278 676 371 q 637 120 676 186 q 532 19 597 54 q 388 -17 467 -17 z "},"7":{"ha":726,"x_min":61,"x_max":668,"o":"m 225 0 q 258 269 233 150 q 331 498 282 389 q 464 724 381 607 l 61 724 l 61 883 l 668 883 l 668 767 q 544 589 590 672 q 472 419 497 506 q 434 231 446 332 q 417 0 422 129 l 225 0 z "},"8":{"ha":726,"x_min":58,"x_max":671,"o":"m 363 -17 q 207 15 276 -17 q 98 100 138 46 q 58 226 58 154 q 79 320 58 279 q 135 392 100 361 q 211 446 169 424 l 211 451 q 126 540 161 490 q 92 658 92 590 q 128 787 92 732 q 226 871 164 842 q 369 900 289 900 q 563 834 490 900 q 635 658 635 768 q 617 578 635 615 q 574 513 600 542 q 518 463 549 483 l 518 457 q 594 403 560 435 q 650 328 629 372 q 671 226 671 285 q 632 103 671 157 q 524 16 593 49 q 363 -17 456 -17 m 367 117 q 431 130 403 117 q 476 169 460 143 q 493 233 493 194 q 469 302 493 275 q 400 351 444 329 q 299 396 356 372 q 244 330 267 368 q 222 247 222 292 q 242 177 222 207 q 294 132 261 147 q 367 117 326 117 m 419 508 q 464 576 449 542 q 479 646 479 610 q 466 709 479 682 q 427 751 453 736 q 365 767 401 767 q 290 739 321 767 q 260 658 260 711 q 280 593 260 619 q 336 547 300 567 q 419 508 372 526 z "},"9":{"ha":726,"x_min":49,"x_max":667,"o":"m 313 -17 q 165 15 228 -17 q 63 88 103 46 l 163 201 q 224 156 186 175 q 301 138 263 138 q 398 168 354 138 q 467 270 442 199 q 493 464 493 342 q 472 638 493 574 q 417 729 451 701 q 340 757 382 757 q 281 740 308 757 q 238 690 254 724 q 222 606 222 657 q 238 528 222 558 q 282 483 254 497 q 346 468 310 468 q 421 490 382 468 q 492 568 460 513 l 500 442 q 410 362 465 390 q 310 333 356 333 q 176 363 235 333 q 83 452 117 392 q 49 606 49 513 q 88 763 49 696 q 193 865 128 829 q 338 900 258 900 q 460 874 401 900 q 565 796 519 849 q 639 660 611 743 q 667 464 667 578 q 638 248 667 339 q 558 99 608 157 q 445 12 508 40 q 313 -17 382 -17 z "},"A":{"ha":789,"x_min":-7,"x_max":796,"o":"m -7 0 l 282 907 l 508 907 l 796 0 l 594 0 l 469 467 q 431 613 450 536 q 393 761 413 689 l 388 761 q 352 613 371 689 q 314 467 333 536 l 188 0 l -7 0 m 176 226 l 176 374 l 610 374 l 610 226 l 176 226 z "},"Á":{"ha":789,"x_min":-7,"x_max":796,"o":"m -7 0 l 282 907 l 508 907 l 796 0 l 594 0 l 469 467 q 431 613 450 536 q 393 761 413 689 l 388 761 q 352 613 371 689 q 314 467 333 536 l 188 0 l -7 0 m 176 226 l 176 374 l 610 374 l 610 226 l 176 226 m 375 949 l 290 1044 l 521 1236 l 622 1113 l 375 949 z "},"Ă":{"ha":789,"x_min":-7,"x_max":796,"o":"m -7 0 l 282 907 l 508 907 l 796 0 l 594 0 l 469 467 q 431 613 450 536 q 393 761 413 689 l 388 761 q 352 613 371 689 q 314 467 333 536 l 188 0 l -7 0 m 176 226 l 176 374 l 610 374 l 610 226 l 176 226 m 390 971 q 275 993 322 971 q 201 1057 228 1015 q 168 1158 174 1099 l 272 1176 q 312 1108 282 1133 q 390 1082 342 1082 q 469 1108 439 1082 q 508 1176 500 1133 l 614 1158 q 580 1057 607 1099 q 506 993 553 1015 q 390 971 458 971 z "},"Â":{"ha":789,"x_min":-7,"x_max":796,"o":"m -7 0 l 282 907 l 508 907 l 796 0 l 594 0 l 469 467 q 431 613 450 536 q 393 761 413 689 l 388 761 q 352 613 371 689 q 314 467 333 536 l 188 0 l -7 0 m 176 226 l 176 374 l 610 374 l 610 226 l 176 226 m 242 956 l 160 1007 l 288 1161 l 493 1161 l 621 1007 l 539 956 l 393 1074 l 388 1074 l 242 956 z "},"Ä":{"ha":789,"x_min":-7,"x_max":796,"o":"m -7 0 l 282 907 l 508 907 l 796 0 l 594 0 l 469 467 q 431 613 450 536 q 393 761 413 689 l 388 761 q 352 613 371 689 q 314 467 333 536 l 188 0 l -7 0 m 176 226 l 176 374 l 610 374 l 610 226 l 176 226 m 543 976 q 476 1003 503 976 q 450 1068 450 1029 q 476 1135 450 1108 q 543 1161 503 1161 q 609 1135 583 1161 q 635 1068 635 1108 q 609 1003 635 1029 q 543 976 583 976 m 239 976 q 172 1003 199 976 q 146 1068 146 1029 q 172 1135 146 1108 q 239 1161 199 1161 q 305 1135 279 1161 q 331 1068 331 1108 q 305 1003 331 1029 q 239 976 279 976 z "},"Ạ":{"ha":789,"x_min":-7,"x_max":796,"o":"m -7 0 l 282 907 l 508 907 l 796 0 l 594 0 l 469 467 q 431 613 450 536 q 393 761 413 689 l 388 761 q 352 613 371 689 q 314 467 333 536 l 188 0 l -7 0 m 176 226 l 176 374 l 610 374 l 610 226 l 176 226 m 390 -308 q 314 -280 344 -308 q 283 -207 283 -251 q 314 -134 283 -162 q 390 -106 344 -106 q 467 -134 438 -106 q 497 -207 497 -162 q 467 -280 497 -251 q 390 -308 438 -308 z "},"À":{"ha":789,"x_min":-7,"x_max":796,"o":"m -7 0 l 282 907 l 508 907 l 796 0 l 594 0 l 469 467 q 431 613 450 536 q 393 761 413 689 l 388 761 q 352 613 371 689 q 314 467 333 536 l 188 0 l -7 0 m 176 226 l 176 374 l 610 374 l 610 226 l 176 226 m 407 949 l 158 1113 l 260 1236 l 490 1044 l 407 949 z "},"Ā":{"ha":789,"x_min":-7,"x_max":796,"o":"m -7 0 l 282 907 l 508 907 l 796 0 l 594 0 l 469 467 q 431 613 450 536 q 393 761 413 689 l 388 761 q 352 613 371 689 q 314 467 333 536 l 188 0 l -7 0 m 176 226 l 176 374 l 610 374 l 610 226 l 176 226 m 185 1006 l 185 1128 l 597 1128 l 597 1006 l 185 1006 z "},"Å":{"ha":789,"x_min":-7,"x_max":796,"o":"m -7 0 l 282 907 l 508 907 l 796 0 l 594 0 l 469 467 q 431 613 450 536 q 393 761 413 689 l 388 761 q 352 613 371 689 q 314 467 333 536 l 188 0 l -7 0 m 176 226 l 176 374 l 610 374 l 610 226 l 176 226 m 390 968 q 279 1006 322 968 q 236 1104 236 1043 q 279 1202 236 1165 q 390 1239 322 1239 q 501 1202 458 1239 q 544 1104 544 1165 q 501 1006 544 1043 q 390 968 458 968 m 390 1040 q 433 1057 415 1040 q 450 1104 450 1074 q 433 1149 450 1132 q 390 1167 415 1167 q 348 1149 365 1167 q 331 1104 331 1132 q 348 1057 331 1074 q 390 1040 365 1040 z "},"Ã":{"ha":789,"x_min":-7,"x_max":796,"o":"m -7 0 l 282 907 l 508 907 l 796 0 l 594 0 l 469 467 q 431 613 450 536 q 393 761 413 689 l 388 761 q 352 613 371 689 q 314 467 333 536 l 188 0 l -7 0 m 176 226 l 176 374 l 610 374 l 610 226 l 176 226 m 490 965 q 425 978 453 965 q 375 1006 397 990 q 334 1035 353 1022 q 297 1049 315 1049 q 262 1033 276 1049 q 243 976 247 1017 l 121 986 q 173 1134 126 1088 q 290 1181 219 1181 q 356 1168 328 1181 q 407 1140 385 1156 q 448 1111 429 1124 q 485 1099 467 1099 q 519 1115 504 1099 q 538 1169 533 1131 l 661 1161 q 608 1013 656 1060 q 490 965 561 965 z "},"Æ":{"ha":1169,"x_min":-14,"x_max":1097,"o":"m -14 0 l 424 907 l 1083 907 l 1083 747 l 731 747 l 731 549 l 1028 549 l 1028 389 l 731 389 l 731 160 l 1097 160 l 1097 0 l 540 0 l 540 763 l 535 763 q 476 628 504 694 q 418 499 447 561 l 186 0 l -14 0 m 196 217 l 196 364 l 642 364 l 642 217 l 196 217 z "},"B":{"ha":838,"x_min":110,"x_max":790,"o":"m 110 0 l 110 907 l 414 907 q 582 886 507 907 q 701 817 657 865 q 744 682 744 768 q 712 564 744 621 q 622 486 679 507 l 622 481 q 742 411 694 464 q 790 267 790 358 q 743 116 790 175 q 617 28 696 57 q 439 0 538 0 l 110 0 m 300 147 l 422 147 q 558 180 511 147 q 604 279 604 213 q 558 370 604 342 q 422 399 513 399 l 300 399 l 300 147 m 300 540 l 403 540 q 521 571 483 540 q 558 654 558 601 q 520 735 558 711 q 404 760 482 760 l 300 760 l 300 540 z "},"Ḇ":{"ha":838,"x_min":110,"x_max":790,"o":"m 110 0 l 110 907 l 414 907 q 582 886 507 907 q 701 817 657 865 q 744 682 744 768 q 712 564 744 621 q 622 486 679 507 l 622 481 q 742 411 694 464 q 790 267 790 358 q 743 116 790 175 q 617 28 696 57 q 439 0 538 0 l 110 0 m 300 147 l 422 147 q 558 180 511 147 q 604 279 604 213 q 558 370 604 342 q 422 399 513 399 l 300 399 l 300 147 m 300 540 l 403 540 q 521 571 483 540 q 558 654 558 601 q 520 735 558 711 q 404 760 482 760 l 300 760 l 300 540 m 233 -258 l 233 -136 l 638 -136 l 638 -258 l 233 -258 z "},"C":{"ha":806,"x_min":65,"x_max":774,"o":"m 483 -17 q 274 36 368 -17 q 122 193 179 89 q 65 449 65 297 q 99 649 65 561 q 191 799 132 738 q 327 892 250 860 q 489 924 404 924 q 645 888 576 924 q 758 807 714 853 l 657 685 q 583 738 622 717 q 493 758 544 758 q 375 722 428 758 q 292 617 322 685 q 261 456 261 550 q 289 290 261 358 q 369 185 317 221 q 490 149 421 149 q 592 174 547 149 q 672 236 638 199 l 774 117 q 644 17 718 51 q 483 -17 571 -17 z "},"Č":{"ha":806,"x_min":65,"x_max":774,"o":"m 483 -17 q 274 36 368 -17 q 122 193 179 89 q 65 449 65 297 q 99 649 65 561 q 191 799 132 738 q 327 892 250 860 q 489 924 404 924 q 645 888 576 924 q 758 807 714 853 l 657 685 q 583 738 622 717 q 493 758 544 758 q 375 722 428 758 q 292 617 322 685 q 261 456 261 550 q 289 290 261 358 q 369 185 317 221 q 490 149 421 149 q 592 174 547 149 q 672 236 638 199 l 774 117 q 644 17 718 51 q 483 -17 571 -17 m 371 976 l 243 1131 l 325 1182 l 471 1064 l 476 1064 l 622 1182 l 704 1131 l 576 976 l 371 976 z "},"Ç":{"ha":806,"x_min":65,"x_max":774,"o":"m 483 -17 q 274 36 368 -17 q 122 193 179 89 q 65 449 65 297 q 99 649 65 561 q 191 799 132 738 q 327 892 250 860 q 489 924 404 924 q 645 888 576 924 q 758 807 714 853 l 657 685 q 583 738 622 717 q 493 758 544 758 q 375 722 428 758 q 292 617 322 685 q 261 456 261 550 q 289 290 261 358 q 369 185 317 221 q 490 149 421 149 q 592 174 547 149 q 672 236 638 199 l 774 117 q 644 17 718 51 q 483 -17 571 -17 z "},"D":{"ha":878,"x_min":110,"x_max":813,"o":"m 110 0 l 110 907 l 361 907 q 601 858 500 907 q 758 710 703 810 q 813 457 813 611 q 758 201 813 303 q 604 50 703 100 q 372 0 506 0 l 110 0 m 300 154 l 350 154 q 491 185 431 154 q 584 281 551 215 q 617 457 617 347 q 584 631 617 567 q 491 724 551 696 q 350 753 431 753 l 300 753 l 300 154 z "},"Ð":{"ha":911,"x_min":39,"x_max":846,"o":"m 39 424 l 39 510 l 147 517 l 514 517 l 514 424 l 39 424 m 144 0 l 144 907 l 396 907 q 635 858 533 907 q 791 710 736 810 q 846 457 846 611 q 791 201 846 303 q 638 50 736 100 q 406 0 539 0 l 144 0 m 335 154 l 383 154 q 525 185 465 154 q 618 281 585 215 q 651 457 651 347 q 618 631 651 567 q 525 724 585 696 q 383 753 465 753 l 335 753 l 335 154 z "},"Ḍ":{"ha":878,"x_min":110,"x_max":813,"o":"m 110 0 l 110 907 l 361 907 q 601 858 500 907 q 758 710 703 810 q 813 457 813 611 q 758 201 813 303 q 604 50 703 100 q 372 0 506 0 l 110 0 m 300 154 l 350 154 q 491 185 431 154 q 584 281 551 215 q 617 457 617 347 q 584 631 617 567 q 491 724 551 696 q 350 753 431 753 l 300 753 l 300 154 m 433 -308 q 357 -280 388 -308 q 326 -207 326 -251 q 357 -134 326 -162 q 433 -106 388 -106 q 510 -134 481 -106 q 540 -207 540 -162 q 510 -280 540 -251 q 433 -308 481 -308 z "},"Ḏ":{"ha":878,"x_min":110,"x_max":813,"o":"m 110 0 l 110 907 l 361 907 q 601 858 500 907 q 758 710 703 810 q 813 457 813 611 q 758 201 813 303 q 604 50 703 100 q 372 0 506 0 l 110 0 m 300 154 l 350 154 q 491 185 431 154 q 584 281 551 215 q 617 457 617 347 q 584 631 617 567 q 491 724 551 696 q 350 753 431 753 l 300 753 l 300 154 m 232 -258 l 232 -136 l 636 -136 l 636 -258 l 232 -258 z "},"E":{"ha":757,"x_min":110,"x_max":685,"o":"m 110 0 l 110 907 l 671 907 l 671 747 l 300 747 l 300 549 l 615 549 l 615 389 l 300 389 l 300 160 l 685 160 l 685 0 l 110 0 z "},"É":{"ha":757,"x_min":110,"x_max":685,"o":"m 110 0 l 110 907 l 671 907 l 671 747 l 300 747 l 300 549 l 615 549 l 615 389 l 300 389 l 300 160 l 685 160 l 685 0 l 110 0 m 385 949 l 300 1044 l 531 1236 l 632 1113 l 385 949 z "},"Ĕ":{"ha":757,"x_min":110,"x_max":685,"o":"m 110 0 l 110 907 l 671 907 l 671 747 l 300 747 l 300 549 l 615 549 l 615 389 l 300 389 l 300 160 l 685 160 l 685 0 l 110 0 m 400 971 q 285 993 332 971 q 210 1057 238 1015 q 178 1158 183 1099 l 282 1176 q 322 1108 292 1133 q 400 1082 351 1082 q 479 1108 449 1082 q 518 1176 510 1133 l 624 1158 q 590 1057 617 1099 q 515 993 563 1015 q 400 971 468 971 z "},"Ê":{"ha":757,"x_min":110,"x_max":685,"o":"m 110 0 l 110 907 l 671 907 l 671 747 l 300 747 l 300 549 l 615 549 l 615 389 l 300 389 l 300 160 l 685 160 l 685 0 l 110 0 m 251 956 l 169 1007 l 297 1161 l 503 1161 l 631 1007 l 549 956 l 403 1074 l 397 1074 l 251 956 z "},"Ë":{"ha":757,"x_min":110,"x_max":685,"o":"m 110 0 l 110 907 l 671 907 l 671 747 l 300 747 l 300 549 l 615 549 l 615 389 l 300 389 l 300 160 l 685 160 l 685 0 l 110 0 m 553 976 q 486 1003 513 976 q 460 1068 460 1029 q 486 1135 460 1108 q 553 1161 513 1161 q 619 1135 593 1161 q 644 1068 644 1108 q 619 1003 644 1029 q 553 976 593 976 m 249 976 q 182 1003 208 976 q 156 1068 156 1029 q 182 1135 156 1108 q 249 1161 208 1161 q 315 1135 289 1161 q 340 1068 340 1108 q 315 1003 340 1029 q 249 976 289 976 z "},"Ẹ":{"ha":757,"x_min":110,"x_max":685,"o":"m 110 0 l 110 907 l 671 907 l 671 747 l 300 747 l 300 549 l 615 549 l 615 389 l 300 389 l 300 160 l 685 160 l 685 0 l 110 0 m 403 -308 q 326 -280 357 -308 q 296 -207 296 -251 q 326 -134 296 -162 q 403 -106 357 -106 q 480 -134 450 -106 q 510 -207 510 -162 q 480 -280 510 -251 q 403 -308 450 -308 z "},"È":{"ha":757,"x_min":110,"x_max":685,"o":"m 110 0 l 110 907 l 671 907 l 671 747 l 300 747 l 300 549 l 615 549 l 615 389 l 300 389 l 300 160 l 685 160 l 685 0 l 110 0 m 417 949 l 168 1113 l 269 1236 l 500 1044 l 417 949 z "},"Ē":{"ha":757,"x_min":110,"x_max":685,"o":"m 110 0 l 110 907 l 671 907 l 671 747 l 300 747 l 300 549 l 615 549 l 615 389 l 300 389 l 300 160 l 685 160 l 685 0 l 110 0 m 194 1006 l 194 1128 l 607 1128 l 607 1006 l 194 1006 z "},"Ę":{"ha":757,"x_min":110,"x_max":711,"o":"m 572 -307 q 462 -273 507 -307 q 417 -178 417 -239 q 433 -101 417 -136 q 476 -41 450 -67 q 525 0 501 -15 l 110 0 l 110 907 l 671 907 l 671 747 l 300 747 l 300 549 l 615 549 l 615 389 l 300 389 l 300 160 l 685 160 l 685 0 l 678 0 q 618 -20 646 -1 q 574 -68 590 -39 q 557 -129 557 -97 q 576 -170 557 -157 q 617 -183 594 -183 q 643 -177 631 -183 q 667 -164 656 -171 l 711 -260 q 647 -294 686 -281 q 572 -307 607 -307 z "},"F":{"ha":722,"x_min":110,"x_max":674,"o":"m 110 0 l 110 907 l 674 907 l 674 747 l 300 747 l 300 521 l 619 521 l 619 361 l 300 361 l 300 0 l 110 0 z "},"G":{"ha":882,"x_min":65,"x_max":800,"o":"m 504 -17 q 280 36 379 -17 q 123 193 181 89 q 65 449 65 297 q 99 649 65 561 q 194 799 133 738 q 333 892 254 860 q 503 924 413 924 q 671 888 601 924 q 785 807 740 853 l 685 685 q 610 738 650 717 q 510 758 569 758 q 380 722 436 758 q 292 617 324 685 q 261 456 261 550 q 290 290 261 358 q 378 185 319 221 q 524 149 436 149 q 583 156 554 149 q 631 179 613 164 l 631 349 l 474 349 l 474 504 l 800 504 l 800 93 q 676 15 754 47 q 504 -17 599 -17 z "},"Ǧ":{"ha":882,"x_min":65,"x_max":800,"o":"m 504 -17 q 280 36 379 -17 q 123 193 181 89 q 65 449 65 297 q 99 649 65 561 q 194 799 133 738 q 333 892 254 860 q 503 924 413 924 q 671 888 601 924 q 785 807 740 853 l 685 685 q 610 738 650 717 q 510 758 569 758 q 380 722 436 758 q 292 617 324 685 q 261 456 261 550 q 290 290 261 358 q 378 185 319 221 q 524 149 436 149 q 583 156 554 149 q 631 179 613 164 l 631 349 l 474 349 l 474 504 l 800 504 l 800 93 q 676 15 754 47 q 504 -17 599 -17 m 404 976 l 276 1131 l 358 1182 l 504 1064 l 510 1064 l 656 1182 l 738 1131 l 610 976 l 404 976 z "},"Ġ":{"ha":882,"x_min":65,"x_max":800,"o":"m 504 -17 q 280 36 379 -17 q 123 193 181 89 q 65 449 65 297 q 99 649 65 561 q 194 799 133 738 q 333 892 254 860 q 503 924 413 924 q 671 888 601 924 q 785 807 740 853 l 685 685 q 610 738 650 717 q 510 758 569 758 q 380 722 436 758 q 292 617 324 685 q 261 456 261 550 q 290 290 261 358 q 378 185 319 221 q 524 149 436 149 q 583 156 554 149 q 631 179 613 164 l 631 349 l 474 349 l 474 504 l 800 504 l 800 93 q 676 15 754 47 q 504 -17 599 -17 m 507 976 q 427 1006 458 976 q 396 1079 396 1035 q 427 1152 396 1124 q 507 1181 458 1181 q 588 1152 556 1181 q 619 1079 619 1124 q 588 1006 619 1035 q 507 976 556 976 z "},"Ḡ":{"ha":882,"x_min":65,"x_max":800,"o":"m 504 -17 q 280 36 379 -17 q 123 193 181 89 q 65 449 65 297 q 99 649 65 561 q 194 799 133 738 q 333 892 254 860 q 503 924 413 924 q 671 888 601 924 q 785 807 740 853 l 685 685 q 610 738 650 717 q 510 758 569 758 q 380 722 436 758 q 292 617 324 685 q 261 456 261 550 q 290 290 261 358 q 378 185 319 221 q 524 149 436 149 q 583 156 554 149 q 631 179 613 164 l 631 349 l 474 349 l 474 504 l 800 504 l 800 93 q 676 15 754 47 q 504 -17 599 -17 m 301 1006 l 301 1128 l 714 1128 l 714 1006 l 301 1006 z "},"H":{"ha":931,"x_min":110,"x_max":821,"o":"m 110 0 l 110 907 l 300 907 l 300 553 l 631 553 l 631 907 l 821 907 l 821 0 l 631 0 l 631 386 l 300 386 l 300 0 l 110 0 z "},"Ħ":{"ha":983,"x_min":36,"x_max":947,"o":"m 36 676 l 36 763 l 144 769 l 947 769 l 947 676 l 36 676 m 138 0 l 138 907 l 328 907 l 328 553 l 658 553 l 658 907 l 849 907 l 849 0 l 658 0 l 658 386 l 328 386 l 328 0 l 138 0 z "},"Ḫ":{"ha":931,"x_min":110,"x_max":821,"o":"m 110 0 l 110 907 l 300 907 l 300 553 l 631 553 l 631 907 l 821 907 l 821 0 l 631 0 l 631 386 l 300 386 l 300 0 l 110 0 m 464 -322 q 335 -293 386 -322 q 260 -215 285 -264 q 232 -106 235 -165 l 342 -87 q 360 -144 346 -118 q 401 -187 375 -171 q 464 -203 426 -203 q 528 -187 503 -203 q 568 -144 554 -171 q 588 -87 582 -118 l 696 -106 q 668 -215 693 -165 q 593 -293 643 -264 q 464 -322 543 -322 z "},"Ḥ":{"ha":931,"x_min":110,"x_max":821,"o":"m 110 0 l 110 907 l 300 907 l 300 553 l 631 553 l 631 907 l 821 907 l 821 0 l 631 0 l 631 386 l 300 386 l 300 0 l 110 0 m 464 -308 q 388 -280 418 -308 q 357 -207 357 -251 q 388 -134 357 -162 q 464 -106 418 -106 q 541 -134 511 -106 q 571 -207 571 -162 q 541 -280 571 -251 q 464 -308 511 -308 z "},"I":{"ha":410,"x_min":110,"x_max":300,"o":"m 110 0 l 110 907 l 300 907 l 300 0 l 110 0 z "},"Í":{"ha":410,"x_min":106,"x_max":438,"o":"m 110 0 l 110 907 l 300 907 l 300 0 l 110 0 m 190 949 l 106 1044 l 336 1236 l 438 1113 l 190 949 z "},"Î":{"ha":410,"x_min":-25,"x_max":436,"o":"m 110 0 l 110 907 l 300 907 l 300 0 l 110 0 m 57 956 l -25 1007 l 103 1161 l 308 1161 l 436 1007 l 354 956 l 208 1074 l 203 1074 l 57 956 z "},"Ï":{"ha":410,"x_min":-39,"x_max":450,"o":"m 110 0 l 110 907 l 300 907 l 300 0 l 110 0 m 358 976 q 292 1003 318 976 q 265 1068 265 1029 q 292 1135 265 1108 q 358 1161 318 1161 q 424 1135 399 1161 q 450 1068 450 1108 q 424 1003 450 1029 q 358 976 399 976 m 54 976 q -12 1003 14 976 q -39 1068 -39 1029 q -12 1135 -39 1108 q 54 1161 14 1161 q 120 1135 94 1161 q 146 1068 146 1108 q 120 1003 146 1029 q 54 976 94 976 z "},"Ì":{"ha":410,"x_min":-26,"x_max":306,"o":"m 110 0 l 110 907 l 300 907 l 300 0 l 110 0 m 222 949 l -26 1113 l 75 1236 l 306 1044 l 222 949 z "},"Ī":{"ha":410,"x_min":-1,"x_max":411,"o":"m 110 0 l 110 907 l 300 907 l 300 0 l 110 0 m 0 1006 l 0 1128 l 413 1128 l 413 1006 l 0 1006 z "},"J":{"ha":700,"x_min":26,"x_max":596,"o":"m 311 -17 q 142 24 211 -17 q 26 144 72 64 l 156 240 q 216 171 182 193 q 288 149 250 149 q 376 184 346 149 q 406 313 406 219 l 406 907 l 596 907 l 596 296 q 566 139 596 210 q 473 26 536 68 q 311 -17 410 -17 z "},"K":{"ha":846,"x_min":110,"x_max":851,"o":"m 110 0 l 110 907 l 300 907 l 300 522 l 306 522 l 593 907 l 803 907 l 526 547 l 851 0 l 643 0 l 414 397 l 300 250 l 300 0 l 110 0 z "},"Ḳ":{"ha":846,"x_min":110,"x_max":851,"o":"m 110 0 l 110 907 l 300 907 l 300 522 l 306 522 l 593 907 l 803 907 l 526 547 l 851 0 l 643 0 l 414 397 l 300 250 l 300 0 l 110 0 m 461 -308 q 385 -280 415 -308 q 354 -207 354 -251 q 385 -134 354 -162 q 461 -106 415 -106 q 538 -134 508 -106 q 568 -207 568 -162 q 538 -280 568 -251 q 461 -308 508 -308 z "},"Ḵ":{"ha":846,"x_min":110,"x_max":851,"o":"m 110 0 l 110 907 l 300 907 l 300 522 l 306 522 l 593 907 l 803 907 l 526 547 l 851 0 l 643 0 l 414 397 l 300 250 l 300 0 l 110 0 m 260 -258 l 260 -136 l 664 -136 l 664 -258 l 260 -258 z "},"L":{"ha":713,"x_min":110,"x_max":664,"o":"m 110 0 l 110 907 l 300 907 l 300 160 l 664 160 l 664 0 l 110 0 z "},"Ł":{"ha":721,"x_min":-28,"x_max":674,"o":"m 38 250 l -28 364 l 142 460 l 288 521 l 532 657 l 597 542 l 288 374 l 142 311 l 38 250 m 119 0 l 119 907 l 310 907 l 310 160 l 674 160 l 674 0 l 119 0 z "},"M":{"ha":1051,"x_min":110,"x_max":942,"o":"m 110 0 l 110 907 l 319 907 l 471 490 q 498 406 485 450 q 525 319 511 363 l 531 319 q 558 406 544 363 q 585 490 571 450 l 732 907 l 942 907 l 942 0 l 768 0 l 768 360 q 772 456 768 403 q 782 564 776 510 q 792 661 788 618 l 786 661 l 713 449 l 578 81 l 469 81 l 335 449 l 263 661 l 257 661 q 267 564 261 618 q 276 456 272 510 q 281 360 281 403 l 281 0 l 110 0 z "},"N":{"ha":919,"x_min":110,"x_max":810,"o":"m 110 0 l 110 907 l 306 907 l 557 436 l 647 239 l 653 239 q 638 397 646 311 q 629 563 629 483 l 629 907 l 810 907 l 810 0 l 615 0 l 364 471 l 272 668 l 267 668 q 283 510 274 594 q 292 347 292 425 l 292 0 l 110 0 z "},"Ñ":{"ha":919,"x_min":110,"x_max":810,"o":"m 110 0 l 110 907 l 306 907 l 557 436 l 647 239 l 653 239 q 638 397 646 311 q 629 563 629 483 l 629 907 l 810 907 l 810 0 l 615 0 l 364 471 l 272 668 l 267 668 q 283 510 274 594 q 292 347 292 425 l 292 0 l 110 0 m 563 965 q 497 978 525 965 q 447 1006 469 990 q 406 1035 425 1022 q 369 1049 388 1049 q 334 1033 349 1049 q 315 976 319 1017 l 193 986 q 245 1134 199 1088 q 363 1181 292 1181 q 428 1168 400 1181 q 479 1140 457 1156 q 520 1111 501 1124 q 557 1099 539 1099 q 591 1115 576 1099 q 610 1169 606 1131 l 733 1161 q 681 1013 728 1060 q 563 965 633 965 z "},"O":{"ha":946,"x_min":65,"x_max":881,"o":"m 474 -17 q 260 40 353 -17 q 117 203 168 97 q 65 457 65 310 q 117 708 65 604 q 260 868 168 813 q 474 924 353 924 q 686 868 594 924 q 829 708 778 813 q 881 457 881 604 q 829 203 881 310 q 686 40 778 97 q 474 -17 594 -17 m 474 149 q 585 186 538 149 q 660 293 633 224 q 686 457 686 363 q 660 619 686 551 q 585 722 633 686 q 474 758 538 758 q 360 722 408 758 q 287 619 313 686 q 261 457 261 551 q 287 293 261 363 q 360 186 313 224 q 474 149 408 149 z "},"Ó":{"ha":946,"x_min":65,"x_max":881,"o":"m 474 -17 q 260 40 353 -17 q 117 203 168 97 q 65 457 65 310 q 117 708 65 604 q 260 868 168 813 q 474 924 353 924 q 686 868 594 924 q 829 708 778 813 q 881 457 881 604 q 829 203 881 310 q 686 40 778 97 q 474 -17 594 -17 m 474 149 q 585 186 538 149 q 660 293 633 224 q 686 457 686 363 q 660 619 686 551 q 585 722 633 686 q 474 758 538 758 q 360 722 408 758 q 287 619 313 686 q 261 457 261 551 q 287 293 261 363 q 360 186 313 224 q 474 149 408 149 m 458 949 l 374 1044 l 604 1236 l 706 1113 l 458 949 z "},"Ŏ":{"ha":946,"x_min":65,"x_max":881,"o":"m 474 -17 q 260 40 353 -17 q 117 203 168 97 q 65 457 65 310 q 117 708 65 604 q 260 868 168 813 q 474 924 353 924 q 686 868 594 924 q 829 708 778 813 q 881 457 881 604 q 829 203 881 310 q 686 40 778 97 q 474 -17 594 -17 m 474 149 q 585 186 538 149 q 660 293 633 224 q 686 457 686 363 q 660 619 686 551 q 585 722 633 686 q 474 758 538 758 q 360 722 408 758 q 287 619 313 686 q 261 457 261 551 q 287 293 261 363 q 360 186 313 224 q 474 149 408 149 m 474 971 q 358 993 406 971 q 284 1057 311 1015 q 251 1158 257 1099 l 356 1176 q 395 1108 365 1133 q 474 1082 425 1082 q 553 1108 522 1082 q 592 1176 583 1133 l 697 1158 q 663 1057 690 1099 q 589 993 636 1015 q 474 971 542 971 z "},"Ô":{"ha":946,"x_min":65,"x_max":881,"o":"m 474 -17 q 260 40 353 -17 q 117 203 168 97 q 65 457 65 310 q 117 708 65 604 q 260 868 168 813 q 474 924 353 924 q 686 868 594 924 q 829 708 778 813 q 881 457 881 604 q 829 203 881 310 q 686 40 778 97 q 474 -17 594 -17 m 474 149 q 585 186 538 149 q 660 293 633 224 q 686 457 686 363 q 660 619 686 551 q 585 722 633 686 q 474 758 538 758 q 360 722 408 758 q 287 619 313 686 q 261 457 261 551 q 287 293 261 363 q 360 186 313 224 q 474 149 408 149 m 325 956 l 243 1007 l 371 1161 l 576 1161 l 704 1007 l 622 956 l 476 1074 l 471 1074 l 325 956 z "},"Ö":{"ha":946,"x_min":65,"x_max":881,"o":"m 474 -17 q 260 40 353 -17 q 117 203 168 97 q 65 457 65 310 q 117 708 65 604 q 260 868 168 813 q 474 924 353 924 q 686 868 594 924 q 829 708 778 813 q 881 457 881 604 q 829 203 881 310 q 686 40 778 97 q 474 -17 594 -17 m 474 149 q 585 186 538 149 q 660 293 633 224 q 686 457 686 363 q 660 619 686 551 q 585 722 633 686 q 474 758 538 758 q 360 722 408 758 q 287 619 313 686 q 261 457 261 551 q 287 293 261 363 q 360 186 313 224 q 474 149 408 149 m 626 976 q 560 1003 586 976 q 533 1068 533 1029 q 560 1135 533 1108 q 626 1161 586 1161 q 692 1135 667 1161 q 718 1068 718 1108 q 692 1003 718 1029 q 626 976 667 976 m 322 976 q 256 1003 282 976 q 229 1068 229 1029 q 256 1135 229 1108 q 322 1161 282 1161 q 388 1135 363 1161 q 414 1068 414 1108 q 388 1003 414 1029 q 322 976 363 976 z "},"Ọ":{"ha":946,"x_min":65,"x_max":881,"o":"m 474 -17 q 260 40 353 -17 q 117 203 168 97 q 65 457 65 310 q 117 708 65 604 q 260 868 168 813 q 474 924 353 924 q 686 868 594 924 q 829 708 778 813 q 881 457 881 604 q 829 203 881 310 q 686 40 778 97 q 474 -17 594 -17 m 474 149 q 585 186 538 149 q 660 293 633 224 q 686 457 686 363 q 660 619 686 551 q 585 722 633 686 q 474 758 538 758 q 360 722 408 758 q 287 619 313 686 q 261 457 261 551 q 287 293 261 363 q 360 186 313 224 q 474 149 408 149 m 474 -308 q 397 -280 428 -308 q 367 -207 367 -251 q 397 -134 367 -162 q 474 -106 428 -106 q 551 -134 521 -106 q 581 -207 581 -162 q 551 -280 581 -251 q 474 -308 521 -308 z "},"Ò":{"ha":946,"x_min":65,"x_max":881,"o":"m 474 -17 q 260 40 353 -17 q 117 203 168 97 q 65 457 65 310 q 117 708 65 604 q 260 868 168 813 q 474 924 353 924 q 686 868 594 924 q 829 708 778 813 q 881 457 881 604 q 829 203 881 310 q 686 40 778 97 q 474 -17 594 -17 m 474 149 q 585 186 538 149 q 660 293 633 224 q 686 457 686 363 q 660 619 686 551 q 585 722 633 686 q 474 758 538 758 q 360 722 408 758 q 287 619 313 686 q 261 457 261 551 q 287 293 261 363 q 360 186 313 224 q 474 149 408 149 m 490 949 l 242 1113 l 343 1236 l 574 1044 l 490 949 z "},"Ō":{"ha":946,"x_min":65,"x_max":881,"o":"m 474 -17 q 260 40 353 -17 q 117 203 168 97 q 65 457 65 310 q 117 708 65 604 q 260 868 168 813 q 474 924 353 924 q 686 868 594 924 q 829 708 778 813 q 881 457 881 604 q 829 203 881 310 q 686 40 778 97 q 474 -17 594 -17 m 474 149 q 585 186 538 149 q 660 293 633 224 q 686 457 686 363 q 660 619 686 551 q 585 722 633 686 q 474 758 538 758 q 360 722 408 758 q 287 619 313 686 q 261 457 261 551 q 287 293 261 363 q 360 186 313 224 q 474 149 408 149 m 268 1006 l 268 1128 l 681 1128 l 681 1006 l 268 1006 z "},"Ø":{"ha":946,"x_min":58,"x_max":908,"o":"m 157 -54 l 58 22 l 808 961 l 908 885 l 157 -54 m 475 -17 q 262 40 354 -17 q 118 203 169 97 q 67 457 67 310 q 118 708 67 604 q 262 868 169 813 q 475 924 354 924 q 688 868 596 924 q 831 708 779 813 q 882 457 882 604 q 831 203 882 310 q 688 40 779 97 q 475 -17 596 -17 m 475 149 q 587 186 539 149 q 661 293 635 224 q 688 457 688 363 q 661 619 688 551 q 587 722 635 686 q 475 758 539 758 q 362 722 410 758 q 288 619 314 686 q 263 457 263 551 q 288 293 263 363 q 362 186 314 224 q 475 149 410 149 z "},"Õ":{"ha":946,"x_min":65,"x_max":881,"o":"m 474 -17 q 260 40 353 -17 q 117 203 168 97 q 65 457 65 310 q 117 708 65 604 q 260 868 168 813 q 474 924 353 924 q 686 868 594 924 q 829 708 778 813 q 881 457 881 604 q 829 203 881 310 q 686 40 778 97 q 474 -17 594 -17 m 474 149 q 585 186 538 149 q 660 293 633 224 q 686 457 686 363 q 660 619 686 551 q 585 722 633 686 q 474 758 538 758 q 360 722 408 758 q 287 619 313 686 q 261 457 261 551 q 287 293 261 363 q 360 186 313 224 q 474 149 408 149 m 574 965 q 508 978 536 965 q 458 1006 481 990 q 417 1035 436 1022 q 381 1049 399 1049 q 345 1033 360 1049 q 326 976 331 1017 l 204 986 q 256 1134 210 1088 q 374 1181 303 1181 q 440 1168 411 1181 q 490 1140 468 1156 q 531 1111 513 1124 q 568 1099 550 1099 q 602 1115 588 1099 q 621 1169 617 1131 l 744 1161 q 692 1013 739 1060 q 574 965 644 965 z "},"Œ":{"ha":1204,"x_min":65,"x_max":1132,"o":"m 517 0 q 284 50 386 0 q 124 201 182 100 q 65 457 65 303 q 124 710 65 611 q 288 858 183 810 q 528 907 392 907 l 1118 907 l 1118 747 l 768 747 l 768 549 l 1063 549 l 1063 389 l 768 389 l 768 160 l 1132 160 l 1132 0 l 517 0 m 539 154 l 578 154 l 578 753 l 539 753 q 393 725 456 753 q 296 633 331 697 q 261 457 261 568 q 296 281 261 347 q 393 184 331 214 q 539 154 456 154 z "},"P":{"ha":822,"x_min":110,"x_max":769,"o":"m 110 0 l 110 907 l 413 907 q 593 880 513 907 q 722 790 674 853 q 769 619 769 728 q 722 448 769 515 q 595 349 675 381 q 418 317 515 317 l 300 317 l 300 0 l 110 0 m 300 468 l 406 468 q 540 506 496 468 q 583 619 583 544 q 537 725 583 694 q 400 756 490 756 l 300 756 l 300 468 z "},"Þ":{"ha":850,"x_min":110,"x_max":783,"o":"m 110 0 l 110 907 l 300 907 l 300 767 l 432 767 q 610 740 531 767 q 737 650 690 713 q 783 479 783 588 q 736 308 783 375 q 609 209 689 242 q 432 176 529 176 l 300 176 l 300 0 l 110 0 m 300 328 l 419 328 q 553 367 510 328 q 597 479 597 406 q 552 585 597 556 q 419 615 507 615 l 300 615 l 300 328 z "},"Q":{"ha":946,"x_min":65,"x_max":924,"o":"m 474 -17 q 260 40 353 -17 q 117 203 168 97 q 65 457 65 310 q 117 708 65 604 q 260 868 168 813 q 474 924 353 924 q 686 868 594 924 q 829 708 778 813 q 881 457 881 604 q 829 203 881 310 q 686 40 778 97 q 474 -17 594 -17 m 768 -249 q 523 -176 622 -249 q 379 7 424 -103 l 574 25 q 624 -44 590 -18 q 701 -83 658 -71 q 790 -96 744 -96 q 844 -91 819 -96 q 890 -81 869 -86 l 924 -219 q 860 -240 900 -232 q 768 -249 819 -249 m 474 139 q 585 177 538 139 q 660 286 633 215 q 686 457 686 357 q 660 619 686 551 q 585 722 633 686 q 474 758 538 758 q 360 722 408 758 q 287 619 313 686 q 261 457 261 551 q 287 286 261 357 q 360 177 313 215 q 474 139 408 139 z "},"R":{"ha":842,"x_min":110,"x_max":815,"o":"m 110 0 l 110 907 l 429 907 q 603 881 525 907 q 727 795 681 856 q 774 629 774 735 q 727 463 774 528 q 603 367 681 397 q 429 336 525 336 l 300 336 l 300 0 l 110 0 m 601 0 l 394 386 l 528 506 l 815 0 l 601 0 m 300 488 l 413 488 q 542 523 497 488 q 588 629 588 558 q 542 728 588 700 q 413 756 497 756 l 300 756 l 300 488 z "},"S":{"ha":767,"x_min":50,"x_max":719,"o":"m 383 -17 q 206 17 294 -17 q 50 115 118 51 l 160 246 q 269 175 208 201 q 388 149 329 149 q 490 174 456 149 q 525 246 525 200 q 508 297 525 278 q 460 330 490 315 q 390 361 431 344 l 271 413 q 183 464 225 432 q 114 544 140 496 q 88 658 88 592 q 128 792 88 732 q 241 888 169 851 q 404 924 313 924 q 559 893 483 924 q 692 806 635 863 l 596 685 q 506 740 551 721 q 404 758 460 758 q 315 735 349 758 q 281 669 281 711 q 299 619 281 639 q 349 585 317 600 q 421 554 382 571 l 538 507 q 633 451 593 485 q 697 372 674 418 q 719 261 719 325 q 680 123 719 186 q 565 22 640 60 q 383 -17 489 -17 z "},"Ś":{"ha":767,"x_min":50,"x_max":719,"o":"m 383 -17 q 206 17 294 -17 q 50 115 118 51 l 160 246 q 269 175 208 201 q 388 149 329 149 q 490 174 456 149 q 525 246 525 200 q 508 297 525 278 q 460 330 490 315 q 390 361 431 344 l 271 413 q 183 464 225 432 q 114 544 140 496 q 88 658 88 592 q 128 792 88 732 q 241 888 169 851 q 404 924 313 924 q 559 893 483 924 q 692 806 635 863 l 596 685 q 506 740 551 721 q 404 758 460 758 q 315 735 349 758 q 281 669 281 711 q 299 619 281 639 q 349 585 317 600 q 421 554 382 571 l 538 507 q 633 451 593 485 q 697 372 674 418 q 719 261 719 325 q 680 123 719 186 q 565 22 640 60 q 383 -17 489 -17 m 386 949 l 301 1044 l 532 1236 l 633 1113 l 386 949 z "},"Š":{"ha":767,"x_min":50,"x_max":719,"o":"m 383 -17 q 206 17 294 -17 q 50 115 118 51 l 160 246 q 269 175 208 201 q 388 149 329 149 q 490 174 456 149 q 525 246 525 200 q 508 297 525 278 q 460 330 490 315 q 390 361 431 344 l 271 413 q 183 464 225 432 q 114 544 140 496 q 88 658 88 592 q 128 792 88 732 q 241 888 169 851 q 404 924 313 924 q 559 893 483 924 q 692 806 635 863 l 596 685 q 506 740 551 721 q 404 758 460 758 q 315 735 349 758 q 281 669 281 711 q 299 619 281 639 q 349 585 317 600 q 421 554 382 571 l 538 507 q 633 451 593 485 q 697 372 674 418 q 719 261 719 325 q 680 123 719 186 q 565 22 640 60 q 383 -17 489 -17 m 299 976 l 171 1131 l 253 1182 l 399 1064 l 404 1064 l 550 1182 l 632 1131 l 504 976 l 299 976 z "},"Ṣ":{"ha":767,"x_min":50,"x_max":719,"o":"m 383 -17 q 206 17 294 -17 q 50 115 118 51 l 160 246 q 269 175 208 201 q 388 149 329 149 q 490 174 456 149 q 525 246 525 200 q 508 297 525 278 q 460 330 490 315 q 390 361 431 344 l 271 413 q 183 464 225 432 q 114 544 140 496 q 88 658 88 592 q 128 792 88 732 q 241 888 169 851 q 404 924 313 924 q 559 893 483 924 q 692 806 635 863 l 596 685 q 506 740 551 721 q 404 758 460 758 q 315 735 349 758 q 281 669 281 711 q 299 619 281 639 q 349 585 317 600 q 421 554 382 571 l 538 507 q 633 451 593 485 q 697 372 674 418 q 719 261 719 325 q 680 123 719 186 q 565 22 640 60 q 383 -17 489 -17 m 388 -308 q 311 -280 342 -308 q 281 -207 281 -251 q 311 -134 281 -162 q 388 -106 342 -106 q 465 -134 435 -106 q 494 -207 494 -162 q 465 -280 494 -251 q 388 -308 435 -308 z "},"Ə":{"ha":935,"x_min":72,"x_max":869,"o":"m 465 -17 q 256 38 344 -17 q 120 195 168 92 q 72 449 72 299 q 74 480 72 464 q 76 511 75 496 l 728 511 l 728 372 l 267 372 q 298 240 272 292 q 366 164 324 189 q 465 139 408 139 q 622 215 564 139 q 681 456 681 292 q 623 691 681 614 q 449 768 565 768 q 335 742 385 768 q 247 682 285 717 l 160 813 q 290 892 213 861 q 471 924 368 924 q 680 870 590 924 q 819 713 769 817 q 869 456 869 608 q 819 197 869 301 q 677 38 768 92 q 465 -17 586 -17 z "},"T":{"ha":768,"x_min":36,"x_max":733,"o":"m 289 0 l 289 747 l 36 747 l 36 907 l 733 907 l 733 747 l 479 747 l 479 0 l 289 0 z "},"Ṭ":{"ha":768,"x_min":36,"x_max":733,"o":"m 289 0 l 289 747 l 36 747 l 36 907 l 733 907 l 733 747 l 479 747 l 479 0 l 289 0 m 385 -308 q 308 -280 339 -308 q 278 -207 278 -251 q 308 -134 278 -162 q 385 -106 339 -106 q 462 -134 432 -106 q 492 -207 492 -162 q 462 -280 492 -251 q 385 -308 432 -308 z "},"Ṯ":{"ha":768,"x_min":36,"x_max":733,"o":"m 289 0 l 289 747 l 36 747 l 36 907 l 733 907 l 733 747 l 479 747 l 479 0 l 289 0 m 183 -258 l 183 -136 l 588 -136 l 588 -258 l 183 -258 z "},"U":{"ha":919,"x_min":106,"x_max":814,"o":"m 461 -17 q 310 8 376 -17 q 198 85 243 33 q 129 218 153 136 q 106 413 106 300 l 106 907 l 296 907 l 296 394 q 315 249 296 303 q 372 172 335 194 q 461 149 410 149 q 551 172 514 149 q 610 249 589 194 q 631 394 631 303 l 631 907 l 814 907 l 814 413 q 791 218 814 300 q 723 85 768 136 q 612 8 678 33 q 461 -17 546 -17 z "},"Ú":{"ha":919,"x_min":106,"x_max":814,"o":"m 461 -17 q 310 8 376 -17 q 198 85 243 33 q 129 218 153 136 q 106 413 106 300 l 106 907 l 296 907 l 296 394 q 315 249 296 303 q 372 172 335 194 q 461 149 410 149 q 551 172 514 149 q 610 249 589 194 q 631 394 631 303 l 631 907 l 814 907 l 814 413 q 791 218 814 300 q 723 85 768 136 q 612 8 678 33 q 461 -17 546 -17 m 444 949 l 360 1044 l 590 1236 l 692 1113 l 444 949 z "},"Û":{"ha":919,"x_min":106,"x_max":814,"o":"m 461 -17 q 310 8 376 -17 q 198 85 243 33 q 129 218 153 136 q 106 413 106 300 l 106 907 l 296 907 l 296 394 q 315 249 296 303 q 372 172 335 194 q 461 149 410 149 q 551 172 514 149 q 610 249 589 194 q 631 394 631 303 l 631 907 l 814 907 l 814 413 q 791 218 814 300 q 723 85 768 136 q 612 8 678 33 q 461 -17 546 -17 m 311 956 l 229 1007 l 357 1161 l 563 1161 l 690 1007 l 608 956 l 463 1074 l 457 1074 l 311 956 z "},"Ü":{"ha":919,"x_min":106,"x_max":814,"o":"m 461 -17 q 310 8 376 -17 q 198 85 243 33 q 129 218 153 136 q 106 413 106 300 l 106 907 l 296 907 l 296 394 q 315 249 296 303 q 372 172 335 194 q 461 149 410 149 q 551 172 514 149 q 610 249 589 194 q 631 394 631 303 l 631 907 l 814 907 l 814 413 q 791 218 814 300 q 723 85 768 136 q 612 8 678 33 q 461 -17 546 -17 m 613 976 q 546 1003 572 976 q 519 1068 519 1029 q 546 1135 519 1108 q 613 1161 572 1161 q 678 1135 653 1161 q 704 1068 704 1108 q 678 1003 704 1029 q 613 976 653 976 m 308 976 q 242 1003 268 976 q 215 1068 215 1029 q 242 1135 215 1108 q 308 1161 268 1161 q 374 1135 349 1161 q 400 1068 400 1108 q 374 1003 400 1029 q 308 976 349 976 z "},"Ù":{"ha":919,"x_min":106,"x_max":814,"o":"m 461 -17 q 310 8 376 -17 q 198 85 243 33 q 129 218 153 136 q 106 413 106 300 l 106 907 l 296 907 l 296 394 q 315 249 296 303 q 372 172 335 194 q 461 149 410 149 q 551 172 514 149 q 610 249 589 194 q 631 394 631 303 l 631 907 l 814 907 l 814 413 q 791 218 814 300 q 723 85 768 136 q 612 8 678 33 q 461 -17 546 -17 m 476 949 l 228 1113 l 329 1236 l 560 1044 l 476 949 z "},"Ū":{"ha":919,"x_min":106,"x_max":814,"o":"m 461 -17 q 310 8 376 -17 q 198 85 243 33 q 129 218 153 136 q 106 413 106 300 l 106 907 l 296 907 l 296 394 q 315 249 296 303 q 372 172 335 194 q 461 149 410 149 q 551 172 514 149 q 610 249 589 194 q 631 394 631 303 l 631 907 l 814 907 l 814 413 q 791 218 814 300 q 723 85 768 136 q 612 8 678 33 q 461 -17 546 -17 m 254 1006 l 254 1128 l 667 1128 l 667 1006 l 254 1006 z "},"V":{"ha":764,"x_min":-8,"x_max":772,"o":"m 268 0 l -8 907 l 193 907 l 308 474 q 347 327 331 397 q 383 181 363 257 l 389 181 q 428 327 411 257 q 464 474 444 397 l 578 907 l 772 907 l 496 0 l 268 0 z "},"Ṿ":{"ha":764,"x_min":-8,"x_max":772,"o":"m 268 0 l -8 907 l 193 907 l 308 474 q 347 327 331 397 q 383 181 363 257 l 389 181 q 428 327 411 257 q 464 474 444 397 l 578 907 l 772 907 l 496 0 l 268 0 m 379 -308 q 303 -280 333 -308 q 272 -207 272 -251 q 303 -134 272 -162 q 379 -106 333 -106 q 456 -134 426 -106 q 486 -207 486 -162 q 456 -280 486 -251 q 379 -308 426 -308 z "},"W":{"ha":1124,"x_min":21,"x_max":1103,"o":"m 193 0 l 21 907 l 217 907 l 285 472 q 303 328 293 400 q 324 185 314 256 l 329 185 q 357 328 343 256 q 385 472 371 401 l 488 907 l 650 907 l 751 472 q 780 329 765 401 q 808 185 794 257 l 814 185 q 833 329 822 257 q 853 472 843 401 l 921 907 l 1103 907 l 938 0 l 699 0 l 603 433 q 583 539 592 486 q 565 643 574 592 l 560 643 q 542 539 551 592 q 521 433 532 486 l 428 0 l 193 0 z "},"X":{"ha":776,"x_min":17,"x_max":760,"o":"m 17 0 l 269 467 l 32 907 l 244 907 l 331 725 q 362 660 346 694 q 397 582 378 625 l 403 582 q 433 660 419 625 q 461 725 447 694 l 542 907 l 744 907 l 507 458 l 760 0 l 547 0 l 451 194 q 417 266 433 231 q 382 343 400 301 l 376 343 q 344 266 360 301 q 313 194 328 231 l 219 0 l 17 0 z "},"Y":{"ha":718,"x_min":-8,"x_max":728,"o":"m 264 0 l 264 328 l -8 907 l 194 907 l 282 690 q 319 590 300 639 q 357 490 338 542 l 363 490 q 403 590 383 542 q 442 690 422 639 l 529 907 l 728 907 l 454 328 l 454 0 l 264 0 z "},"Ý":{"ha":718,"x_min":-8,"x_max":728,"o":"m 264 0 l 264 328 l -8 907 l 194 907 l 282 690 q 319 590 300 639 q 357 490 338 542 l 363 490 q 403 590 383 542 q 442 690 422 639 l 529 907 l 728 907 l 454 328 l 454 0 l 264 0 m 344 949 l 260 1044 l 490 1236 l 592 1113 l 344 949 z "},"Ÿ":{"ha":718,"x_min":-8,"x_max":728,"o":"m 264 0 l 264 328 l -8 907 l 194 907 l 282 690 q 319 590 300 639 q 357 490 338 542 l 363 490 q 403 590 383 542 q 442 690 422 639 l 529 907 l 728 907 l 454 328 l 454 0 l 264 0 m 513 976 q 446 1003 472 976 q 419 1068 419 1029 q 446 1135 419 1108 q 513 1161 472 1161 q 578 1135 553 1161 q 604 1068 604 1108 q 578 1003 604 1029 q 513 976 553 976 m 208 976 q 142 1003 168 976 q 115 1068 115 1029 q 142 1135 115 1108 q 208 1161 168 1161 q 274 1135 249 1161 q 300 1068 300 1108 q 274 1003 300 1029 q 208 976 249 976 z "},"Z":{"ha":751,"x_min":51,"x_max":703,"o":"m 51 0 l 51 115 l 465 747 l 90 747 l 90 907 l 700 907 l 700 792 l 286 160 l 703 160 l 703 0 l 51 0 z "},"Ž":{"ha":751,"x_min":51,"x_max":703,"o":"m 51 0 l 51 115 l 465 747 l 90 747 l 90 907 l 700 907 l 700 792 l 286 160 l 703 160 l 703 0 l 51 0 m 290 976 l 163 1131 l 244 1182 l 390 1064 l 396 1064 l 542 1182 l 624 1131 l 496 976 l 290 976 z "},"Ẓ":{"ha":751,"x_min":51,"x_max":703,"o":"m 51 0 l 51 115 l 465 747 l 90 747 l 90 907 l 700 907 l 700 792 l 286 160 l 703 160 l 703 0 l 51 0 m 392 -308 q 315 -280 346 -308 q 285 -207 285 -251 q 315 -134 285 -162 q 392 -106 346 -106 q 469 -134 439 -106 q 499 -207 499 -162 q 469 -280 499 -251 q 392 -308 439 -308 z "},"Ẕ":{"ha":751,"x_min":51,"x_max":703,"o":"m 51 0 l 51 115 l 465 747 l 90 747 l 90 907 l 700 907 l 700 792 l 286 160 l 703 160 l 703 0 l 51 0 m 190 -258 l 190 -136 l 594 -136 l 594 -258 l 190 -258 z "},"a":{"ha":728,"x_min":61,"x_max":643,"o":"m 265 -17 q 157 10 203 -17 q 86 84 111 38 q 61 189 61 131 q 154 358 61 297 q 453 442 247 419 q 440 499 451 474 q 404 538 429 524 q 339 553 379 553 q 248 535 293 553 q 154 489 203 517 l 86 614 q 174 660 128 639 q 271 692 221 681 q 375 704 321 704 q 522 669 463 704 q 613 567 582 635 q 643 397 643 500 l 643 0 l 488 0 l 474 72 l 469 72 q 374 8 425 33 q 265 -17 324 -17 m 328 131 q 394 148 365 131 q 453 194 422 165 l 453 326 q 328 298 374 315 q 263 256 282 281 q 243 204 243 232 q 267 149 243 167 q 328 131 290 131 z "},"á":{"ha":728,"x_min":61,"x_max":647,"o":"m 265 -17 q 157 10 203 -17 q 86 84 111 38 q 61 189 61 131 q 154 358 61 297 q 453 442 247 419 q 440 499 451 474 q 404 538 429 524 q 339 553 379 553 q 248 535 293 553 q 154 489 203 517 l 86 614 q 174 660 128 639 q 271 692 221 681 q 375 704 321 704 q 522 669 463 704 q 613 567 582 635 q 643 397 643 500 l 643 0 l 488 0 l 474 72 l 469 72 q 374 8 425 33 q 265 -17 324 -17 m 328 131 q 394 148 365 131 q 453 194 422 165 l 453 326 q 328 298 374 315 q 263 256 282 281 q 243 204 243 232 q 267 149 243 167 q 328 131 290 131 m 403 796 l 308 889 l 519 1138 l 649 1013 l 403 796 z "},"ă":{"ha":728,"x_min":61,"x_max":643,"o":"m 265 -17 q 157 10 203 -17 q 86 84 111 38 q 61 189 61 131 q 154 358 61 297 q 453 442 247 419 q 440 499 451 474 q 404 538 429 524 q 339 553 379 553 q 248 535 293 553 q 154 489 203 517 l 86 614 q 174 660 128 639 q 271 692 221 681 q 375 704 321 704 q 522 669 463 704 q 613 567 582 635 q 643 397 643 500 l 643 0 l 488 0 l 474 72 l 469 72 q 374 8 425 33 q 265 -17 324 -17 m 328 131 q 394 148 365 131 q 453 194 422 165 l 453 326 q 328 298 374 315 q 263 256 282 281 q 243 204 243 232 q 267 149 243 167 q 328 131 290 131 m 393 794 q 265 824 315 794 q 189 902 214 853 q 161 1011 164 951 l 271 1029 q 290 972 275 999 q 330 930 304 946 q 393 914 356 914 q 458 930 432 914 q 497 972 483 946 q 517 1029 511 999 l 625 1011 q 597 902 622 951 q 522 824 572 853 q 393 794 472 794 z "},"â":{"ha":728,"x_min":61,"x_max":643,"o":"m 265 -17 q 157 10 203 -17 q 86 84 111 38 q 61 189 61 131 q 154 358 61 297 q 453 442 247 419 q 440 499 451 474 q 404 538 429 524 q 339 553 379 553 q 248 535 293 553 q 154 489 203 517 l 86 614 q 174 660 128 639 q 271 692 221 681 q 375 704 321 704 q 522 669 463 704 q 613 567 582 635 q 643 397 643 500 l 643 0 l 488 0 l 474 72 l 469 72 q 374 8 425 33 q 265 -17 324 -17 m 328 131 q 394 148 365 131 q 453 194 422 165 l 453 326 q 328 298 374 315 q 263 256 282 281 q 243 204 243 232 q 267 149 243 167 q 328 131 290 131 m 218 781 l 146 849 l 297 1033 l 490 1033 l 642 849 l 568 781 l 396 914 l 390 914 l 218 781 z "},"ä":{"ha":728,"x_min":61,"x_max":643,"o":"m 265 -17 q 157 10 203 -17 q 86 84 111 38 q 61 189 61 131 q 154 358 61 297 q 453 442 247 419 q 440 499 451 474 q 404 538 429 524 q 339 553 379 553 q 248 535 293 553 q 154 489 203 517 l 86 614 q 174 660 128 639 q 271 692 221 681 q 375 704 321 704 q 522 669 463 704 q 613 567 582 635 q 643 397 643 500 l 643 0 l 488 0 l 474 72 l 469 72 q 374 8 425 33 q 265 -17 324 -17 m 328 131 q 394 148 365 131 q 453 194 422 165 l 453 326 q 328 298 374 315 q 263 256 282 281 q 243 204 243 232 q 267 149 243 167 q 328 131 290 131 m 542 794 q 474 822 501 794 q 447 889 447 849 q 474 956 447 929 q 542 983 501 983 q 610 956 583 983 q 636 889 636 929 q 610 822 636 849 q 542 794 583 794 m 244 794 q 177 822 204 794 q 150 889 150 849 q 177 956 150 929 q 244 983 204 983 q 313 956 286 983 q 339 889 339 929 q 313 822 339 849 q 244 794 286 794 z "},"ạ":{"ha":728,"x_min":61,"x_max":643,"o":"m 265 -17 q 157 10 203 -17 q 86 84 111 38 q 61 189 61 131 q 154 358 61 297 q 453 442 247 419 q 440 499 451 474 q 404 538 429 524 q 339 553 379 553 q 248 535 293 553 q 154 489 203 517 l 86 614 q 174 660 128 639 q 271 692 221 681 q 375 704 321 704 q 522 669 463 704 q 613 567 582 635 q 643 397 643 500 l 643 0 l 488 0 l 474 72 l 469 72 q 374 8 425 33 q 265 -17 324 -17 m 328 131 q 394 148 365 131 q 453 194 422 165 l 453 326 q 328 298 374 315 q 263 256 282 281 q 243 204 243 232 q 267 149 243 167 q 328 131 290 131 m 356 -308 q 279 -280 310 -308 q 249 -207 249 -251 q 279 -134 249 -162 q 356 -106 310 -106 q 433 -134 403 -106 q 463 -207 463 -162 q 433 -280 463 -251 q 356 -308 403 -308 z "},"à":{"ha":728,"x_min":61,"x_max":643,"o":"m 265 -17 q 157 10 203 -17 q 86 84 111 38 q 61 189 61 131 q 154 358 61 297 q 453 442 247 419 q 440 499 451 474 q 404 538 429 524 q 339 553 379 553 q 248 535 293 553 q 154 489 203 517 l 86 614 q 174 660 128 639 q 271 692 221 681 q 375 704 321 704 q 522 669 463 704 q 613 567 582 635 q 643 397 643 500 l 643 0 l 488 0 l 474 72 l 469 72 q 374 8 425 33 q 265 -17 324 -17 m 328 131 q 394 148 365 131 q 453 194 422 165 l 453 326 q 328 298 374 315 q 263 256 282 281 q 243 204 243 232 q 267 149 243 167 q 328 131 290 131 m 385 796 l 139 1013 l 268 1138 l 478 889 l 385 796 z "},"ā":{"ha":728,"x_min":61,"x_max":643,"o":"m 265 -17 q 157 10 203 -17 q 86 84 111 38 q 61 189 61 131 q 154 358 61 297 q 453 442 247 419 q 440 499 451 474 q 404 538 429 524 q 339 553 379 553 q 248 535 293 553 q 154 489 203 517 l 86 614 q 174 660 128 639 q 271 692 221 681 q 375 704 321 704 q 522 669 463 704 q 613 567 582 635 q 643 397 643 500 l 643 0 l 488 0 l 474 72 l 469 72 q 374 8 425 33 q 265 -17 324 -17 m 328 131 q 394 148 365 131 q 453 194 422 165 l 453 326 q 328 298 374 315 q 263 256 282 281 q 243 204 243 232 q 267 149 243 167 q 328 131 290 131 m 192 824 l 192 946 l 596 946 l 596 824 l 192 824 z "},"å":{"ha":728,"x_min":61,"x_max":643,"o":"m 265 -17 q 157 10 203 -17 q 86 84 111 38 q 61 189 61 131 q 154 358 61 297 q 453 442 247 419 q 440 499 451 474 q 404 538 429 524 q 339 553 379 553 q 248 535 293 553 q 154 489 203 517 l 86 614 q 174 660 128 639 q 271 692 221 681 q 375 704 321 704 q 522 669 463 704 q 613 567 582 635 q 643 397 643 500 l 643 0 l 488 0 l 474 72 l 469 72 q 374 8 425 33 q 265 -17 324 -17 m 328 131 q 394 148 365 131 q 453 194 422 165 l 453 326 q 328 298 374 315 q 263 256 282 281 q 243 204 243 232 q 267 149 243 167 q 328 131 290 131 m 393 782 q 261 824 307 782 q 215 925 215 865 q 261 1026 215 985 q 393 1068 307 1068 q 526 1026 481 1068 q 571 925 571 985 q 526 824 571 865 q 393 782 481 782 m 393 854 q 438 874 419 854 q 457 925 457 893 q 438 976 457 957 q 393 996 419 996 q 349 976 367 996 q 331 925 331 957 q 349 874 331 893 q 393 854 367 854 z "},"ã":{"ha":728,"x_min":61,"x_max":653,"o":"m 265 -17 q 157 10 203 -17 q 86 84 111 38 q 61 189 61 131 q 154 358 61 297 q 453 442 247 419 q 440 499 451 474 q 404 538 429 524 q 339 553 379 553 q 248 535 293 553 q 154 489 203 517 l 86 614 q 174 660 128 639 q 271 692 221 681 q 375 704 321 704 q 522 669 463 704 q 613 567 582 635 q 643 397 643 500 l 643 0 l 488 0 l 474 72 l 469 72 q 374 8 425 33 q 265 -17 324 -17 m 328 131 q 394 148 365 131 q 453 194 422 165 l 453 326 q 328 298 374 315 q 263 256 282 281 q 243 204 243 232 q 267 149 243 167 q 328 131 290 131 m 486 797 q 427 811 454 797 q 379 844 400 825 q 340 876 358 863 q 304 890 322 890 q 269 871 282 890 q 253 808 257 851 l 133 815 q 155 931 135 885 q 211 999 175 976 q 300 1022 247 1022 q 360 1008 335 1022 q 408 976 386 994 q 447 943 429 957 q 483 929 465 929 q 518 949 506 929 q 533 1011 531 969 l 653 1004 q 632 890 651 936 q 576 821 613 844 q 486 797 539 797 z "},"ɐ":{"ha":736,"x_min":85,"x_max":667,"o":"m 383 -17 q 219 19 286 -17 q 119 125 153 56 q 85 297 85 194 l 85 688 l 240 688 l 254 601 l 258 601 q 356 676 300 647 q 481 704 413 704 q 617 651 568 704 q 667 517 667 599 q 574 335 667 404 q 275 244 481 267 q 285 201 276 221 q 309 166 293 181 q 350 143 325 151 q 411 135 375 135 q 500 153 457 135 q 592 199 543 171 l 660 74 q 575 28 619 49 q 483 -4 531 8 q 383 -17 435 -17 m 275 361 q 400 390 354 372 q 465 433 446 408 q 485 488 485 457 q 463 540 485 522 q 410 557 442 557 q 340 537 372 557 q 275 478 307 517 l 275 361 z "},"æ":{"ha":1092,"x_min":68,"x_max":1040,"o":"m 272 -17 q 164 10 210 -17 q 93 84 118 38 q 68 189 68 131 q 160 359 68 297 q 456 442 251 421 q 443 499 454 475 q 408 538 432 524 q 344 553 385 553 q 255 535 300 553 q 161 489 210 517 l 93 614 q 179 660 135 639 q 272 692 224 681 q 369 704 319 704 q 485 674 436 704 q 563 593 533 644 q 656 675 606 646 q 769 704 707 704 q 919 660 858 704 q 1010 541 981 617 q 1040 371 1040 465 q 1038 324 1040 346 q 1032 289 1035 301 l 629 289 q 660 203 636 238 q 721 151 685 168 q 801 133 757 133 q 877 147 842 133 q 950 183 913 161 l 1015 60 q 901 4 964 25 q 775 -17 838 -17 q 681 -3 724 -17 q 602 37 638 11 q 539 94 567 63 q 403 9 467 35 q 272 -17 339 -17 m 335 131 q 409 149 372 131 q 476 197 446 167 q 463 245 468 219 q 456 296 458 271 l 454 326 q 297 279 343 310 q 250 204 250 249 q 274 149 250 167 q 335 131 297 131 m 629 407 l 878 407 q 850 517 878 475 q 763 558 822 558 q 700 541 728 558 q 653 490 672 524 q 629 407 635 457 z "},"b":{"ha":792,"x_min":94,"x_max":736,"o":"m 446 -17 q 352 6 399 -17 q 264 74 306 29 l 258 74 l 243 0 l 94 0 l 94 976 l 283 976 l 283 733 l 279 625 q 367 683 319 661 q 465 704 415 704 q 610 660 550 704 q 703 539 671 617 q 736 356 736 461 q 694 154 736 238 q 587 27 653 71 q 446 -17 521 -17 m 403 139 q 473 162 442 139 q 523 232 504 185 q 542 353 542 279 q 528 460 542 417 q 485 526 514 503 q 413 549 457 549 q 348 533 379 549 q 283 482 317 517 l 283 188 q 345 150 314 161 q 403 139 376 139 z "},"ḇ":{"ha":792,"x_min":94,"x_max":736,"o":"m 446 -17 q 352 6 399 -17 q 264 74 306 29 l 258 74 l 243 0 l 94 0 l 94 976 l 283 976 l 283 733 l 279 625 q 367 683 319 661 q 465 704 415 704 q 610 660 550 704 q 703 539 671 617 q 736 356 736 461 q 694 154 736 238 q 587 27 653 71 q 446 -17 521 -17 m 403 139 q 473 162 442 139 q 523 232 504 185 q 542 353 542 279 q 528 460 542 417 q 485 526 514 503 q 413 549 457 549 q 348 533 379 549 q 283 482 317 517 l 283 188 q 345 150 314 161 q 403 139 376 139 m 197 -258 l 197 -136 l 601 -136 l 601 -258 l 197 -258 z "},"c":{"ha":647,"x_min":53,"x_max":615,"o":"m 389 -17 q 218 26 294 -17 q 97 149 142 68 q 53 343 53 229 q 102 538 53 457 q 232 661 151 618 q 406 704 313 704 q 519 683 469 704 q 607 629 569 661 l 517 507 q 468 540 492 529 q 417 550 444 550 q 327 524 365 550 q 268 452 289 499 q 247 343 247 406 q 268 234 247 281 q 326 163 289 188 q 410 138 363 138 q 479 153 446 138 q 540 190 513 168 l 615 67 q 506 3 565 22 q 389 -17 446 -17 z "},"č":{"ha":647,"x_min":53,"x_max":633,"o":"m 389 -17 q 218 26 294 -17 q 97 149 142 68 q 53 343 53 229 q 102 538 53 457 q 232 661 151 618 q 406 704 313 704 q 519 683 469 704 q 607 629 569 661 l 517 507 q 468 540 492 529 q 417 550 444 550 q 327 524 365 550 q 268 452 289 499 q 247 343 247 406 q 268 234 247 281 q 326 163 289 188 q 410 138 363 138 q 479 153 446 138 q 540 190 513 168 l 615 67 q 506 3 565 22 q 389 -17 446 -17 m 289 801 l 138 985 l 210 1053 l 382 921 l 388 921 l 560 1053 l 633 985 l 482 801 l 289 801 z "},"ç":{"ha":647,"x_min":53,"x_max":615,"o":"m 389 -17 q 218 26 294 -17 q 97 149 142 68 q 53 343 53 229 q 102 538 53 457 q 232 661 151 618 q 406 704 313 704 q 519 683 469 704 q 607 629 569 661 l 517 507 q 468 540 492 529 q 417 550 444 550 q 327 524 365 550 q 268 452 289 499 q 247 343 247 406 q 268 234 247 281 q 326 163 289 188 q 410 138 363 138 q 479 153 446 138 q 540 190 513 168 l 615 67 q 506 3 565 22 q 389 -17 446 -17 m 247 -329 l 232 -251 q 345 -232 314 -246 q 376 -189 376 -218 q 355 -152 376 -167 q 269 -129 333 -137 l 336 6 l 447 6 l 408 -85 q 487 -121 460 -97 q 514 -187 514 -144 q 444 -290 514 -257 q 247 -329 374 -324 z "},"d":{"ha":792,"x_min":57,"x_max":699,"o":"m 338 -17 q 133 79 210 -17 q 57 343 57 175 q 98 536 57 456 q 204 660 139 617 q 343 704 269 704 q 440 685 401 704 q 515 631 479 665 l 508 738 l 508 976 l 699 976 l 699 0 l 543 0 l 529 71 l 525 71 q 438 8 488 33 q 338 -17 389 -17 m 386 139 q 451 154 422 139 q 508 206 481 169 l 508 500 q 448 538 479 528 q 386 549 417 549 q 319 526 350 549 q 270 458 289 503 q 251 346 251 413 q 287 190 251 242 q 386 139 322 139 z "},"ð":{"ha":775,"x_min":61,"x_max":703,"o":"m 378 -17 q 222 24 293 -17 q 106 139 150 64 q 61 315 61 214 q 101 485 61 414 q 205 593 140 556 q 344 631 269 631 q 452 604 400 631 q 531 514 504 578 l 532 411 q 460 473 497 457 q 382 489 422 489 q 304 469 338 489 q 253 411 271 450 q 235 315 235 372 q 256 219 235 258 q 310 158 276 179 q 385 138 344 138 q 459 162 428 138 q 508 235 490 186 q 525 358 525 285 q 502 549 525 467 q 433 697 479 632 q 319 813 386 761 q 161 910 251 864 l 244 1026 q 413 923 331 982 q 560 786 494 864 q 665 606 626 708 q 703 368 703 503 q 663 169 703 256 q 551 33 624 83 q 378 -17 478 -17 m 178 665 l 128 750 l 635 1007 l 685 921 l 178 665 z "},"ḍ":{"ha":792,"x_min":57,"x_max":699,"o":"m 338 -17 q 133 79 210 -17 q 57 343 57 175 q 98 536 57 456 q 204 660 139 617 q 343 704 269 704 q 440 685 401 704 q 515 631 479 665 l 508 738 l 508 976 l 699 976 l 699 0 l 543 0 l 529 71 l 525 71 q 438 8 488 33 q 338 -17 389 -17 m 386 139 q 451 154 422 139 q 508 206 481 169 l 508 500 q 448 538 479 528 q 386 549 417 549 q 319 526 350 549 q 270 458 289 503 q 251 346 251 413 q 287 190 251 242 q 386 139 322 139 m 414 -308 q 338 -280 368 -308 q 307 -207 307 -251 q 338 -134 307 -162 q 414 -106 368 -106 q 491 -134 461 -106 q 521 -207 521 -162 q 491 -280 521 -251 q 414 -308 461 -308 z "},"ḏ":{"ha":792,"x_min":57,"x_max":699,"o":"m 338 -17 q 133 79 210 -17 q 57 343 57 175 q 98 536 57 456 q 204 660 139 617 q 343 704 269 704 q 440 685 401 704 q 515 631 479 665 l 508 738 l 508 976 l 699 976 l 699 0 l 543 0 l 529 71 l 525 71 q 438 8 488 33 q 338 -17 389 -17 m 386 139 q 451 154 422 139 q 508 206 481 169 l 508 500 q 448 538 479 528 q 386 549 417 549 q 319 526 350 549 q 270 458 289 503 q 251 346 251 413 q 287 190 251 242 q 386 139 322 139 m 213 -258 l 213 -136 l 617 -136 l 617 -258 l 213 -258 z "},"e":{"ha":714,"x_min":53,"x_max":664,"o":"m 397 -17 q 222 26 300 -17 q 98 149 143 69 q 53 343 53 229 q 99 535 53 454 q 218 660 144 615 q 374 704 292 704 q 534 661 469 704 q 631 544 599 618 q 664 375 664 469 q 661 326 664 350 q 656 289 658 301 l 201 289 l 200 415 l 501 415 q 472 519 501 481 q 378 558 442 558 q 306 538 340 558 q 249 469 271 517 q 226 343 226 422 q 255 217 226 264 q 328 150 283 171 q 422 129 372 129 q 501 141 464 129 q 575 175 538 153 l 638 60 q 523 4 586 25 q 397 -17 460 -17 z "},"é":{"ha":714,"x_min":53,"x_max":664,"o":"m 397 -17 q 222 26 300 -17 q 98 149 143 69 q 53 343 53 229 q 99 535 53 454 q 218 660 144 615 q 374 704 292 704 q 534 661 469 704 q 631 544 599 618 q 664 375 664 469 q 661 326 664 350 q 656 289 658 301 l 201 289 l 200 415 l 501 415 q 472 519 501 481 q 378 558 442 558 q 306 538 340 558 q 249 469 271 517 q 226 343 226 422 q 255 217 226 264 q 328 150 283 171 q 422 129 372 129 q 501 141 464 129 q 575 175 538 153 l 638 60 q 523 4 586 25 q 397 -17 460 -17 m 392 796 l 297 889 l 508 1138 l 638 1013 l 392 796 z "},"ĕ":{"ha":714,"x_min":53,"x_max":664,"o":"m 397 -17 q 222 26 300 -17 q 98 149 143 69 q 53 343 53 229 q 99 535 53 454 q 218 660 144 615 q 374 704 292 704 q 534 661 469 704 q 631 544 599 618 q 664 375 664 469 q 661 326 664 350 q 656 289 658 301 l 201 289 l 200 415 l 501 415 q 472 519 501 481 q 378 558 442 558 q 306 538 340 558 q 249 469 271 517 q 226 343 226 422 q 255 217 226 264 q 328 150 283 171 q 422 129 372 129 q 501 141 464 129 q 575 175 538 153 l 638 60 q 523 4 586 25 q 397 -17 460 -17 m 382 794 q 253 824 304 794 q 178 902 203 853 q 150 1011 153 951 l 260 1029 q 278 972 264 999 q 319 930 293 946 q 382 914 344 914 q 447 930 421 914 q 486 972 472 946 q 506 1029 500 999 l 614 1011 q 586 902 611 951 q 511 824 561 853 q 382 794 461 794 z "},"ê":{"ha":714,"x_min":53,"x_max":664,"o":"m 397 -17 q 222 26 300 -17 q 98 149 143 69 q 53 343 53 229 q 99 535 53 454 q 218 660 144 615 q 374 704 292 704 q 534 661 469 704 q 631 544 599 618 q 664 375 664 469 q 661 326 664 350 q 656 289 658 301 l 201 289 l 200 415 l 501 415 q 472 519 501 481 q 378 558 442 558 q 306 538 340 558 q 249 469 271 517 q 226 343 226 422 q 255 217 226 264 q 328 150 283 171 q 422 129 372 129 q 501 141 464 129 q 575 175 538 153 l 638 60 q 523 4 586 25 q 397 -17 460 -17 m 207 781 l 135 849 l 286 1033 l 479 1033 l 631 849 l 557 781 l 385 914 l 379 914 l 207 781 z "},"ë":{"ha":714,"x_min":53,"x_max":664,"o":"m 397 -17 q 222 26 300 -17 q 98 149 143 69 q 53 343 53 229 q 99 535 53 454 q 218 660 144 615 q 374 704 292 704 q 534 661 469 704 q 631 544 599 618 q 664 375 664 469 q 661 326 664 350 q 656 289 658 301 l 201 289 l 200 415 l 501 415 q 472 519 501 481 q 378 558 442 558 q 306 538 340 558 q 249 469 271 517 q 226 343 226 422 q 255 217 226 264 q 328 150 283 171 q 422 129 372 129 q 501 141 464 129 q 575 175 538 153 l 638 60 q 523 4 586 25 q 397 -17 460 -17 m 531 794 q 463 822 490 794 q 436 889 436 849 q 463 956 436 929 q 531 983 490 983 q 599 956 572 983 q 625 889 625 929 q 599 822 625 849 q 531 794 572 794 m 233 794 q 166 822 193 794 q 139 889 139 849 q 166 956 139 929 q 233 983 193 983 q 301 956 275 983 q 328 889 328 929 q 301 822 328 849 q 233 794 275 794 z "},"ẹ":{"ha":714,"x_min":53,"x_max":664,"o":"m 397 -17 q 222 26 300 -17 q 98 149 143 69 q 53 343 53 229 q 99 535 53 454 q 218 660 144 615 q 374 704 292 704 q 534 661 469 704 q 631 544 599 618 q 664 375 664 469 q 661 326 664 350 q 656 289 658 301 l 201 289 l 200 415 l 501 415 q 472 519 501 481 q 378 558 442 558 q 306 538 340 558 q 249 469 271 517 q 226 343 226 422 q 255 217 226 264 q 328 150 283 171 q 422 129 372 129 q 501 141 464 129 q 575 175 538 153 l 638 60 q 523 4 586 25 q 397 -17 460 -17 m 368 -308 q 292 -280 322 -308 q 261 -207 261 -251 q 292 -134 261 -162 q 368 -106 322 -106 q 445 -134 415 -106 q 475 -207 475 -162 q 445 -280 475 -251 q 368 -308 415 -308 z "},"è":{"ha":714,"x_min":53,"x_max":664,"o":"m 397 -17 q 222 26 300 -17 q 98 149 143 69 q 53 343 53 229 q 99 535 53 454 q 218 660 144 615 q 374 704 292 704 q 534 661 469 704 q 631 544 599 618 q 664 375 664 469 q 661 326 664 350 q 656 289 658 301 l 201 289 l 200 415 l 501 415 q 472 519 501 481 q 378 558 442 558 q 306 538 340 558 q 249 469 271 517 q 226 343 226 422 q 255 217 226 264 q 328 150 283 171 q 422 129 372 129 q 501 141 464 129 q 575 175 538 153 l 638 60 q 523 4 586 25 q 397 -17 460 -17 m 374 796 l 128 1013 l 257 1138 l 467 889 l 374 796 z "},"ē":{"ha":714,"x_min":53,"x_max":664,"o":"m 397 -17 q 222 26 300 -17 q 98 149 143 69 q 53 343 53 229 q 99 535 53 454 q 218 660 144 615 q 374 704 292 704 q 534 661 469 704 q 631 544 599 618 q 664 375 664 469 q 661 326 664 350 q 656 289 658 301 l 201 289 l 200 415 l 501 415 q 472 519 501 481 q 378 558 442 558 q 306 538 340 558 q 249 469 271 517 q 226 343 226 422 q 255 217 226 264 q 328 150 283 171 q 422 129 372 129 q 501 141 464 129 q 575 175 538 153 l 638 60 q 523 4 586 25 q 397 -17 460 -17 m 181 824 l 181 946 l 585 946 l 585 824 l 181 824 z "},"ę":{"ha":714,"x_min":53,"x_max":664,"o":"m 503 -290 q 402 -258 443 -290 q 361 -165 361 -226 q 387 -74 361 -114 q 439 -11 413 -33 q 416 -15 426 -14 q 397 -17 406 -17 q 222 26 300 -17 q 98 149 143 69 q 53 343 53 229 q 99 535 53 454 q 218 660 144 615 q 374 704 292 704 q 534 661 469 704 q 631 544 599 618 q 664 375 664 469 q 661 326 664 350 q 656 289 658 301 l 236 289 q 270 200 244 236 q 335 147 296 164 q 422 129 374 129 q 501 141 464 129 q 575 175 538 153 l 638 60 q 544 -12 576 18 q 499 -69 511 -43 q 488 -122 488 -96 q 506 -163 488 -150 q 547 -176 524 -176 q 574 -172 563 -176 q 597 -160 586 -167 l 638 -246 q 574 -278 613 -265 q 503 -290 535 -290 m 235 415 l 501 415 q 472 519 501 481 q 378 558 442 558 q 313 542 343 558 q 262 494 282 526 q 235 415 242 463 z "},"ɛ":{"ha":636,"x_min":65,"x_max":610,"o":"m 369 -17 q 221 8 290 -17 q 108 79 151 32 q 65 194 65 126 q 84 275 65 242 q 136 329 103 308 q 210 361 169 350 l 210 367 q 125 425 153 383 q 97 510 97 467 q 135 620 97 578 q 237 683 174 663 q 372 704 300 704 q 487 688 433 704 q 592 640 540 672 l 521 518 q 454 548 486 538 q 382 558 422 558 q 310 538 338 558 q 283 483 283 518 q 310 433 283 450 q 389 415 336 415 l 481 415 l 481 289 l 368 289 q 280 271 308 289 q 251 214 251 253 q 290 151 251 174 q 388 129 328 129 q 458 140 421 129 q 535 175 496 151 l 610 54 q 492 -1 549 14 q 369 -17 435 -17 z "},"ʃ":{"ha":379,"x_min":-68,"x_max":450,"o":"m 50 -276 q -19 -271 8 -276 q -68 -258 -47 -265 l -35 -118 q -6 -125 -19 -122 q 21 -128 7 -128 q 80 -99 64 -128 q 96 -12 96 -71 l 96 725 q 119 860 96 799 q 197 957 142 921 q 346 993 251 993 q 408 988 383 993 q 450 975 432 982 l 417 835 q 397 842 407 839 q 375 844 386 844 q 306 817 325 844 q 286 729 286 789 l 286 -8 q 265 -143 286 -82 q 191 -240 243 -204 q 50 -276 139 -276 z "},"ʒ":{"ha":632,"x_min":7,"x_max":603,"o":"m 292 -276 q 123 -243 192 -276 q 7 -165 54 -210 l 93 -47 q 171 -101 128 -78 q 269 -124 214 -124 q 344 -105 311 -124 q 394 -51 376 -86 q 413 33 413 -15 q 374 136 413 100 q 271 172 336 172 q 228 168 243 172 q 189 154 213 164 l 125 247 l 344 538 l 54 538 l 54 688 l 571 688 l 571 586 l 356 301 q 489 264 433 299 q 574 171 544 229 q 603 39 603 113 q 560 -133 603 -62 q 446 -240 517 -204 q 292 -276 375 -276 z "},"f":{"ha":463,"x_min":35,"x_max":504,"o":"m 126 0 l 126 735 q 151 865 126 807 q 228 958 175 924 q 371 993 282 993 q 447 985 413 993 q 504 968 482 978 l 469 828 q 433 840 451 836 q 397 843 415 843 q 338 819 358 843 q 317 739 317 794 l 317 0 l 126 0 m 35 538 l 35 679 l 138 688 l 443 688 l 443 538 l 35 538 z "},"g":{"ha":736,"x_min":50,"x_max":715,"o":"m 338 -296 q 192 -277 257 -296 q 88 -219 126 -258 q 50 -119 50 -181 q 76 -41 50 -76 q 149 21 101 -6 l 149 26 q 104 73 122 44 q 86 143 86 101 q 108 215 86 181 q 163 271 131 249 l 163 276 q 99 349 126 303 q 71 456 71 396 q 110 592 71 538 q 213 676 149 647 q 350 704 276 704 q 406 699 379 704 q 456 688 433 694 l 704 688 l 704 549 l 589 549 q 610 506 601 532 q 618 450 618 479 q 582 319 618 371 q 485 243 546 268 q 350 218 425 218 q 309 222 331 218 q 264 232 288 225 q 243 209 250 221 q 236 176 236 197 q 260 136 236 150 q 342 122 285 122 l 457 122 q 649 81 582 122 q 715 -50 715 40 q 669 -176 715 -121 q 538 -264 622 -232 q 338 -296 453 -296 m 367 -175 q 453 -163 415 -175 q 512 -130 490 -151 q 533 -82 533 -108 q 505 -35 533 -47 q 424 -24 476 -24 l 344 -24 q 290 -22 313 -24 q 250 -15 268 -19 q 217 -51 228 -33 q 207 -90 207 -69 q 251 -153 207 -132 q 367 -175 294 -175 m 350 333 q 402 347 379 333 q 439 389 425 361 q 453 456 453 417 q 439 521 453 494 q 402 561 425 547 q 350 575 379 575 q 278 545 307 575 q 249 456 249 515 q 262 389 249 417 q 298 347 275 361 q 350 333 321 333 z "},"ǧ":{"ha":736,"x_min":50,"x_max":715,"o":"m 338 -296 q 192 -277 257 -296 q 88 -219 126 -258 q 50 -119 50 -181 q 76 -41 50 -76 q 149 21 101 -6 l 149 26 q 104 73 122 44 q 86 143 86 101 q 108 215 86 181 q 163 271 131 249 l 163 276 q 99 349 126 303 q 71 456 71 396 q 110 592 71 538 q 213 676 149 647 q 350 704 276 704 q 406 699 379 704 q 456 688 433 694 l 704 688 l 704 549 l 589 549 q 610 506 601 532 q 618 450 618 479 q 582 319 618 371 q 485 243 546 268 q 350 218 425 218 q 309 222 331 218 q 264 232 288 225 q 243 209 250 221 q 236 176 236 197 q 260 136 236 150 q 342 122 285 122 l 457 122 q 649 81 582 122 q 715 -50 715 40 q 669 -176 715 -121 q 538 -264 622 -232 q 338 -296 453 -296 m 367 -175 q 453 -163 415 -175 q 512 -130 490 -151 q 533 -82 533 -108 q 505 -35 533 -47 q 424 -24 476 -24 l 344 -24 q 290 -22 313 -24 q 250 -15 268 -19 q 217 -51 228 -33 q 207 -90 207 -69 q 251 -153 207 -132 q 367 -175 294 -175 m 350 333 q 402 347 379 333 q 439 389 425 361 q 453 456 453 417 q 439 521 453 494 q 402 561 425 547 q 350 575 379 575 q 278 545 307 575 q 249 456 249 515 q 262 389 249 417 q 298 347 275 361 q 350 333 321 333 m 282 801 l 131 985 l 203 1053 l 375 921 l 381 921 l 553 1053 l 626 985 l 475 801 l 282 801 z "},"ġ":{"ha":736,"x_min":50,"x_max":715,"o":"m 338 -296 q 192 -277 257 -296 q 88 -219 126 -258 q 50 -119 50 -181 q 76 -41 50 -76 q 149 21 101 -6 l 149 26 q 104 73 122 44 q 86 143 86 101 q 108 215 86 181 q 163 271 131 249 l 163 276 q 99 349 126 303 q 71 456 71 396 q 110 592 71 538 q 213 676 149 647 q 350 704 276 704 q 406 699 379 704 q 456 688 433 694 l 704 688 l 704 549 l 589 549 q 610 506 601 532 q 618 450 618 479 q 582 319 618 371 q 485 243 546 268 q 350 218 425 218 q 309 222 331 218 q 264 232 288 225 q 243 209 250 221 q 236 176 236 197 q 260 136 236 150 q 342 122 285 122 l 457 122 q 649 81 582 122 q 715 -50 715 40 q 669 -176 715 -121 q 538 -264 622 -232 q 338 -296 453 -296 m 367 -175 q 453 -163 415 -175 q 512 -130 490 -151 q 533 -82 533 -108 q 505 -35 533 -47 q 424 -24 476 -24 l 344 -24 q 290 -22 313 -24 q 250 -15 268 -19 q 217 -51 228 -33 q 207 -90 207 -69 q 251 -153 207 -132 q 367 -175 294 -175 m 350 333 q 402 347 379 333 q 439 389 425 361 q 453 456 453 417 q 439 521 453 494 q 402 561 425 547 q 350 575 379 575 q 278 545 307 575 q 249 456 249 515 q 262 389 249 417 q 298 347 275 361 q 350 333 321 333 m 378 794 q 301 823 332 794 q 271 896 271 851 q 301 969 271 940 q 378 997 332 997 q 455 969 425 997 q 485 896 485 940 q 455 823 485 851 q 378 794 425 794 z "},"ʔ":{"ha":615,"x_min":-7,"x_max":592,"o":"m 183 0 l 183 442 q 310 533 263 492 q 380 615 358 575 q 401 703 401 656 q 365 803 401 768 q 265 839 328 839 q 165 813 210 839 q 88 749 121 786 l -7 869 q 67 931 25 903 q 164 976 110 960 q 285 993 218 993 q 438 962 368 993 q 549 868 507 931 q 592 711 592 806 q 563 575 592 633 q 485 468 535 517 q 372 369 436 419 l 372 0 l 183 0 z "},"ʕ":{"ha":689,"x_min":56,"x_max":654,"o":"m 275 0 l 275 369 q 161 468 211 419 q 83 575 111 517 q 56 711 56 633 q 99 868 56 806 q 217 962 143 931 q 376 993 290 993 q 492 976 440 993 q 583 931 543 960 q 654 869 624 903 l 560 749 q 488 813 529 786 q 396 839 447 839 q 287 803 328 839 q 246 703 246 768 q 267 615 246 656 q 337 533 289 575 q 464 442 385 492 l 464 0 l 275 0 z "},"ḡ":{"ha":736,"x_min":50,"x_max":715,"o":"m 338 -296 q 192 -277 257 -296 q 88 -219 126 -258 q 50 -119 50 -181 q 76 -41 50 -76 q 149 21 101 -6 l 149 26 q 104 73 122 44 q 86 143 86 101 q 108 215 86 181 q 163 271 131 249 l 163 276 q 99 349 126 303 q 71 456 71 396 q 110 592 71 538 q 213 676 149 647 q 350 704 276 704 q 406 699 379 704 q 456 688 433 694 l 704 688 l 704 549 l 589 549 q 610 506 601 532 q 618 450 618 479 q 582 319 618 371 q 485 243 546 268 q 350 218 425 218 q 309 222 331 218 q 264 232 288 225 q 243 209 250 221 q 236 176 236 197 q 260 136 236 150 q 342 122 285 122 l 457 122 q 649 81 582 122 q 715 -50 715 40 q 669 -176 715 -121 q 538 -264 622 -232 q 338 -296 453 -296 m 367 -175 q 453 -163 415 -175 q 512 -130 490 -151 q 533 -82 533 -108 q 505 -35 533 -47 q 424 -24 476 -24 l 344 -24 q 290 -22 313 -24 q 250 -15 268 -19 q 217 -51 228 -33 q 207 -90 207 -69 q 251 -153 207 -132 q 367 -175 294 -175 m 350 333 q 402 347 379 333 q 439 389 425 361 q 453 456 453 417 q 439 521 453 494 q 402 561 425 547 q 350 575 379 575 q 278 545 307 575 q 249 456 249 515 q 262 389 249 417 q 298 347 275 361 q 350 333 321 333 m 176 824 l 176 946 l 581 946 l 581 824 l 176 824 z "},"h":{"ha":788,"x_min":94,"x_max":703,"o":"m 94 0 l 94 976 l 283 976 l 283 733 l 275 606 q 367 674 315 643 q 490 704 419 704 q 652 631 601 704 q 703 428 703 557 l 703 0 l 513 0 l 513 404 q 491 512 513 482 q 421 542 469 542 q 350 523 379 542 q 283 469 321 504 l 283 0 l 94 0 z "},"ħ":{"ha":788,"x_min":-1,"x_max":703,"o":"m 94 0 l 94 976 l 283 976 l 283 668 l 275 540 q 367 608 315 578 q 490 639 419 639 q 652 565 601 639 q 703 363 703 492 l 703 0 l 513 0 l 513 339 q 491 447 513 417 q 421 476 469 476 q 350 458 379 476 q 283 404 321 439 l 283 0 l 94 0 m -1 776 l -1 861 l 104 869 l 521 869 l 521 776 l -1 776 z "},"ḫ":{"ha":788,"x_min":94,"x_max":703,"o":"m 94 0 l 94 976 l 283 976 l 283 733 l 275 606 q 367 674 315 643 q 490 704 419 704 q 652 631 601 704 q 703 428 703 557 l 703 0 l 513 0 l 513 404 q 491 512 513 482 q 421 542 469 542 q 350 523 379 542 q 283 469 321 504 l 283 0 l 94 0 m 410 -322 q 281 -293 332 -322 q 206 -215 231 -264 q 178 -106 181 -165 l 288 -87 q 306 -144 292 -118 q 347 -187 321 -171 q 410 -203 372 -203 q 474 -187 449 -203 q 514 -144 500 -171 q 533 -87 528 -118 l 642 -106 q 614 -215 639 -165 q 539 -293 589 -264 q 410 -322 489 -322 z "},"ḥ":{"ha":788,"x_min":94,"x_max":703,"o":"m 94 0 l 94 976 l 283 976 l 283 733 l 275 606 q 367 674 315 643 q 490 704 419 704 q 652 631 601 704 q 703 428 703 557 l 703 0 l 513 0 l 513 404 q 491 512 513 482 q 421 542 469 542 q 350 523 379 542 q 283 469 321 504 l 283 0 l 94 0 m 410 -308 q 333 -280 364 -308 q 303 -207 303 -251 q 333 -134 303 -162 q 410 -106 364 -106 q 487 -134 457 -106 q 517 -207 517 -162 q 487 -280 517 -251 q 410 -308 457 -308 z "},"ẖ":{"ha":788,"x_min":94,"x_max":703,"o":"m 94 0 l 94 976 l 283 976 l 283 733 l 275 606 q 367 674 315 643 q 490 704 419 704 q 652 631 601 704 q 703 428 703 557 l 703 0 l 513 0 l 513 404 q 491 512 513 482 q 421 542 469 542 q 350 523 379 542 q 283 469 321 504 l 283 0 l 94 0 m 208 -258 l 208 -136 l 613 -136 l 613 -258 l 208 -258 z "},"i":{"ha":378,"x_min":82,"x_max":296,"o":"m 94 0 l 94 688 l 283 688 l 283 0 l 94 0 m 189 794 q 113 823 143 794 q 82 896 82 851 q 113 969 82 940 q 189 997 143 997 q 266 969 236 997 q 296 896 296 940 q 266 823 296 851 q 189 794 236 794 z "},"ı":{"ha":378,"x_min":94,"x_max":283,"o":"m 94 0 l 94 688 l 283 688 l 283 0 l 94 0 z "},"í":{"ha":378,"x_min":94,"x_max":444,"o":"m 94 0 l 94 688 l 283 688 l 283 0 l 94 0 m 199 796 l 104 889 l 315 1138 l 444 1013 l 199 796 z "},"î":{"ha":378,"x_min":-58,"x_max":438,"o":"m 94 0 l 94 688 l 283 688 l 283 0 l 94 0 m 14 781 l -58 849 l 93 1033 l 286 1033 l 438 849 l 364 781 l 192 914 l 186 914 l 14 781 z "},"ï":{"ha":378,"x_min":-54,"x_max":432,"o":"m 94 0 l 94 688 l 283 688 l 283 0 l 94 0 m 338 794 q 270 822 297 794 q 243 889 243 849 q 270 956 243 929 q 338 983 297 983 q 406 956 379 983 q 432 889 432 929 q 406 822 432 849 q 338 794 379 794 m 40 794 q -27 822 0 794 q -54 889 -54 849 q -27 956 -54 929 q 40 983 0 983 q 108 956 82 983 q 135 889 135 929 q 108 822 135 849 q 40 794 82 794 z "},"ì":{"ha":378,"x_min":-65,"x_max":283,"o":"m 94 0 l 94 688 l 283 688 l 283 0 l 94 0 m 181 796 l -65 1013 l 64 1138 l 274 889 l 181 796 z "},"ī":{"ha":378,"x_min":-12,"x_max":392,"o":"m 94 0 l 94 688 l 283 688 l 283 0 l 94 0 m -12 824 l -12 946 l 392 946 l 392 824 l -12 824 z "},"j":{"ha":379,"x_min":-62,"x_max":299,"o":"m 56 -276 q -12 -271 15 -276 q -62 -258 -40 -265 l -28 -118 q -1 -125 -14 -122 q 28 -128 13 -128 q 86 -99 69 -128 q 103 -12 103 -71 l 104 688 l 294 688 l 292 -8 q 270 -143 292 -82 q 197 -240 249 -204 q 56 -276 146 -276 m 56 -276 q -12 -271 15 -276 q -62 -258 -40 -265 l -28 -118 q -1 -125 -14 -122 q 28 -128 13 -128 q 86 -99 69 -128 q 103 -12 103 -71 l 104 688 l 294 688 l 292 -8 q 270 -143 292 -82 q 197 -240 249 -204 q 56 -276 146 -276 m 192 794 q 115 823 144 794 q 85 896 85 851 q 115 969 85 940 q 192 997 144 997 q 269 969 239 997 q 299 896 299 940 q 269 823 299 851 q 192 794 239 794 z "},"k":{"ha":749,"x_min":94,"x_max":740,"o":"m 94 0 l 94 976 l 279 976 l 279 400 l 285 400 l 514 688 l 721 688 l 482 406 l 740 0 l 535 0 l 374 278 l 279 171 l 279 0 l 94 0 z "},"ḳ":{"ha":749,"x_min":94,"x_max":740,"o":"m 94 0 l 94 976 l 279 976 l 279 400 l 285 400 l 514 688 l 721 688 l 482 406 l 740 0 l 535 0 l 374 278 l 279 171 l 279 0 l 94 0 m 404 -308 q 328 -280 358 -308 q 297 -207 297 -251 q 328 -134 297 -162 q 404 -106 358 -106 q 481 -134 451 -106 q 511 -207 511 -162 q 481 -280 511 -251 q 404 -308 451 -308 z "},"ḵ":{"ha":749,"x_min":94,"x_max":740,"o":"m 94 0 l 94 976 l 279 976 l 279 400 l 285 400 l 514 688 l 721 688 l 482 406 l 740 0 l 535 0 l 374 278 l 279 171 l 279 0 l 94 0 m 203 -258 l 203 -136 l 607 -136 l 607 -258 l 203 -258 z "},"l":{"ha":390,"x_min":94,"x_max":368,"o":"m 271 -17 q 167 10 206 -17 q 111 86 128 38 q 94 201 94 135 l 94 976 l 283 976 l 283 193 q 295 150 283 163 q 319 138 307 138 q 331 138 326 138 q 344 140 336 139 l 368 0 q 328 -12 351 -7 q 271 -17 304 -17 z "},"ł":{"ha":411,"x_min":-24,"x_max":429,"o":"m 42 357 l -24 475 l 118 557 l 258 621 l 364 683 l 429 565 l 258 468 l 118 404 l 42 357 m 283 -17 q 179 10 218 -17 q 124 86 140 38 q 107 201 107 135 l 107 976 l 296 976 l 296 193 q 308 150 296 163 q 332 138 319 138 q 344 138 339 138 q 357 140 349 139 l 381 0 q 340 -12 364 -7 q 283 -17 317 -17 z "},"m":{"ha":1185,"x_min":94,"x_max":1097,"o":"m 94 0 l 94 688 l 249 688 l 263 597 l 268 597 q 360 672 310 640 q 476 704 410 704 q 596 673 550 704 q 667 586 642 642 q 765 669 713 635 q 883 704 817 704 q 1046 631 994 704 q 1097 428 1097 557 l 1097 0 l 908 0 l 908 404 q 886 512 908 482 q 817 542 864 542 q 757 524 788 542 q 690 469 726 507 l 690 0 l 501 0 l 501 404 q 479 512 501 482 q 410 542 457 542 q 283 469 353 542 l 283 0 l 94 0 z "},"n":{"ha":789,"x_min":94,"x_max":703,"o":"m 94 0 l 94 688 l 249 688 l 263 599 l 268 599 q 366 673 313 642 q 490 704 419 704 q 652 631 601 704 q 703 428 703 557 l 703 0 l 513 0 l 513 404 q 491 512 513 482 q 421 542 469 542 q 350 523 379 542 q 283 469 321 504 l 283 0 l 94 0 z "},"ñ":{"ha":789,"x_min":94,"x_max":703,"o":"m 94 0 l 94 688 l 249 688 l 263 599 l 268 599 q 366 673 313 642 q 490 704 419 704 q 652 631 601 704 q 703 428 703 557 l 703 0 l 513 0 l 513 404 q 491 512 513 482 q 421 542 469 542 q 350 523 379 542 q 283 469 321 504 l 283 0 l 94 0 m 524 797 q 465 811 492 797 q 417 844 438 825 q 378 876 396 863 q 342 890 360 890 q 307 871 319 890 q 290 808 294 851 l 171 815 q 192 931 172 885 q 249 999 213 976 q 338 1022 285 1022 q 398 1008 372 1022 q 445 976 424 994 q 485 943 467 957 q 521 929 503 929 q 556 949 543 929 q 571 1011 568 969 l 690 1004 q 669 890 689 936 q 613 821 650 844 q 524 797 576 797 z "},"o":{"ha":768,"x_min":53,"x_max":717,"o":"m 385 -17 q 222 26 297 -17 q 99 149 146 68 q 53 343 53 229 q 99 538 53 457 q 222 661 146 618 q 385 704 297 704 q 547 661 471 704 q 669 538 622 618 q 717 343 717 457 q 669 149 717 229 q 547 26 622 68 q 385 -17 471 -17 m 385 138 q 460 163 429 138 q 506 234 490 188 q 522 343 522 281 q 506 452 522 406 q 460 524 490 499 q 385 550 429 550 q 308 524 339 550 q 263 452 278 499 q 247 343 247 406 q 263 234 247 281 q 308 163 278 188 q 385 138 339 138 z "},"ó":{"ha":768,"x_min":53,"x_max":717,"o":"m 385 -17 q 222 26 297 -17 q 99 149 146 68 q 53 343 53 229 q 99 538 53 457 q 222 661 146 618 q 385 704 297 704 q 547 661 471 704 q 669 538 622 618 q 717 343 717 457 q 669 149 717 229 q 547 26 622 68 q 385 -17 471 -17 m 385 138 q 460 163 429 138 q 506 234 490 188 q 522 343 522 281 q 506 452 522 406 q 460 524 490 499 q 385 550 429 550 q 308 524 339 550 q 263 452 278 499 q 247 343 247 406 q 263 234 247 281 q 308 163 278 188 q 385 138 339 138 m 394 796 l 300 889 l 511 1138 l 640 1013 l 394 796 z "},"ŏ":{"ha":768,"x_min":53,"x_max":717,"o":"m 385 -17 q 222 26 297 -17 q 99 149 146 68 q 53 343 53 229 q 99 538 53 457 q 222 661 146 618 q 385 704 297 704 q 547 661 471 704 q 669 538 622 618 q 717 343 717 457 q 669 149 717 229 q 547 26 622 68 q 385 -17 471 -17 m 385 138 q 460 163 429 138 q 506 234 490 188 q 522 343 522 281 q 506 452 522 406 q 460 524 490 499 q 385 550 429 550 q 308 524 339 550 q 263 452 278 499 q 247 343 247 406 q 263 234 247 281 q 308 163 278 188 q 385 138 339 138 m 385 794 q 256 824 307 794 q 181 902 206 853 q 153 1011 156 951 l 263 1029 q 281 972 267 999 q 322 930 296 946 q 385 914 347 914 q 449 930 424 914 q 489 972 475 946 q 508 1029 503 999 l 617 1011 q 589 902 614 951 q 514 824 564 853 q 385 794 464 794 z "},"ô":{"ha":768,"x_min":53,"x_max":717,"o":"m 385 -17 q 222 26 297 -17 q 99 149 146 68 q 53 343 53 229 q 99 538 53 457 q 222 661 146 618 q 385 704 297 704 q 547 661 471 704 q 669 538 622 618 q 717 343 717 457 q 669 149 717 229 q 547 26 622 68 q 385 -17 471 -17 m 385 138 q 460 163 429 138 q 506 234 490 188 q 522 343 522 281 q 506 452 522 406 q 460 524 490 499 q 385 550 429 550 q 308 524 339 550 q 263 452 278 499 q 247 343 247 406 q 263 234 247 281 q 308 163 278 188 q 385 138 339 138 m 210 781 l 138 849 l 289 1033 l 482 1033 l 633 849 l 560 781 l 388 914 l 382 914 l 210 781 z "},"ö":{"ha":768,"x_min":53,"x_max":717,"o":"m 385 -17 q 222 26 297 -17 q 99 149 146 68 q 53 343 53 229 q 99 538 53 457 q 222 661 146 618 q 385 704 297 704 q 547 661 471 704 q 669 538 622 618 q 717 343 717 457 q 669 149 717 229 q 547 26 622 68 q 385 -17 471 -17 m 385 138 q 460 163 429 138 q 506 234 490 188 q 522 343 522 281 q 506 452 522 406 q 460 524 490 499 q 385 550 429 550 q 308 524 339 550 q 263 452 278 499 q 247 343 247 406 q 263 234 247 281 q 308 163 278 188 q 385 138 339 138 m 533 794 q 466 822 493 794 q 439 889 439 849 q 466 956 439 929 q 533 983 493 983 q 601 956 575 983 q 628 889 628 929 q 601 822 628 849 q 533 794 575 794 m 236 794 q 169 822 196 794 q 142 889 142 849 q 169 956 142 929 q 236 983 196 983 q 304 956 278 983 q 331 889 331 929 q 304 822 331 849 q 236 794 278 794 z "},"ọ":{"ha":768,"x_min":53,"x_max":717,"o":"m 385 -17 q 222 26 297 -17 q 99 149 146 68 q 53 343 53 229 q 99 538 53 457 q 222 661 146 618 q 385 704 297 704 q 547 661 471 704 q 669 538 622 618 q 717 343 717 457 q 669 149 717 229 q 547 26 622 68 q 385 -17 471 -17 m 385 138 q 460 163 429 138 q 506 234 490 188 q 522 343 522 281 q 506 452 522 406 q 460 524 490 499 q 385 550 429 550 q 308 524 339 550 q 263 452 278 499 q 247 343 247 406 q 263 234 247 281 q 308 163 278 188 q 385 138 339 138 m 385 -308 q 308 -280 339 -308 q 278 -207 278 -251 q 308 -134 278 -162 q 385 -106 339 -106 q 462 -134 432 -106 q 492 -207 492 -162 q 462 -280 492 -251 q 385 -308 432 -308 z "},"ò":{"ha":768,"x_min":53,"x_max":717,"o":"m 385 -17 q 222 26 297 -17 q 99 149 146 68 q 53 343 53 229 q 99 538 53 457 q 222 661 146 618 q 385 704 297 704 q 547 661 471 704 q 669 538 622 618 q 717 343 717 457 q 669 149 717 229 q 547 26 622 68 q 385 -17 471 -17 m 385 138 q 460 163 429 138 q 506 234 490 188 q 522 343 522 281 q 506 452 522 406 q 460 524 490 499 q 385 550 429 550 q 308 524 339 550 q 263 452 278 499 q 247 343 247 406 q 263 234 247 281 q 308 163 278 188 q 385 138 339 138 m 376 796 l 131 1013 l 260 1138 l 469 889 l 376 796 z "},"ō":{"ha":768,"x_min":53,"x_max":717,"o":"m 385 -17 q 222 26 297 -17 q 99 149 146 68 q 53 343 53 229 q 99 538 53 457 q 222 661 146 618 q 385 704 297 704 q 547 661 471 704 q 669 538 622 618 q 717 343 717 457 q 669 149 717 229 q 547 26 622 68 q 385 -17 471 -17 m 385 138 q 460 163 429 138 q 506 234 490 188 q 522 343 522 281 q 506 452 522 406 q 460 524 490 499 q 385 550 429 550 q 308 524 339 550 q 263 452 278 499 q 247 343 247 406 q 263 234 247 281 q 308 163 278 188 q 385 138 339 138 m 183 824 l 183 946 l 588 946 l 588 824 l 183 824 z "},"ɔ":{"ha":647,"x_min":32,"x_max":594,"o":"m 258 -17 q 142 3 201 -17 q 32 67 82 22 l 107 190 q 168 153 135 168 q 238 138 201 138 q 321 163 283 138 q 379 234 358 188 q 400 343 400 281 q 380 453 400 406 q 324 525 360 500 q 244 550 289 550 q 183 540 208 550 q 131 507 157 529 l 40 629 q 137 683 81 661 q 267 704 193 704 q 429 662 354 704 q 549 539 504 619 q 594 343 594 458 q 549 149 594 229 q 428 26 504 68 q 258 -17 351 -17 z "},"ø":{"ha":768,"x_min":53,"x_max":717,"o":"m 136 -35 l 64 22 l 632 724 l 704 667 l 136 -35 m 385 -17 q 222 26 297 -17 q 99 149 146 68 q 53 343 53 229 q 99 538 53 457 q 222 661 146 618 q 385 704 297 704 q 547 661 471 704 q 669 538 622 618 q 717 343 717 457 q 669 149 717 229 q 547 26 622 68 q 385 -17 471 -17 m 385 131 q 463 156 429 131 q 514 227 496 182 q 532 333 532 272 q 515 457 532 407 q 464 532 497 507 q 385 557 431 557 q 306 531 339 557 q 254 460 272 506 q 236 354 236 414 q 254 230 236 279 q 306 156 272 181 q 385 131 339 131 z "},"õ":{"ha":768,"x_min":53,"x_max":717,"o":"m 385 -17 q 222 26 297 -17 q 99 149 146 68 q 53 343 53 229 q 99 538 53 457 q 222 661 146 618 q 385 704 297 704 q 547 661 471 704 q 669 538 622 618 q 717 343 717 457 q 669 149 717 229 q 547 26 622 68 q 385 -17 471 -17 m 385 138 q 460 163 429 138 q 506 234 490 188 q 522 343 522 281 q 506 452 522 406 q 460 524 490 499 q 385 550 429 550 q 308 524 339 550 q 263 452 278 499 q 247 343 247 406 q 263 234 247 281 q 308 163 278 188 q 385 138 339 138 m 478 797 q 419 811 446 797 q 371 844 392 825 q 332 876 350 863 q 296 890 314 890 q 261 871 274 890 q 244 808 249 851 l 125 815 q 147 931 126 885 q 203 999 167 976 q 292 1022 239 1022 q 352 1008 326 1022 q 399 976 378 994 q 439 943 421 957 q 475 929 457 929 q 510 949 497 929 q 525 1011 522 969 l 644 1004 q 624 890 643 936 q 567 821 604 844 q 478 797 531 797 z "},"œ":{"ha":1146,"x_min":53,"x_max":1096,"o":"m 371 -17 q 211 26 283 -17 q 96 149 139 68 q 53 343 53 229 q 97 538 53 457 q 215 661 142 618 q 375 704 288 704 q 506 669 449 704 q 601 575 563 635 q 701 670 643 636 q 822 704 758 704 q 974 660 913 704 q 1065 541 1035 617 q 1096 371 1096 465 q 1093 324 1096 346 q 1088 289 1090 301 l 682 289 q 713 203 689 238 q 774 151 738 168 q 854 133 811 133 q 931 147 896 133 q 1004 183 967 161 l 1069 60 q 955 4 1018 25 q 829 -17 892 -17 q 705 17 764 -17 q 603 113 646 51 q 505 16 561 49 q 371 -17 449 -17 m 375 138 q 444 163 415 138 q 490 234 474 188 q 507 343 507 281 q 490 452 507 406 q 444 524 474 499 q 375 550 415 550 q 306 524 335 550 q 260 452 276 499 q 244 343 244 406 q 260 234 244 281 q 306 163 276 188 q 375 138 335 138 m 682 407 l 933 407 q 905 517 933 475 q 817 558 876 558 q 753 541 782 558 q 706 490 725 524 q 682 407 688 457 z "},"p":{"ha":792,"x_min":94,"x_max":736,"o":"m 94 -260 l 94 688 l 249 688 l 263 618 l 268 618 q 361 679 310 654 q 467 704 413 704 q 611 660 551 704 q 703 538 671 617 q 736 354 736 460 q 694 153 736 236 q 587 27 653 71 q 446 -17 521 -17 q 358 3 401 -17 q 278 57 315 22 l 283 -54 l 283 -260 l 94 -260 m 403 139 q 473 162 442 139 q 523 232 504 185 q 542 353 542 279 q 528 460 542 417 q 485 526 514 503 q 413 549 457 549 q 349 533 379 549 q 283 482 318 517 l 283 188 q 345 150 314 161 q 403 139 376 139 z "},"þ":{"ha":792,"x_min":94,"x_max":736,"o":"m 94 -260 l 94 976 l 283 976 l 283 732 l 279 632 q 363 684 317 664 q 457 704 408 704 q 606 660 543 704 q 703 538 669 617 q 736 354 736 460 q 694 153 736 236 q 587 27 653 71 q 446 -17 521 -17 q 356 1 396 -17 q 279 50 317 18 l 283 -54 l 283 -260 l 94 -260 m 403 139 q 473 162 442 139 q 523 232 504 185 q 542 353 542 279 q 528 460 542 417 q 485 526 514 503 q 413 549 457 549 q 349 533 379 549 q 283 482 318 517 l 283 188 q 345 150 314 161 q 403 139 376 139 z "},"q":{"ha":792,"x_min":57,"x_max":699,"o":"m 508 -260 l 508 -46 l 515 63 q 433 6 481 29 q 338 -17 386 -17 q 133 79 210 -17 q 57 343 57 175 q 98 536 57 456 q 204 660 139 617 q 343 704 269 704 q 444 683 400 704 q 529 619 488 663 l 533 619 l 550 688 l 699 688 l 699 -260 l 508 -260 m 386 139 q 451 154 422 139 q 508 206 481 169 l 508 500 q 448 538 479 528 q 386 549 417 549 q 319 526 350 549 q 270 458 289 503 q 251 346 251 413 q 287 190 251 242 q 386 139 322 139 z "},"r":{"ha":542,"x_min":94,"x_max":543,"o":"m 94 0 l 94 688 l 249 688 l 263 567 l 268 567 q 358 669 306 635 q 463 704 410 704 q 510 701 490 704 q 543 690 529 697 l 511 526 q 477 534 493 531 q 439 538 461 538 q 356 508 399 538 q 283 406 313 479 l 283 0 l 94 0 z "},"s":{"ha":610,"x_min":31,"x_max":571,"o":"m 293 -17 q 153 10 225 -17 q 31 79 82 38 l 117 199 q 208 144 164 164 q 299 125 253 125 q 370 143 347 125 q 393 192 393 161 q 372 233 393 215 q 319 263 351 250 q 251 290 286 276 q 165 332 208 307 q 94 396 122 357 q 65 492 65 435 q 136 645 65 586 q 324 704 207 704 q 460 678 401 704 q 561 618 518 651 l 476 504 q 403 547 439 531 q 329 563 367 563 q 265 546 286 563 q 243 501 243 529 q 263 463 243 478 q 314 435 282 447 q 382 410 346 422 q 469 369 426 393 q 542 305 513 344 q 571 203 571 265 q 539 92 571 142 q 445 13 507 42 q 293 -17 383 -17 z "},"ś":{"ha":610,"x_min":31,"x_max":588,"o":"m 293 -17 q 153 10 225 -17 q 31 79 82 38 l 117 199 q 208 144 164 164 q 299 125 253 125 q 370 143 347 125 q 393 192 393 161 q 372 233 393 215 q 319 263 351 250 q 251 290 286 276 q 165 332 208 307 q 94 396 122 357 q 65 492 65 435 q 136 645 65 586 q 324 704 207 704 q 460 678 401 704 q 561 618 518 651 l 476 504 q 403 547 439 531 q 329 563 367 563 q 265 546 286 563 q 243 501 243 529 q 263 463 243 478 q 314 435 282 447 q 382 410 346 422 q 469 369 426 393 q 542 305 513 344 q 571 203 571 265 q 539 92 571 142 q 445 13 507 42 q 293 -17 383 -17 m 342 796 l 247 889 l 458 1138 l 588 1013 l 342 796 z "},"š":{"ha":610,"x_min":31,"x_max":581,"o":"m 293 -17 q 153 10 225 -17 q 31 79 82 38 l 117 199 q 208 144 164 164 q 299 125 253 125 q 370 143 347 125 q 393 192 393 161 q 372 233 393 215 q 319 263 351 250 q 251 290 286 276 q 165 332 208 307 q 94 396 122 357 q 65 492 65 435 q 136 645 65 586 q 324 704 207 704 q 460 678 401 704 q 561 618 518 651 l 476 504 q 403 547 439 531 q 329 563 367 563 q 265 546 286 563 q 243 501 243 529 q 263 463 243 478 q 314 435 282 447 q 382 410 346 422 q 469 369 426 393 q 542 305 513 344 q 571 203 571 265 q 539 92 571 142 q 445 13 507 42 q 293 -17 383 -17 m 236 801 l 85 985 l 157 1053 l 329 921 l 335 921 l 507 1053 l 581 985 l 429 801 l 236 801 z "},"ṣ":{"ha":610,"x_min":31,"x_max":571,"o":"m 293 -17 q 153 10 225 -17 q 31 79 82 38 l 117 199 q 208 144 164 164 q 299 125 253 125 q 370 143 347 125 q 393 192 393 161 q 372 233 393 215 q 319 263 351 250 q 251 290 286 276 q 165 332 208 307 q 94 396 122 357 q 65 492 65 435 q 136 645 65 586 q 324 704 207 704 q 460 678 401 704 q 561 618 518 651 l 476 504 q 403 547 439 531 q 329 563 367 563 q 265 546 286 563 q 243 501 243 529 q 263 463 243 478 q 314 435 282 447 q 382 410 346 422 q 469 369 426 393 q 542 305 513 344 q 571 203 571 265 q 539 92 571 142 q 445 13 507 42 q 293 -17 383 -17 m 315 -308 q 239 -280 269 -308 q 208 -207 208 -251 q 239 -134 208 -162 q 315 -106 269 -106 q 392 -134 363 -106 q 422 -207 422 -162 q 392 -280 422 -251 q 315 -308 363 -308 z "},"ß":{"ha":865,"x_min":94,"x_max":828,"o":"m 578 -17 q 468 0 517 -17 q 371 47 419 17 l 438 176 q 505 138 472 150 q 571 125 538 125 q 633 147 611 125 q 654 199 654 168 q 636 248 654 228 q 590 284 618 268 q 530 317 561 300 q 469 357 499 335 q 423 411 440 379 q 406 489 406 443 q 421 560 406 531 q 456 617 436 590 q 492 673 476 643 q 507 742 507 703 q 483 813 507 785 q 414 840 460 840 q 315 792 349 840 q 282 660 282 744 l 282 0 l 94 0 l 94 683 q 129 841 94 772 q 235 950 164 910 q 415 990 307 990 q 567 958 506 990 q 658 874 628 926 q 689 764 689 822 q 672 678 689 714 q 634 616 656 643 q 596 565 613 589 q 579 513 579 542 q 597 471 579 489 q 643 438 614 453 q 703 404 672 422 q 763 360 735 386 q 810 299 792 335 q 828 208 828 263 q 799 95 828 146 q 715 14 771 44 q 578 -17 658 -17 z "},"ə":{"ha":714,"x_min":51,"x_max":663,"o":"m 344 -17 q 183 26 249 -17 q 84 144 117 69 q 51 315 51 219 q 54 366 51 342 q 58 403 57 390 l 478 403 q 449 489 471 454 q 393 541 428 524 q 313 558 358 558 q 233 546 272 558 q 158 511 194 533 l 94 635 q 215 688 150 671 q 344 704 279 704 q 506 660 435 704 q 620 536 578 617 q 663 344 663 456 q 619 151 663 232 q 502 27 575 71 q 344 -17 429 -17 m 340 129 q 433 165 394 129 q 481 276 471 201 l 214 276 q 244 169 214 210 q 340 129 275 129 z "},"t":{"ha":522,"x_min":25,"x_max":500,"o":"m 351 -17 q 174 56 226 -17 q 121 244 121 128 l 121 538 l 25 538 l 25 679 l 131 688 l 153 871 l 310 871 l 310 688 l 478 688 l 478 538 l 310 538 l 310 246 q 334 160 310 188 q 401 133 358 133 q 438 138 419 133 q 469 147 456 142 l 500 8 q 435 -8 472 0 q 351 -17 397 -17 z "},"ṭ":{"ha":522,"x_min":25,"x_max":500,"o":"m 351 -17 q 174 56 226 -17 q 121 244 121 128 l 121 538 l 25 538 l 25 679 l 131 688 l 153 871 l 310 871 l 310 688 l 478 688 l 478 538 l 310 538 l 310 246 q 334 160 310 188 q 401 133 358 133 q 438 138 419 133 q 469 147 456 142 l 500 8 q 435 -8 472 0 q 351 -17 397 -17 m 307 -308 q 231 -280 261 -308 q 200 -207 200 -251 q 231 -134 200 -162 q 307 -106 261 -106 q 384 -134 354 -106 q 414 -207 414 -162 q 384 -280 414 -251 q 307 -308 354 -308 z "},"ʧ":{"ha":822,"x_min":25,"x_max":969,"o":"m 568 -276 q 500 -271 528 -276 q 450 -258 472 -265 l 485 -118 q 512 -125 499 -122 q 540 -128 525 -128 q 599 -99 582 -128 q 615 -12 615 -71 l 615 725 q 638 860 615 799 q 715 957 661 921 q 865 993 769 993 q 926 988 901 993 q 969 975 950 982 l 935 835 q 915 842 925 839 q 893 844 904 844 q 824 817 843 844 q 804 729 804 789 l 804 -8 q 783 -143 804 -82 q 710 -240 761 -204 q 568 -276 658 -276 m 351 -17 q 174 56 226 -17 q 121 244 121 128 l 121 538 l 25 538 l 25 679 l 131 688 l 153 871 l 310 871 l 310 688 l 478 688 l 478 538 l 310 538 l 310 246 q 334 160 310 188 q 401 133 358 133 q 438 138 419 133 q 469 147 456 142 l 500 8 q 435 -8 472 0 q 351 -17 397 -17 z "},"ṯ":{"ha":522,"x_min":25,"x_max":510,"o":"m 351 -17 q 174 56 226 -17 q 121 244 121 128 l 121 538 l 25 538 l 25 679 l 131 688 l 153 871 l 310 871 l 310 688 l 478 688 l 478 538 l 310 538 l 310 246 q 334 160 310 188 q 401 133 358 133 q 438 138 419 133 q 469 147 456 142 l 500 8 q 435 -8 472 0 q 351 -17 397 -17 m 106 -258 l 106 -136 l 510 -136 l 510 -258 l 106 -258 z "},"u":{"ha":785,"x_min":88,"x_max":690,"o":"m 300 -17 q 138 57 189 -17 q 88 260 88 131 l 88 688 l 276 688 l 276 283 q 299 176 276 206 q 369 146 322 146 q 439 165 410 146 q 501 228 468 183 l 501 688 l 690 688 l 690 0 l 536 0 l 522 97 l 517 97 q 422 15 474 46 q 300 -17 369 -17 z "},"ú":{"ha":785,"x_min":88,"x_max":690,"o":"m 300 -17 q 138 57 189 -17 q 88 260 88 131 l 88 688 l 276 688 l 276 283 q 299 176 276 206 q 369 146 322 146 q 439 165 410 146 q 501 228 468 183 l 501 688 l 690 688 l 690 0 l 536 0 l 522 97 l 517 97 q 422 15 474 46 q 300 -17 369 -17 m 414 796 l 319 889 l 531 1138 l 660 1013 l 414 796 z "},"û":{"ha":785,"x_min":88,"x_max":690,"o":"m 300 -17 q 138 57 189 -17 q 88 260 88 131 l 88 688 l 276 688 l 276 283 q 299 176 276 206 q 369 146 322 146 q 439 165 410 146 q 501 228 468 183 l 501 688 l 690 688 l 690 0 l 536 0 l 522 97 l 517 97 q 422 15 474 46 q 300 -17 369 -17 m 229 781 l 157 849 l 308 1033 l 501 1033 l 653 849 l 579 781 l 407 914 l 401 914 l 229 781 z "},"ü":{"ha":785,"x_min":88,"x_max":690,"o":"m 300 -17 q 138 57 189 -17 q 88 260 88 131 l 88 688 l 276 688 l 276 283 q 299 176 276 206 q 369 146 322 146 q 439 165 410 146 q 501 228 468 183 l 501 688 l 690 688 l 690 0 l 536 0 l 522 97 l 517 97 q 422 15 474 46 q 300 -17 369 -17 m 553 794 q 485 822 513 794 q 458 889 458 849 q 485 956 458 929 q 553 983 513 983 q 621 956 594 983 q 647 889 647 929 q 621 822 647 849 q 553 794 594 794 m 256 794 q 188 822 215 794 q 161 889 161 849 q 188 956 161 929 q 256 983 215 983 q 324 956 297 983 q 350 889 350 929 q 324 822 350 849 q 256 794 297 794 z "},"ù":{"ha":785,"x_min":88,"x_max":690,"o":"m 300 -17 q 138 57 189 -17 q 88 260 88 131 l 88 688 l 276 688 l 276 283 q 299 176 276 206 q 369 146 322 146 q 439 165 410 146 q 501 228 468 183 l 501 688 l 690 688 l 690 0 l 536 0 l 522 97 l 517 97 q 422 15 474 46 q 300 -17 369 -17 m 396 796 l 150 1013 l 279 1138 l 489 889 l 396 796 z "},"ū":{"ha":785,"x_min":88,"x_max":690,"o":"m 300 -17 q 138 57 189 -17 q 88 260 88 131 l 88 688 l 276 688 l 276 283 q 299 176 276 206 q 369 146 322 146 q 439 165 410 146 q 501 228 468 183 l 501 688 l 690 688 l 690 0 l 536 0 l 522 97 l 517 97 q 422 15 474 46 q 300 -17 369 -17 m 203 824 l 203 946 l 607 946 l 607 824 l 203 824 z "},"v":{"ha":714,"x_min":17,"x_max":697,"o":"m 251 0 l 17 688 l 208 688 l 304 353 q 331 249 317 301 q 358 143 344 196 l 364 143 q 392 249 378 196 q 419 353 406 301 l 515 688 l 697 688 l 469 0 l 251 0 z "},"ṿ":{"ha":714,"x_min":17,"x_max":697,"o":"m 251 0 l 17 688 l 208 688 l 304 353 q 331 249 317 301 q 358 143 344 196 l 364 143 q 392 249 378 196 q 419 353 406 301 l 515 688 l 697 688 l 469 0 l 251 0 m 360 -308 q 283 -280 314 -308 q 253 -207 253 -251 q 283 -134 253 -162 q 360 -106 314 -106 q 437 -134 407 -106 q 467 -207 467 -162 q 437 -280 467 -251 q 360 -308 407 -308 z "},"w":{"ha":1065,"x_min":33,"x_max":1032,"o":"m 208 0 l 33 688 l 222 688 l 294 357 q 310 256 303 307 q 326 154 318 206 l 332 154 q 351 256 342 206 q 374 357 361 307 l 454 688 l 621 688 l 703 357 q 726 256 715 307 q 746 154 736 206 l 751 154 q 768 256 761 206 q 785 357 775 307 l 856 688 l 1032 688 l 864 0 l 642 0 l 572 290 q 553 388 563 339 q 535 490 544 436 l 529 490 q 511 387 519 436 q 492 289 503 338 l 426 0 l 208 0 z "},"x":{"ha":699,"x_min":19,"x_max":679,"o":"m 19 0 l 233 358 l 33 688 l 236 688 l 303 569 q 332 512 317 542 q 363 453 347 482 l 368 453 q 392 512 379 482 q 417 569 406 542 l 469 688 l 667 688 l 467 336 l 679 0 l 476 0 l 403 121 q 371 182 388 151 q 338 242 354 213 l 332 242 q 303 182 318 213 q 276 121 289 151 l 217 0 l 19 0 z "},"y":{"ha":713,"x_min":17,"x_max":696,"o":"m 161 -272 q 108 -268 131 -272 q 65 -258 86 -264 l 100 -114 q 123 -119 110 -115 q 147 -122 136 -122 q 228 -94 199 -122 q 272 -24 258 -67 l 283 15 l 17 688 l 208 688 l 313 378 q 342 283 328 332 q 369 183 356 235 l 375 183 q 399 281 388 232 q 424 378 411 331 l 514 688 l 696 688 l 454 -15 q 385 -155 422 -97 q 293 -242 347 -212 q 161 -272 239 -272 z "},"ý":{"ha":713,"x_min":17,"x_max":696,"o":"m 161 -272 q 108 -268 131 -272 q 65 -258 86 -264 l 100 -114 q 123 -119 110 -115 q 147 -122 136 -122 q 228 -94 199 -122 q 272 -24 258 -67 l 283 15 l 17 688 l 208 688 l 313 378 q 342 283 328 332 q 369 183 356 235 l 375 183 q 399 281 388 232 q 424 378 411 331 l 514 688 l 696 688 l 454 -15 q 385 -155 422 -97 q 293 -242 347 -212 q 161 -272 239 -272 m 379 796 l 285 889 l 496 1138 l 625 1013 l 379 796 z "},"ÿ":{"ha":713,"x_min":17,"x_max":696,"o":"m 161 -272 q 108 -268 131 -272 q 65 -258 86 -264 l 100 -114 q 123 -119 110 -115 q 147 -122 136 -122 q 228 -94 199 -122 q 272 -24 258 -67 l 283 15 l 17 688 l 208 688 l 313 378 q 342 283 328 332 q 369 183 356 235 l 375 183 q 399 281 388 232 q 424 378 411 331 l 514 688 l 696 688 l 454 -15 q 385 -155 422 -97 q 293 -242 347 -212 q 161 -272 239 -272 m 518 794 q 451 822 478 794 q 424 889 424 849 q 451 956 424 929 q 518 983 478 983 q 586 956 560 983 q 613 889 613 929 q 586 822 613 849 q 518 794 560 794 m 221 794 q 153 822 181 794 q 126 889 126 849 q 153 956 126 929 q 221 983 181 983 q 289 956 263 983 q 315 889 315 929 q 289 822 315 849 q 221 794 263 794 z "},"ʎ":{"ha":713,"x_min":17,"x_max":696,"o":"m 17 0 l 271 735 q 340 876 303 818 q 431 963 378 933 q 564 993 485 993 q 617 990 596 993 q 660 979 639 986 l 625 833 q 603 840 615 836 q 578 843 590 843 q 497 815 526 843 q 453 743 468 788 l 429 672 l 696 0 l 504 0 l 400 310 q 371 405 385 356 q 343 504 357 454 l 338 504 q 314 406 326 456 q 289 310 301 357 l 199 0 l 17 0 z "},"z":{"ha":632,"x_min":51,"x_max":597,"o":"m 51 0 l 51 101 l 351 538 l 85 538 l 85 688 l 588 688 l 588 586 l 288 150 l 597 150 l 597 0 l 51 0 z "},"ž":{"ha":632,"x_min":51,"x_max":597,"o":"m 51 0 l 51 101 l 351 538 l 85 538 l 85 688 l 588 688 l 588 586 l 288 150 l 597 150 l 597 0 l 51 0 m 250 801 l 99 985 l 171 1053 l 343 921 l 349 921 l 521 1053 l 594 985 l 443 801 l 250 801 z "},"ẓ":{"ha":632,"x_min":51,"x_max":597,"o":"m 51 0 l 51 101 l 351 538 l 85 538 l 85 688 l 588 688 l 588 586 l 288 150 l 597 150 l 597 0 l 51 0 m 335 -308 q 258 -280 289 -308 q 228 -207 228 -251 q 258 -134 228 -162 q 335 -106 289 -106 q 412 -134 382 -106 q 442 -207 442 -162 q 412 -280 442 -251 q 335 -308 382 -308 z "},"ẕ":{"ha":632,"x_min":51,"x_max":597,"o":"m 51 0 l 51 101 l 351 538 l 85 538 l 85 688 l 588 688 l 588 586 l 288 150 l 597 150 l 597 0 l 51 0 m 133 -258 l 133 -136 l 538 -136 l 538 -258 l 133 -258 z "},"ﬁ":{"ha":840,"x_min":35,"x_max":758,"o":"m 126 0 l 126 735 q 151 865 126 807 q 228 958 175 924 q 371 993 282 993 q 447 985 413 993 q 504 968 482 978 l 469 828 q 433 840 451 836 q 397 843 415 843 q 338 819 358 843 q 317 739 317 794 l 317 0 l 126 0 m 35 538 l 35 679 l 138 688 l 443 688 l 443 538 l 35 538 m 557 0 l 557 688 l 746 688 l 746 0 l 557 0 m 651 794 q 575 823 606 794 q 544 896 544 851 q 575 969 544 940 q 651 997 606 997 q 728 969 699 997 q 758 896 758 940 q 728 823 758 851 q 651 794 699 794 z "},"ﬂ":{"ha":853,"x_min":35,"x_max":831,"o":"m 126 0 l 126 735 q 151 865 126 807 q 228 958 175 924 q 371 993 282 993 q 447 985 413 993 q 504 968 482 978 l 469 828 q 433 840 451 836 q 397 843 415 843 q 338 819 358 843 q 317 739 317 794 l 317 0 l 126 0 m 35 538 l 35 679 l 138 688 l 443 688 l 443 538 l 35 538 m 733 -17 q 629 10 668 -17 q 574 86 590 38 q 557 201 557 135 l 557 976 l 746 976 l 746 193 q 758 150 746 163 q 782 138 769 138 q 794 138 789 138 q 807 140 799 139 l 831 0 q 790 -12 814 -7 q 733 -17 767 -17 z "},"ª":{"ha":496,"x_min":43,"x_max":439,"o":"m 182 515 q 81 556 118 515 q 43 653 43 596 q 105 766 43 726 q 304 818 167 806 q 286 868 303 850 q 233 886 269 886 q 172 874 204 886 q 106 843 139 863 l 58 932 q 152 976 101 958 q 257 993 203 993 q 392 942 344 993 q 439 790 439 892 l 439 526 l 332 526 l 319 574 l 314 574 q 255 532 288 549 q 182 515 222 515 m 226 618 q 267 628 249 618 q 304 657 285 638 l 304 740 q 201 711 229 732 q 172 664 172 690 q 187 630 172 642 q 226 618 201 618 z "},"º":{"ha":517,"x_min":35,"x_max":481,"o":"m 258 515 q 148 543 199 515 q 66 624 97 571 q 35 753 35 678 q 66 881 35 828 q 148 964 97 935 q 258 993 199 993 q 367 964 317 993 q 449 881 418 935 q 481 753 481 828 q 449 624 481 678 q 367 543 418 571 q 258 515 317 515 m 258 622 q 322 658 301 622 q 343 753 343 694 q 322 849 343 813 q 258 886 301 886 q 193 849 214 886 q 172 753 172 813 q 193 658 172 694 q 258 622 214 622 z "},"θ":{"ha":757,"x_min":69,"x_max":688,"o":"m 172 429 l 172 556 l 586 556 l 586 429 l 172 429 m 379 -17 q 154 109 239 -17 q 69 492 69 235 q 108 772 69 660 q 217 938 147 883 q 379 993 286 993 q 541 938 472 993 q 649 771 610 882 q 688 492 688 660 q 603 109 688 235 q 379 -17 518 -17 m 379 138 q 442 167 414 138 q 488 274 471 197 q 504 492 504 351 q 494 663 504 596 q 468 769 485 731 q 428 824 451 808 q 379 839 404 839 q 330 824 353 839 q 290 769 307 808 q 263 663 272 731 q 254 492 254 596 q 270 274 254 351 q 315 167 286 197 q 379 138 343 138 z "},"π":{"ha":871,"x_min":26,"x_max":839,"o":"m 717 -17 q 600 11 643 -17 q 539 90 557 39 q 521 208 521 140 q 522 261 521 225 q 524 344 522 297 q 526 442 525 392 q 526 538 526 492 l 354 538 q 343 268 354 411 q 318 -11 332 125 l 128 0 q 165 280 153 140 q 176 538 176 419 l 26 538 l 26 679 l 128 688 l 839 688 l 839 538 l 708 538 q 703 438 706 490 q 701 335 701 385 q 699 250 700 286 q 699 200 699 214 q 715 151 699 165 q 761 138 731 138 q 784 140 771 138 q 813 143 797 142 l 836 3 q 785 -10 817 -4 q 717 -17 754 -17 z "},"χ":{"ha":721,"x_min":13,"x_max":739,"o":"m 207 -262 l 13 -246 l 275 229 l 13 663 l 200 704 l 367 396 l 372 396 l 503 688 l 700 688 l 463 233 l 739 -221 l 551 -262 l 372 78 l 367 78 l 207 -262 z "},"א":{"ha":857,"x_min":29,"x_max":818,"o":"m 818 0 l 604 0 l 343 404 l 219 0 l 29 0 l 183 476 l 226 583 l 97 793 l 299 793 l 410 613 l 510 461 l 547 588 l 603 793 l 793 793 l 626 288 l 818 0 z "},"ב":{"ha":754,"x_min":53,"x_max":713,"o":"m 419 0 l 419 542 q 395 619 419 596 q 325 643 371 643 l 53 643 l 53 793 l 381 793 q 504 767 450 793 q 589 683 558 740 q 619 532 619 626 l 619 0 l 419 0 m 53 0 l 53 150 l 713 150 l 713 0 l 53 0 z "},"ג":{"ha":589,"x_min":24,"x_max":532,"o":"m 342 0 l 288 315 l 288 553 q 272 625 288 604 q 221 650 257 646 l 133 663 l 158 810 l 322 788 q 447 725 407 778 q 488 575 488 672 l 488 311 l 532 0 l 342 0 m 97 -25 l 24 132 q 192 215 126 165 q 292 335 258 265 l 358 231 q 299 120 332 169 q 217 35 265 71 q 97 -25 168 -1 z "},"ד":{"ha":753,"x_min":49,"x_max":700,"o":"m 365 0 l 365 481 q 376 576 365 535 q 404 643 386 618 l 49 643 l 49 793 l 700 793 l 700 643 l 592 643 q 571 563 576 608 q 565 481 565 518 l 565 0 l 365 0 z "},"ה":{"ha":796,"x_min":67,"x_max":732,"o":"m 531 0 l 531 542 q 506 619 531 596 q 438 643 482 643 l 75 643 l 75 793 l 492 793 q 615 767 561 793 q 701 683 669 740 q 732 532 732 626 l 732 0 l 531 0 m 67 0 l 67 379 l 94 472 l 268 472 l 268 379 l 268 0 l 67 0 z "},"ו":{"ha":360,"x_min":68,"x_max":285,"o":"m 85 0 l 85 631 l 68 793 l 268 793 l 285 631 l 285 0 l 85 0 z "},"ז":{"ha":521,"x_min":54,"x_max":467,"o":"m 140 0 l 140 481 q 151 576 140 535 q 179 643 161 618 l 54 643 l 54 793 l 467 793 l 467 643 l 363 643 q 343 563 346 608 q 340 481 340 518 l 340 0 l 140 0 z "},"ח":{"ha":826,"x_min":75,"x_max":756,"o":"m 554 0 l 554 535 q 461 643 554 643 l 75 643 l 75 793 l 515 793 q 640 765 586 793 q 725 678 694 738 q 756 525 756 619 l 756 0 l 554 0 m 75 0 l 75 703 l 275 703 l 275 0 l 75 0 z "},"ט":{"ha":821,"x_min":56,"x_max":789,"o":"m 149 -14 l 56 793 l 257 793 l 325 164 q 451 194 400 171 q 533 253 503 217 q 577 340 564 290 q 589 453 590 390 l 589 496 q 575 568 589 535 q 531 624 561 601 q 453 650 500 647 l 385 654 l 400 808 l 485 804 q 633 768 567 800 q 740 674 699 736 q 783 517 781 613 l 785 478 q 747 260 789 351 q 620 111 704 169 q 417 23 536 53 q 149 -14 297 -7 z "},"י":{"ha":360,"x_min":68,"x_max":285,"o":"m 85 292 l 85 414 l 85 631 l 68 793 l 268 793 l 285 631 l 285 414 l 283 326 l 85 292 z "},"ך":{"ha":711,"x_min":54,"x_max":636,"o":"m 436 -278 l 436 542 q 412 619 436 596 q 342 643 388 643 l 54 643 l 54 793 l 397 793 q 521 767 467 793 q 606 683 575 740 q 636 532 636 626 l 636 -278 l 436 -278 z "},"כ":{"ha":674,"x_min":40,"x_max":621,"o":"m 40 0 l 40 150 l 263 150 q 353 175 318 150 q 404 244 389 200 q 419 344 419 289 l 419 449 q 404 548 419 504 q 353 617 389 592 q 263 643 318 643 l 40 643 l 40 793 l 317 793 q 485 749 418 793 q 587 624 553 704 q 621 438 621 544 l 621 356 q 587 167 621 247 q 485 44 553 88 q 317 0 418 0 l 40 0 z "},"ל":{"ha":692,"x_min":43,"x_max":647,"o":"m 197 0 l 446 643 l 43 643 l 43 793 l 647 793 l 647 628 l 397 0 l 197 0 m 43 643 l 43 996 l 224 996 l 224 643 l 43 643 z "},"ם":{"ha":822,"x_min":74,"x_max":753,"o":"m 551 0 l 551 542 q 527 619 551 596 q 458 643 503 643 l 200 643 l 200 793 l 513 793 q 636 767 582 793 q 722 683 690 740 q 753 532 753 626 l 753 129 l 753 0 l 551 0 m 115 0 l 115 150 l 681 150 l 676 0 l 115 0 m 74 0 l 74 671 l 74 793 l 274 793 l 274 660 l 274 0 l 74 0 z "},"מ":{"ha":892,"x_min":49,"x_max":839,"o":"m 368 -1 l 386 149 q 546 151 489 126 q 626 240 603 175 q 647 403 649 306 q 629 544 647 490 q 577 624 611 599 q 492 649 543 649 q 424 633 454 649 q 374 588 393 617 q 349 518 354 560 l 303 604 q 394 758 331 710 q 533 806 457 806 q 663 781 607 806 q 758 707 719 757 q 817 581 797 657 q 838 403 838 504 q 784 147 839 250 q 624 4 729 44 q 368 -1 518 -36 m 64 0 l 160 535 l 49 793 l 257 793 l 350 525 l 264 0 l 64 0 z "},"ן":{"ha":360,"x_min":68,"x_max":285,"o":"m 85 -278 l 85 631 l 68 793 l 268 793 l 285 631 l 285 -278 l 85 -278 z "},"נ":{"ha":529,"x_min":54,"x_max":457,"o":"m 54 0 l 54 150 l 257 150 l 257 551 q 237 625 257 606 q 181 649 217 644 l 83 663 l 108 810 l 282 788 q 413 715 368 776 q 457 557 457 653 l 457 0 l 54 0 z "},"ס":{"ha":840,"x_min":56,"x_max":778,"o":"m 151 -14 l 75 643 l 265 732 l 326 164 q 430 183 386 169 q 503 220 474 196 q 549 278 532 244 q 572 358 565 313 q 575 463 578 404 l 575 504 q 562 578 575 547 q 524 626 549 608 q 467 643 500 643 l 75 643 l 56 793 l 482 793 q 694 715 619 793 q 772 504 768 638 l 774 458 q 735 241 778 329 q 610 99 693 153 q 411 17 528 44 q 151 -14 294 -10 z "},"ע":{"ha":800,"x_min":11,"x_max":742,"o":"m 39 -53 l 11 103 l 333 164 q 442 206 401 176 q 505 285 483 236 q 534 406 526 335 q 542 574 542 478 q 543 793 543 669 l 742 793 q 737 545 742 657 q 713 344 732 433 q 651 187 694 254 q 532 74 608 119 q 336 4 456 28 l 39 -53 m 236 125 l 72 793 l 272 793 l 428 125 l 236 125 z "},"ף":{"ha":783,"x_min":50,"x_max":708,"o":"m 418 793 q 580 749 515 793 q 676 625 644 704 q 708 439 708 546 l 708 -278 l 508 -278 l 508 449 q 494 548 508 504 q 449 617 481 592 q 364 643 417 643 l 258 643 l 242 550 q 240 486 238 517 q 257 435 242 456 q 306 411 272 414 l 269 290 q 147 315 193 292 q 78 374 100 338 q 53 459 56 411 q 61 560 50 507 l 113 793 l 418 793 z "},"פ":{"ha":774,"x_min":57,"x_max":725,"o":"m 74 0 l 74 150 l 354 150 q 426 163 394 150 q 480 202 458 176 q 513 264 501 228 q 525 346 525 300 l 525 449 q 508 548 525 504 q 457 617 492 592 q 369 643 422 643 l 269 643 l 244 525 q 253 447 235 474 q 329 408 271 421 l 297 283 q 142 321 196 286 q 73 413 89 356 q 68 543 57 471 l 124 793 l 417 793 q 583 749 514 793 q 688 625 651 704 q 725 439 725 546 l 725 356 q 702 206 725 272 q 636 93 679 139 q 534 24 593 47 q 401 0 475 0 l 74 0 z "},"ץ":{"ha":740,"x_min":46,"x_max":711,"o":"m 381 -278 l 46 793 l 236 793 l 572 -278 l 381 -278 m 394 64 l 276 213 l 521 793 l 711 793 l 394 64 z "},"צ":{"ha":776,"x_min":42,"x_max":726,"o":"m 504 0 l 57 793 l 258 793 l 706 0 l 504 0 m 42 0 l 42 150 l 597 150 l 654 0 l 42 0 m 517 311 l 403 482 l 529 793 l 726 793 l 517 311 z "},"ק":{"ha":819,"x_min":60,"x_max":769,"o":"m 356 -1 l 340 149 q 419 167 385 153 q 479 210 454 182 q 518 286 504 239 q 536 401 532 333 l 554 643 l 71 643 l 71 793 l 769 793 l 763 664 l 747 454 q 720 278 743 360 q 653 133 697 196 q 535 35 608 71 q 356 -1 463 0 m 60 -278 l 60 388 l 88 483 l 261 483 l 261 389 l 261 -278 l 60 -278 z "},"ר":{"ha":678,"x_min":39,"x_max":604,"o":"m 403 0 l 403 542 q 378 619 403 596 q 310 643 354 643 l 39 643 l 39 793 l 364 793 q 488 767 433 793 q 573 683 542 740 q 604 532 604 626 l 604 0 l 403 0 z "},"ש":{"ha":942,"x_min":56,"x_max":890,"o":"m 160 -14 l 56 793 l 246 793 l 322 151 q 497 190 426 158 q 610 272 568 221 q 671 394 653 324 q 689 550 689 465 l 686 793 l 888 793 l 889 561 q 814 239 890 369 q 576 44 738 108 q 160 -14 415 -19 m 275 303 l 228 428 q 324 476 292 444 q 369 561 357 507 q 379 700 381 615 l 379 792 l 569 792 l 569 704 q 542 527 568 606 q 453 393 517 449 q 275 303 390 338 z "},"ת":{"ha":882,"x_min":25,"x_max":808,"o":"m 42 -24 l 25 113 q 106 134 79 119 q 141 178 132 149 q 149 253 150 207 l 149 793 l 569 793 q 692 767 639 793 q 777 683 746 740 q 808 532 808 626 l 808 0 l 608 0 l 608 542 q 583 619 608 596 q 514 643 558 643 l 350 643 l 350 279 q 317 110 350 172 q 217 17 285 47 q 42 -24 149 -14 z "},"שׁ":{"ha":942,"x_min":56,"x_max":890,"o":"m 160 -14 l 56 793 l 246 793 l 322 151 q 497 190 426 158 q 610 272 568 221 q 671 394 653 324 q 689 550 689 465 l 686 793 l 888 793 l 889 561 q 814 239 890 369 q 576 44 738 108 q 160 -14 415 -19 m 275 303 l 228 428 q 324 476 292 444 q 369 561 357 507 q 379 700 381 615 l 379 792 l 569 792 l 569 704 q 542 527 568 606 q 453 393 517 449 q 275 303 390 338 m 786 960 q 820 944 808 960 q 832 911 832 929 q 820 876 832 892 q 786 861 808 861 q 752 876 765 861 q 739 911 739 892 q 752 944 739 929 q 786 960 765 960 z "},"שׂ":{"ha":942,"x_min":56,"x_max":890,"o":"m 160 -14 l 56 793 l 246 793 l 322 151 q 497 190 426 158 q 610 272 568 221 q 671 394 653 324 q 689 550 689 465 l 686 793 l 888 793 l 889 561 q 814 239 890 369 q 576 44 738 108 q 160 -14 415 -19 m 275 303 l 228 428 q 324 476 292 444 q 369 561 357 507 q 379 700 381 615 l 379 792 l 569 792 l 569 704 q 542 527 568 606 q 453 393 517 449 q 275 303 390 338 m 133 960 q 167 944 156 960 q 179 911 179 929 q 167 876 179 892 q 133 861 156 861 q 99 876 113 861 q 86 911 86 892 q 99 944 86 929 q 133 960 113 960 z "},"שּׁ":{"ha":942,"x_min":56,"x_max":890,"o":"m 160 -14 l 56 793 l 246 793 l 322 151 q 497 190 426 158 q 610 272 568 221 q 671 394 653 324 q 689 550 689 465 l 686 793 l 888 793 l 889 561 q 814 239 890 369 q 576 44 738 108 q 160 -14 415 -19 m 275 303 l 228 428 q 324 476 292 444 q 369 561 357 507 q 379 700 381 615 l 379 792 l 569 792 l 569 704 q 542 527 568 606 q 453 393 517 449 q 275 303 390 338 m 524 399 q 558 383 546 399 q 569 350 569 368 q 558 315 569 329 q 524 300 546 300 q 490 315 503 300 q 476 350 476 329 q 490 383 476 368 q 524 399 503 399 m 786 960 q 820 944 808 960 q 832 911 832 929 q 820 876 832 892 q 786 861 808 861 q 752 876 765 861 q 739 911 739 892 q 752 944 739 929 q 786 960 765 960 z "},"שּׂ":{"ha":942,"x_min":56,"x_max":890,"o":"m 160 -14 l 56 793 l 246 793 l 322 151 q 497 190 426 158 q 610 272 568 221 q 671 394 653 324 q 689 550 689 465 l 686 793 l 888 793 l 889 561 q 814 239 890 369 q 576 44 738 108 q 160 -14 415 -19 m 275 303 l 228 428 q 324 476 292 444 q 369 561 357 507 q 379 700 381 615 l 379 792 l 569 792 l 569 704 q 542 527 568 606 q 453 393 517 449 q 275 303 390 338 m 524 399 q 558 383 546 399 q 569 350 569 368 q 558 315 569 329 q 524 300 546 300 q 490 315 503 300 q 476 350 476 329 q 490 383 476 368 q 524 399 503 399 m 133 960 q 167 944 156 960 q 179 911 179 929 q 167 876 179 892 q 133 861 156 861 q 99 876 113 861 q 86 911 86 892 q 99 944 86 929 q 133 960 113 960 z "},"אַ":{"ha":857,"x_min":29,"x_max":818,"o":"m 818 0 l 604 0 l 343 404 l 219 0 l 29 0 l 183 476 l 226 583 l 97 793 l 299 793 l 410 613 l 510 461 l 547 588 l 603 793 l 793 793 l 626 288 l 818 0 m 556 -76 l 556 -131 l 325 -131 l 325 -76 l 556 -76 z "},"אָ":{"ha":857,"x_min":29,"x_max":818,"o":"m 818 0 l 604 0 l 343 404 l 219 0 l 29 0 l 183 476 l 226 583 l 97 793 l 299 793 l 410 613 l 510 461 l 547 588 l 603 793 l 793 793 l 626 288 l 818 0 m 556 -76 l 556 -131 l 463 -131 l 471 -269 l 410 -269 l 417 -131 l 325 -131 l 325 -76 l 556 -76 z "},"אּ":{"ha":857,"x_min":29,"x_max":818,"o":"m 818 0 l 604 0 l 343 404 l 219 0 l 29 0 l 183 476 l 226 583 l 97 793 l 299 793 l 410 613 l 510 461 l 547 588 l 603 793 l 793 793 l 626 288 l 818 0 m 392 176 q 426 161 414 176 q 438 128 438 146 q 426 92 438 107 q 392 78 414 78 q 358 92 371 78 q 344 128 344 107 q 358 161 344 146 q 392 176 371 176 z "},"בּ":{"ha":754,"x_min":53,"x_max":713,"o":"m 419 0 l 419 542 q 395 619 419 596 q 325 643 371 643 l 53 643 l 53 793 l 381 793 q 504 767 450 793 q 589 683 558 740 q 619 532 619 626 l 619 0 l 419 0 m 53 0 l 53 150 l 713 150 l 713 0 l 53 0 m 231 461 q 265 446 253 461 q 276 413 276 431 q 265 377 276 392 q 231 363 253 363 q 197 377 210 363 q 183 413 183 392 q 197 446 183 431 q 231 461 210 461 z "},"גּ":{"ha":589,"x_min":24,"x_max":532,"o":"m 342 0 l 288 315 l 288 553 q 272 625 288 604 q 221 650 257 646 l 133 663 l 158 810 l 322 788 q 447 725 407 778 q 488 575 488 672 l 488 311 l 532 0 l 342 0 m 97 -25 l 24 132 q 192 215 126 165 q 292 335 258 265 l 358 231 q 299 120 332 169 q 217 35 265 71 q 97 -25 168 -1 m 138 482 q 172 467 160 482 q 183 433 183 451 q 172 398 183 413 q 138 383 160 383 q 103 398 117 383 q 90 433 90 413 q 103 467 90 451 q 138 482 117 482 z "},"דּ":{"ha":753,"x_min":49,"x_max":700,"o":"m 365 0 l 365 481 q 376 576 365 535 q 404 643 386 618 l 49 643 l 49 793 l 700 793 l 700 643 l 592 643 q 571 563 576 608 q 565 481 565 518 l 565 0 l 365 0 m 200 461 q 234 446 222 461 q 246 413 246 431 q 234 377 246 392 q 200 363 222 363 q 166 377 179 363 q 153 413 153 392 q 166 446 153 431 q 200 461 179 461 z "},"הּ":{"ha":796,"x_min":67,"x_max":732,"o":"m 531 0 l 531 542 q 506 619 531 596 q 438 643 482 643 l 75 643 l 75 793 l 492 793 q 615 767 561 793 q 701 683 669 740 q 732 532 732 626 l 732 0 l 531 0 m 67 0 l 67 379 l 94 472 l 268 472 l 268 379 l 268 0 l 67 0 m 394 461 q 428 446 417 461 q 440 413 440 431 q 428 377 440 392 q 394 363 417 363 q 360 377 374 363 q 347 413 347 392 q 360 446 347 431 q 394 461 374 461 z "},"וּ":{"ha":411,"x_min":-7,"x_max":336,"o":"m 136 0 l 136 631 l 119 793 l 319 793 l 336 631 l 336 0 l 136 0 m 40 461 q 74 446 63 461 q 86 413 86 431 q 74 377 86 392 q 40 363 63 363 q 6 377 19 363 q -7 413 -7 392 q 6 446 -7 431 q 40 461 19 461 z "},"זּ":{"ha":569,"x_min":4,"x_max":476,"o":"m 150 0 l 150 481 q 160 576 150 535 q 189 643 171 618 l 64 643 l 64 793 l 476 793 l 476 643 l 372 643 q 353 563 356 608 q 350 481 350 518 l 350 0 l 150 0 m 51 461 q 85 446 74 461 q 97 413 97 431 q 85 377 97 392 q 51 363 74 363 q 17 377 31 363 q 4 413 4 392 q 17 446 4 431 q 51 461 31 461 z "},"טּ":{"ha":821,"x_min":56,"x_max":789,"o":"m 149 -14 l 56 793 l 257 793 l 325 164 q 451 194 400 171 q 533 253 503 217 q 577 340 564 290 q 589 453 590 390 l 589 496 q 575 568 589 535 q 531 624 561 601 q 453 650 500 647 l 385 654 l 400 808 l 485 804 q 633 768 567 800 q 740 674 699 736 q 783 517 781 613 l 785 478 q 747 260 789 351 q 620 111 704 169 q 417 23 536 53 q 149 -14 297 -7 m 433 482 q 467 467 456 482 q 479 433 479 451 q 467 398 479 413 q 433 383 456 383 q 399 398 413 383 q 386 433 386 413 q 399 467 386 451 q 433 482 413 482 z "},"יּ":{"ha":417,"x_min":0,"x_max":342,"o":"m 142 292 l 142 414 l 142 631 l 125 793 l 325 793 l 342 631 l 342 414 l 340 326 l 142 292 m 47 594 q 81 579 69 594 q 93 546 93 564 q 81 510 93 525 q 47 496 69 496 q 13 510 26 496 q 0 546 0 525 q 13 579 0 564 q 47 594 26 594 z "},"ךּ":{"ha":711,"x_min":54,"x_max":636,"o":"m 436 -278 l 436 542 q 412 619 436 596 q 342 643 388 643 l 54 643 l 54 793 l 397 793 q 521 767 467 793 q 606 683 575 740 q 636 532 636 626 l 636 -278 l 436 -278 m 225 461 q 259 446 247 461 q 271 413 271 431 q 259 377 271 392 q 225 363 247 363 q 191 377 204 363 q 178 413 178 392 q 191 446 178 431 q 225 461 204 461 z "},"כּ":{"ha":674,"x_min":40,"x_max":621,"o":"m 40 0 l 40 150 l 263 150 q 353 175 318 150 q 404 244 389 200 q 419 344 419 289 l 419 449 q 404 548 419 504 q 353 617 389 592 q 263 643 318 643 l 40 643 l 40 793 l 317 793 q 485 749 418 793 q 587 624 553 704 q 621 438 621 544 l 621 356 q 587 167 621 247 q 485 44 553 88 q 317 0 418 0 l 40 0 m 217 458 q 251 443 239 458 q 263 410 263 428 q 251 374 263 389 q 217 360 239 360 q 183 374 196 360 q 169 410 169 389 q 183 443 169 428 q 217 458 196 458 z "},"לּ":{"ha":692,"x_min":43,"x_max":647,"o":"m 197 0 l 446 643 l 43 643 l 43 793 l 647 793 l 647 628 l 397 0 l 197 0 m 43 643 l 43 996 l 224 996 l 224 643 l 43 643 m 171 461 q 205 446 193 461 q 217 413 217 431 q 205 377 217 392 q 171 363 193 363 q 137 377 150 363 q 124 413 124 392 q 137 446 124 431 q 171 461 150 461 z "},"מּ":{"ha":892,"x_min":49,"x_max":839,"o":"m 368 -1 l 386 149 q 546 151 489 126 q 626 240 603 175 q 647 403 649 306 q 629 544 647 490 q 577 624 611 599 q 492 649 543 649 q 424 633 454 649 q 374 588 393 617 q 349 518 354 560 l 303 604 q 394 758 331 710 q 533 806 457 806 q 663 781 607 806 q 758 707 719 757 q 817 581 797 657 q 838 403 838 504 q 784 147 839 250 q 624 4 729 44 q 368 -1 518 -36 m 64 0 l 160 535 l 49 793 l 257 793 l 350 525 l 264 0 l 64 0 m 479 461 q 513 446 501 461 q 525 413 525 431 q 513 377 525 392 q 479 363 501 363 q 445 377 458 363 q 432 413 432 392 q 445 446 432 431 q 479 461 458 461 z "},"נּ":{"ha":529,"x_min":54,"x_max":457,"o":"m 54 0 l 54 150 l 257 150 l 257 551 q 237 625 257 606 q 181 649 217 644 l 83 663 l 108 810 l 282 788 q 413 715 368 776 q 457 557 457 653 l 457 0 l 54 0 m 126 461 q 160 446 149 461 q 172 413 172 431 q 160 377 172 392 q 126 363 149 363 q 92 377 106 363 q 79 413 79 392 q 92 446 79 431 q 126 461 106 461 z "},"סּ":{"ha":840,"x_min":56,"x_max":778,"o":"m 151 -14 l 75 643 l 265 732 l 326 164 q 430 183 386 169 q 503 220 474 196 q 549 278 532 244 q 572 358 565 313 q 575 463 578 404 l 575 504 q 562 578 575 547 q 524 626 549 608 q 467 643 500 643 l 75 643 l 56 793 l 482 793 q 694 715 619 793 q 772 504 768 638 l 774 458 q 735 241 778 329 q 610 99 693 153 q 411 17 528 44 q 151 -14 294 -10 m 428 472 q 462 457 450 472 q 474 424 474 442 q 462 388 474 403 q 428 374 450 374 q 394 388 407 374 q 381 424 381 403 q 394 457 381 442 q 428 472 407 472 z "},"ףּ":{"ha":783,"x_min":50,"x_max":708,"o":"m 418 793 q 580 749 515 793 q 676 625 644 704 q 708 439 708 546 l 708 -278 l 508 -278 l 508 449 q 494 548 508 504 q 449 617 481 592 q 364 643 417 643 l 258 643 l 242 550 q 240 486 238 517 q 257 435 242 456 q 306 411 272 414 l 269 290 q 147 315 193 292 q 78 374 100 338 q 53 459 56 411 q 61 560 50 507 l 113 793 l 418 793 m 399 461 q 433 446 421 461 q 444 413 444 431 q 433 377 444 392 q 399 363 421 363 q 365 377 378 363 q 351 413 351 392 q 365 446 351 431 q 399 461 378 461 z "},"פּ":{"ha":774,"x_min":57,"x_max":725,"o":"m 74 0 l 74 150 l 354 150 q 426 163 394 150 q 480 202 458 176 q 513 264 501 228 q 525 346 525 300 l 525 449 q 508 548 525 504 q 457 617 492 592 q 369 643 422 643 l 269 643 l 244 525 q 253 447 235 474 q 329 408 271 421 l 297 283 q 142 321 196 286 q 73 413 89 356 q 68 543 57 471 l 124 793 l 417 793 q 583 749 514 793 q 688 625 651 704 q 725 439 725 546 l 725 356 q 702 206 725 272 q 636 93 679 139 q 534 24 593 47 q 401 0 475 0 l 74 0 m 410 451 q 444 436 432 451 q 456 403 456 421 q 444 367 456 382 q 410 353 432 353 q 376 367 389 353 q 363 403 363 382 q 376 436 363 421 q 410 451 389 451 z "},"צּ":{"ha":776,"x_min":42,"x_max":726,"o":"m 504 0 l 57 793 l 258 793 l 706 0 l 504 0 m 42 0 l 42 150 l 597 150 l 654 0 l 42 0 m 517 311 l 403 482 l 529 793 l 726 793 l 517 311 m 183 347 q 217 332 206 347 q 229 299 229 317 q 217 263 229 278 q 183 249 206 249 q 149 263 163 249 q 136 299 136 278 q 149 332 136 317 q 183 347 163 347 z "},"קּ":{"ha":819,"x_min":60,"x_max":769,"o":"m 356 -1 l 340 149 q 419 167 385 153 q 479 210 454 182 q 518 286 504 239 q 536 401 532 333 l 554 643 l 71 643 l 71 793 l 769 793 l 763 664 l 747 454 q 720 278 743 360 q 653 133 697 196 q 535 35 608 71 q 356 -1 463 0 m 60 -278 l 60 388 l 88 483 l 261 483 l 261 389 l 261 -278 l 60 -278 m 399 482 q 433 467 421 482 q 444 433 444 451 q 433 398 444 413 q 399 383 421 383 q 365 398 378 383 q 351 433 351 413 q 365 467 351 451 q 399 482 378 482 z "},"רּ":{"ha":678,"x_min":39,"x_max":604,"o":"m 403 0 l 403 542 q 378 619 403 596 q 310 643 354 643 l 39 643 l 39 793 l 364 793 q 488 767 433 793 q 573 683 542 740 q 604 532 604 626 l 604 0 l 403 0 m 213 461 q 247 446 235 461 q 258 413 258 431 q 247 377 258 392 q 213 363 235 363 q 178 377 192 363 q 165 413 165 392 q 178 446 165 431 q 213 461 192 461 z "},"שּ":{"ha":942,"x_min":56,"x_max":890,"o":"m 160 -14 l 56 793 l 246 793 l 322 151 q 497 190 426 158 q 610 272 568 221 q 671 394 653 324 q 689 550 689 465 l 686 793 l 888 793 l 889 561 q 814 239 890 369 q 576 44 738 108 q 160 -14 415 -19 m 275 303 l 228 428 q 324 476 292 444 q 369 561 357 507 q 379 700 381 615 l 379 792 l 569 792 l 569 704 q 542 527 568 606 q 453 393 517 449 q 275 303 390 338 m 524 399 q 558 383 546 399 q 569 350 569 368 q 558 315 569 329 q 524 300 546 300 q 490 315 503 300 q 476 350 476 329 q 490 383 476 368 q 524 399 503 399 z "},"תּ":{"ha":882,"x_min":25,"x_max":808,"o":"m 42 -24 l 25 113 q 106 134 79 119 q 141 178 132 149 q 149 253 150 207 l 149 793 l 569 793 q 692 767 639 793 q 777 683 746 740 q 808 532 808 626 l 808 0 l 608 0 l 608 542 q 583 619 608 596 q 514 643 558 643 l 350 643 l 350 279 q 317 110 350 172 q 217 17 285 47 q 42 -24 149 -14 m 476 461 q 510 446 499 461 q 522 413 522 431 q 510 377 522 392 q 476 363 499 363 q 442 377 456 363 q 429 413 429 392 q 442 446 429 431 q 476 461 456 461 z "},"וֹ":{"ha":360,"x_min":68,"x_max":285,"o":"m 85 0 l 85 631 l 68 793 l 268 793 l 285 631 l 285 0 l 85 0 m 153 983 q 187 968 175 983 q 199 935 199 953 q 187 900 199 915 q 153 885 175 885 q 119 900 132 885 q 106 935 106 915 q 119 968 106 953 q 153 983 132 983 z "},"ℊ":{"ha":804,"x_min":63,"x_max":704,"o":"m 363 -275 q 236 -256 306 -275 q 107 -199 167 -236 l 171 -72 q 269 -114 219 -101 q 363 -126 319 -126 q 476 -92 442 -126 q 515 -3 511 -57 l 519 89 q 440 37 485 57 q 344 17 394 17 q 195 60 258 17 q 97 179 132 103 q 63 356 63 256 q 105 539 63 461 q 214 660 147 617 q 354 704 281 704 q 450 685 407 704 q 532 624 493 667 l 538 624 l 551 688 l 704 688 l 704 0 q 615 -203 704 -132 q 363 -275 526 -275 m 393 169 q 456 185 428 169 q 515 239 485 201 l 515 500 q 454 538 485 528 q 393 549 424 549 q 324 526 356 549 q 274 460 293 503 q 256 358 256 418 q 292 219 256 269 q 393 169 329 169 z "},"⁄":{"ha":132,"x_min":-236,"x_max":367,"o":"m -236 -17 l 256 924 l 367 924 l -125 -17 l -236 -17 z "},"½":{"ha":1167,"x_min":101,"x_max":1107,"o":"m 269 -17 l 761 924 l 872 924 l 381 -17 l 269 -17 m 224 407 l 224 803 l 101 803 l 101 889 q 188 911 157 897 q 254 949 219 925 l 365 949 l 365 407 l 224 407 m 710 0 l 710 76 q 835 186 781 136 q 919 277 889 236 q 950 353 950 318 q 928 419 950 396 q 867 443 906 443 q 814 424 839 443 q 765 375 789 406 l 686 449 q 777 530 726 501 q 889 558 828 558 q 1032 511 978 558 q 1086 376 1086 464 q 1065 290 1086 332 q 1008 205 1043 247 q 932 118 974 163 l 1107 118 l 1107 0 l 710 0 z "},"¼":{"ha":1160,"x_min":101,"x_max":1142,"o":"m 278 -17 l 769 924 l 881 924 l 389 -17 l 278 -17 m 224 407 l 224 803 l 101 803 l 101 889 q 188 911 157 897 q 254 949 219 925 l 365 949 l 365 407 l 224 407 m 938 0 l 938 281 l 944 442 l 939 442 l 882 333 l 819 217 l 1142 217 l 1142 125 l 689 125 l 689 194 l 889 542 l 1061 542 l 1061 0 l 938 0 z "},"¾":{"ha":1167,"x_min":40,"x_max":1149,"o":"m 296 -17 l 786 924 l 897 924 l 407 -17 l 296 -17 m 257 390 q 131 419 188 390 q 40 499 75 447 l 125 565 q 179 514 150 531 q 243 497 208 497 q 302 515 278 497 q 326 567 326 533 q 292 624 326 606 q 192 642 258 642 l 192 724 q 276 742 244 724 q 307 796 307 761 q 287 842 307 825 q 235 858 267 858 q 184 842 207 858 q 142 801 161 825 l 63 872 q 151 942 106 919 q 258 965 196 965 q 350 947 307 965 q 419 894 393 928 q 444 815 444 861 q 423 740 444 771 q 363 689 401 710 q 435 639 406 672 q 464 557 464 606 q 435 469 464 507 q 360 411 407 432 q 257 390 313 390 m 944 0 l 944 281 l 951 442 l 946 442 l 889 333 l 826 217 l 1149 217 l 1149 125 l 696 125 l 696 194 l 896 542 l 1068 542 l 1068 0 l 944 0 z "},"*":{"ha":626,"x_min":57,"x_max":569,"o":"m 204 500 l 124 560 l 204 700 l 57 767 l 88 861 l 246 828 l 263 989 l 364 989 l 381 826 l 538 861 l 569 767 l 421 700 l 503 560 l 422 500 l 314 624 l 204 500 z "},"\\":{"ha":474,"x_min":36,"x_max":456,"o":"m 331 -222 l 36 986 l 161 986 l 456 -222 l 331 -222 z "},"·":{"ha":406,"x_min":86,"x_max":319,"o":"m 203 324 q 120 359 154 324 q 86 446 86 394 q 120 533 86 499 q 203 568 154 568 q 287 533 254 568 q 319 446 319 499 q 287 359 319 394 q 203 324 254 324 z "},"•":{"ha":469,"x_min":56,"x_max":414,"o":"m 235 176 q 144 201 185 176 q 80 268 104 225 q 56 365 56 311 q 80 462 56 419 q 144 529 104 504 q 235 554 185 554 q 325 529 285 554 q 390 462 365 504 q 414 365 414 419 q 390 268 414 311 q 325 201 365 225 q 235 176 285 176 z "},":":{"ha":406,"x_min":86,"x_max":319,"o":"m 203 442 q 120 477 154 442 q 86 564 86 513 q 120 651 86 617 q 203 686 154 686 q 287 651 254 686 q 319 564 319 617 q 287 477 319 513 q 203 442 254 442 m 203 -17 q 120 19 154 -17 q 86 106 86 54 q 120 193 86 158 q 203 228 154 228 q 287 193 254 228 q 319 106 319 158 q 287 19 319 54 q 203 -17 254 -17 z "},",":{"ha":406,"x_min":65,"x_max":343,"o":"m 104 -264 l 65 -162 q 178 -89 139 -135 q 215 10 217 -43 l 211 142 l 276 32 q 243 13 261 19 q 204 7 225 7 q 123 35 158 7 q 88 117 88 64 q 124 197 88 167 q 208 228 160 228 q 308 179 274 228 q 343 43 343 131 q 281 -147 343 -67 q 104 -264 219 -228 z "},"…":{"ha":1383,"x_min":114,"x_max":1275,"o":"m 231 -17 q 148 19 182 -17 q 114 106 114 54 q 148 193 114 158 q 231 228 182 228 q 315 193 282 228 q 347 106 347 158 q 315 19 347 54 q 231 -17 282 -17 m 694 -17 q 612 19 646 -17 q 578 106 578 54 q 612 193 578 158 q 694 228 646 228 q 778 193 746 228 q 811 106 811 158 q 778 19 811 54 q 694 -17 746 -17 m 1158 -17 q 1076 19 1110 -17 q 1042 106 1042 54 q 1076 193 1042 158 q 1158 228 1110 228 q 1242 193 1210 228 q 1275 106 1275 158 q 1242 19 1275 54 q 1158 -17 1210 -17 z "},"!":{"ha":461,"x_min":114,"x_max":347,"o":"m 168 314 l 142 756 l 136 931 l 326 931 l 319 756 l 293 314 l 168 314 m 231 -17 q 148 19 182 -17 q 114 106 114 54 q 148 193 114 158 q 231 228 182 228 q 315 193 282 228 q 347 106 347 158 q 315 19 347 54 q 231 -17 282 -17 z "},"¡":{"ha":461,"x_min":114,"x_max":347,"o":"m 136 -243 l 142 -68 l 168 374 l 293 374 l 319 -68 l 326 -243 l 136 -243 m 231 460 q 148 495 182 460 q 114 582 114 531 q 148 669 114 635 q 231 704 182 704 q 315 669 282 704 q 347 582 347 635 q 315 495 347 531 q 231 460 282 460 z "},"#":{"ha":726,"x_min":49,"x_max":685,"o":"m 121 0 l 153 264 l 49 264 l 49 386 l 167 386 l 186 547 l 76 547 l 76 669 l 201 669 l 232 903 l 342 903 l 314 669 l 464 669 l 493 903 l 603 903 l 575 669 l 685 669 l 685 547 l 560 547 l 540 386 l 657 386 l 657 264 l 526 264 l 494 0 l 382 0 l 414 264 l 264 264 l 232 0 l 121 0 m 278 386 l 428 386 l 449 547 l 299 547 l 278 386 z "},".":{"ha":406,"x_min":86,"x_max":319,"o":"m 203 -17 q 120 19 154 -17 q 86 106 86 54 q 120 193 86 158 q 203 228 154 228 q 287 193 254 228 q 319 106 319 158 q 287 19 319 54 q 203 -17 254 -17 z "},"?":{"ha":635,"x_min":57,"x_max":575,"o":"m 215 314 q 222 418 207 372 q 265 501 238 464 q 323 572 293 539 q 373 635 353 604 q 393 699 393 665 q 381 750 393 729 q 347 783 369 771 q 293 794 324 794 q 223 776 254 794 q 161 728 192 757 l 57 824 q 171 913 106 878 q 317 947 236 947 q 449 922 390 947 q 542 844 508 897 q 575 713 575 792 q 554 620 575 660 q 502 546 533 581 q 442 477 471 511 q 394 404 413 443 q 382 314 376 365 l 215 314 m 299 -17 q 216 19 250 -17 q 182 106 182 54 q 216 193 182 158 q 299 228 250 228 q 383 193 350 228 q 415 106 415 158 q 383 19 415 54 q 299 -17 350 -17 z "},"¿":{"ha":635,"x_min":60,"x_max":579,"o":"m 318 -260 q 186 -234 244 -260 q 94 -156 128 -208 q 60 -25 60 -104 q 81 67 60 26 q 133 142 101 107 q 193 210 164 176 q 240 283 222 244 q 254 374 258 322 l 419 374 q 413 269 428 315 q 369 185 397 222 q 313 116 342 149 q 263 53 283 83 q 242 -11 242 22 q 254 -63 242 -42 q 289 -96 267 -85 q 342 -107 311 -107 q 414 -88 382 -107 q 474 -40 446 -69 l 579 -136 q 465 -225 531 -190 q 318 -260 399 -260 m 336 460 q 253 495 288 460 q 219 582 219 531 q 253 669 219 635 q 336 704 288 704 q 420 669 388 704 q 453 582 453 635 q 420 495 453 531 q 336 460 388 460 z "},"\"":{"ha":721,"x_min":107,"x_max":614,"o":"m 150 510 l 113 779 l 107 954 l 299 954 l 293 779 l 256 510 l 150 510 m 465 510 l 428 779 l 422 954 l 614 954 l 608 779 l 571 510 l 465 510 z "},"'":{"ha":406,"x_min":107,"x_max":299,"o":"m 150 510 l 113 779 l 107 954 l 299 954 l 293 779 l 256 510 l 150 510 z "},";":{"ha":406,"x_min":65,"x_max":343,"o":"m 203 442 q 120 477 154 442 q 86 564 86 513 q 120 651 86 617 q 203 686 154 686 q 287 651 254 686 q 319 564 319 617 q 287 477 319 513 q 203 442 254 442 m 104 -264 l 65 -162 q 178 -89 139 -135 q 215 10 217 -43 l 211 142 l 276 32 q 243 13 261 19 q 204 7 225 7 q 123 35 158 7 q 88 117 88 64 q 124 197 88 167 q 208 228 160 228 q 308 179 274 228 q 343 43 343 131 q 281 -147 343 -67 q 104 -264 219 -228 z "},"/":{"ha":474,"x_min":18,"x_max":438,"o":"m 18 -222 l 313 986 l 438 986 l 143 -222 l 18 -222 z "},"_":{"ha":694,"x_min":17,"x_max":678,"o":"m 17 -192 l 17 -82 l 678 -82 l 678 -192 l 17 -192 z "},"{":{"ha":469,"x_min":44,"x_max":408,"o":"m 325 -211 q 192 -169 235 -211 q 150 -15 150 -126 q 153 72 150 35 q 160 146 157 110 q 164 226 164 182 q 138 297 164 265 q 44 331 113 329 l 44 443 q 115 459 89 443 q 153 498 142 475 q 164 546 164 521 q 160 626 164 590 q 153 701 157 663 q 150 788 150 739 q 192 942 150 900 q 325 983 235 983 l 408 983 l 408 882 l 381 882 q 319 860 335 882 q 303 781 303 839 q 306 669 303 724 q 310 550 310 615 q 285 437 310 472 q 210 389 261 401 l 210 383 q 285 335 261 371 q 310 224 310 300 q 306 105 310 160 q 303 -7 303 50 q 319 -88 303 -67 q 381 -110 335 -110 l 408 -110 l 408 -211 l 325 -211 z "},"}":{"ha":469,"x_min":61,"x_max":425,"o":"m 61 -211 l 61 -110 l 89 -110 q 151 -88 135 -110 q 167 -7 167 -67 q 163 105 167 50 q 160 224 160 160 q 184 335 160 300 q 260 383 208 371 l 260 389 q 184 437 208 401 q 160 550 160 472 q 163 669 160 615 q 167 781 167 724 q 151 860 167 839 q 89 882 135 882 l 61 882 l 61 983 l 144 983 q 277 942 235 983 q 319 788 319 900 q 316 701 319 739 q 309 626 313 663 q 306 546 306 590 q 317 498 306 521 q 353 459 328 475 q 425 443 379 443 l 425 331 q 331 297 357 329 q 306 226 306 265 q 309 146 306 182 q 316 72 313 110 q 319 -15 319 35 q 277 -169 319 -126 q 144 -211 235 -211 l 61 -211 z "},"[":{"ha":469,"x_min":122,"x_max":408,"o":"m 122 -211 l 122 983 l 408 983 l 408 882 l 264 882 l 264 -110 l 408 -110 l 408 -211 l 122 -211 z "},"]":{"ha":469,"x_min":61,"x_max":347,"o":"m 61 -211 l 61 -110 l 206 -110 l 206 882 l 61 882 l 61 983 l 347 983 l 347 -211 l 61 -211 z "},"(":{"ha":469,"x_min":103,"x_max":404,"o":"m 286 -247 q 151 49 199 -106 q 103 386 103 203 q 151 724 103 569 q 286 1021 199 879 l 404 971 q 292 686 328 836 q 256 386 256 536 q 292 88 256 238 q 404 -197 328 -62 l 286 -247 z "},")":{"ha":469,"x_min":65,"x_max":367,"o":"m 183 -247 l 65 -197 q 178 88 142 -62 q 214 386 214 238 q 178 686 214 536 q 65 971 142 836 l 183 1021 q 319 724 271 879 q 367 386 367 569 q 319 49 367 203 q 183 -247 271 -106 z "},"—":{"ha":1111,"x_min":60,"x_max":1051,"o":"m 60 290 l 60 413 l 1051 413 l 1051 290 l 60 290 z "},"–":{"ha":667,"x_min":60,"x_max":607,"o":"m 60 290 l 60 413 l 607 413 l 607 290 l 60 290 z "},"-":{"ha":457,"x_min":60,"x_max":397,"o":"m 60 283 l 60 419 l 397 419 l 397 283 l 60 283 z "},"‐":{"ha":457,"x_min":60,"x_max":397,"o":"m 60 283 l 60 419 l 397 419 l 397 283 l 60 283 z "},"­":{"ha":457,"x_min":60,"x_max":397,"o":"m 60 283 l 60 419 l 397 419 l 397 283 l 60 283 z "},"«":{"ha":656,"x_min":67,"x_max":581,"o":"m 254 81 l 67 283 l 67 418 l 254 621 l 326 563 l 171 350 l 326 138 l 254 81 m 510 81 l 322 283 l 322 418 l 510 621 l 582 563 l 426 350 l 582 138 l 510 81 z "},"»":{"ha":656,"x_min":75,"x_max":589,"o":"m 147 81 l 75 138 l 231 350 l 75 563 l 147 621 l 335 418 l 335 283 l 147 81 m 403 81 l 331 138 l 486 350 l 331 563 l 403 621 l 590 418 l 590 283 l 403 81 z "},"‹":{"ha":401,"x_min":67,"x_max":326,"o":"m 254 81 l 67 283 l 67 418 l 254 621 l 326 563 l 171 350 l 326 138 l 254 81 z "},"›":{"ha":401,"x_min":75,"x_max":335,"o":"m 147 81 l 75 138 l 231 350 l 75 563 l 147 621 l 335 418 l 335 283 l 147 81 z "},"„":{"ha":721,"x_min":97,"x_max":644,"o":"m 140 -229 l 97 -146 q 189 -72 158 -114 q 219 31 219 -31 l 211 146 l 278 57 q 244 36 263 44 q 206 28 226 28 q 134 54 164 28 q 104 125 104 81 q 133 203 104 174 q 206 232 163 232 q 298 187 267 232 q 329 60 329 142 q 283 -108 329 -36 q 140 -229 236 -181 m 456 -229 l 413 -146 q 504 -72 474 -114 q 535 31 535 -31 l 526 146 l 593 57 q 560 36 578 44 q 521 28 542 28 q 449 54 479 28 q 419 125 419 81 q 449 203 419 174 q 521 232 478 232 q 613 187 582 232 q 644 60 644 142 q 598 -108 644 -36 q 456 -229 551 -181 z "},"“":{"ha":721,"x_min":76,"x_max":625,"o":"m 200 490 q 108 535 140 490 q 76 663 76 581 q 124 831 76 758 q 267 951 171 904 l 310 868 q 218 795 249 838 q 188 692 188 753 l 194 576 l 129 665 q 163 686 144 678 q 200 694 181 694 q 272 669 242 694 q 301 599 301 643 q 273 519 301 549 q 200 490 244 490 m 515 490 q 424 535 456 490 q 392 663 392 581 q 439 831 392 758 q 582 951 486 904 l 625 868 q 533 795 564 838 q 503 692 503 753 l 510 576 l 444 665 q 478 686 460 678 q 515 694 496 694 q 587 669 557 694 q 617 599 617 643 q 588 519 617 549 q 515 490 560 490 z "},"”":{"ha":721,"x_min":97,"x_max":644,"o":"m 140 507 l 97 590 q 189 664 158 622 q 219 767 219 706 l 211 882 l 278 793 q 244 772 263 781 q 206 764 226 764 q 134 790 164 764 q 104 861 104 817 q 133 939 104 910 q 206 968 163 968 q 298 923 267 968 q 329 796 329 878 q 283 628 329 700 q 140 507 236 556 m 456 507 l 413 590 q 504 664 474 622 q 535 767 535 706 l 526 882 l 593 793 q 560 772 578 781 q 521 764 542 764 q 449 790 479 764 q 419 861 419 817 q 449 939 419 910 q 521 968 478 968 q 613 923 582 968 q 644 796 644 878 q 598 628 644 700 q 456 507 551 556 z "},"‘":{"ha":406,"x_min":76,"x_max":310,"o":"m 200 490 q 108 535 140 490 q 76 663 76 581 q 124 831 76 758 q 267 951 171 904 l 310 868 q 218 795 249 838 q 188 692 188 753 l 194 576 l 129 665 q 163 686 144 678 q 200 694 181 694 q 272 669 242 694 q 301 599 301 643 q 273 519 301 549 q 200 490 244 490 z "},"’":{"ha":406,"x_min":97,"x_max":329,"o":"m 140 507 l 97 590 q 189 664 158 622 q 219 767 219 706 l 211 882 l 278 793 q 244 772 263 781 q 206 764 226 764 q 134 790 164 764 q 104 861 104 817 q 133 939 104 910 q 206 968 163 968 q 298 923 267 968 q 329 796 329 878 q 283 628 329 700 q 140 507 236 556 z "},"‚":{"ha":406,"x_min":97,"x_max":329,"o":"m 140 -229 l 97 -146 q 189 -72 158 -114 q 219 31 219 -31 l 211 146 l 278 57 q 244 36 263 44 q 206 28 226 28 q 134 54 164 28 q 104 125 104 81 q 133 203 104 174 q 206 232 163 232 q 298 187 267 232 q 329 60 329 142 q 283 -108 329 -36 q 140 -229 236 -181 z "},"׀":{"ha":253,"x_min":78,"x_max":175,"o":"m 78 -139 l 78 896 l 175 896 l 175 -139 l 78 -139 z "},"׃":{"ha":303,"x_min":46,"x_max":257,"o":"m 153 24 l 46 131 l 153 236 l 257 131 l 153 24 m 153 475 l 46 582 l 153 686 l 257 582 l 153 475 z "},"׳":{"ha":375,"x_min":69,"x_max":319,"o":"m 171 682 l 69 726 l 192 976 l 319 918 l 171 682 z "},"״":{"ha":632,"x_min":69,"x_max":561,"o":"m 413 682 l 313 726 l 433 976 l 561 918 l 413 682 m 171 682 l 69 726 l 192 976 l 319 918 l 171 682 z "},"־":{"ha":457,"x_min":63,"x_max":394,"o":"m 63 643 l 63 793 l 394 793 l 394 643 l 63 643 z "}," ":{"ha":278,"x_min":0,"x_max":0,"o":""}," ":{"ha":278,"x_min":0,"x_max":0,"o":""},"‎":{"ha":0,"x_min":-158,"x_max":200,"o":"m 54 1065 l 19 1100 l 107 1192 l -158 1192 l -158 1242 l 107 1242 l 19 1329 l 54 1367 l 200 1215 l 54 1065 z "},"‏":{"ha":0,"x_min":-200,"x_max":161,"o":"m -54 1067 l -200 1215 l -54 1367 l -19 1331 l -107 1242 l 161 1242 l 161 1192 l -106 1192 l -19 1100 l -54 1067 z "},"‭":{"ha":0,"x_min":-217,"x_max":238,"o":"m -43 1065 l -79 1100 l 8 1192 l -217 1192 l -217 1242 l 6 1242 l -79 1329 l -43 1367 l 101 1215 l -43 1065 m 92 1065 l 57 1100 l 171 1215 l 57 1329 l 92 1367 l 238 1215 l 92 1065 z "},"‮":{"ha":0,"x_min":-237,"x_max":218,"o":"m 43 1118 l -99 1269 l 43 1418 l 82 1382 l -6 1290 l 218 1290 l 218 1243 l -6 1243 l 82 1154 l 43 1118 m -92 1118 l -237 1269 l -92 1418 l -57 1382 l -168 1269 l -57 1154 l -92 1118 z "},"¢":{"ha":726,"x_min":85,"x_max":669,"o":"m 442 75 q 255 117 335 75 q 130 237 175 158 q 85 428 85 315 q 135 618 85 539 q 269 738 185 697 q 458 779 354 779 q 574 757 522 779 q 660 700 625 735 l 572 583 q 522 616 547 606 q 469 626 497 626 q 358 602 403 626 q 291 533 314 578 q 268 428 268 488 q 319 283 268 336 q 463 229 371 229 q 534 245 501 229 q 593 282 567 261 l 669 163 q 560 97 621 118 q 442 75 499 75 m 379 -54 l 379 910 l 485 910 l 485 -54 l 379 -54 z "},"¤":{"ha":726,"x_min":29,"x_max":697,"o":"m 125 121 l 29 217 l 114 303 q 79 374 92 335 q 67 458 67 413 q 79 542 67 504 q 114 613 92 581 l 29 699 l 125 794 l 221 697 q 364 735 288 735 q 507 697 439 735 l 603 794 l 697 699 l 613 613 q 647 542 635 581 q 660 458 660 504 q 647 374 660 413 q 611 303 633 335 l 697 217 l 603 121 l 506 218 q 437 191 474 200 q 364 182 400 182 q 221 218 285 182 l 125 121 m 364 314 q 428 331 399 314 q 474 381 457 349 q 490 458 490 414 q 474 534 490 501 q 428 585 457 567 q 364 603 399 603 q 299 585 328 603 q 253 534 271 567 q 236 458 236 501 q 253 381 236 414 q 299 331 271 349 q 364 314 328 314 z "},"$":{"ha":726,"x_min":57,"x_max":643,"o":"m 342 -17 q 244 -4 296 -17 q 144 33 193 8 q 57 92 96 57 l 140 221 q 242 159 193 181 q 342 138 290 138 q 433 164 404 138 q 461 240 461 190 q 435 307 461 279 q 366 357 408 335 q 276 403 324 379 q 187 458 229 428 q 118 533 144 489 q 92 640 92 576 q 126 778 92 719 q 224 868 161 836 q 372 900 288 900 q 522 867 461 900 q 632 783 583 835 l 536 675 q 463 728 499 710 q 382 746 428 746 q 302 722 331 746 q 274 650 274 699 q 300 589 274 614 q 369 543 326 564 q 458 499 411 522 q 548 445 506 476 q 617 368 590 414 q 643 254 643 322 q 608 114 643 175 q 506 18 574 53 q 342 -17 439 -17 m 300 -153 l 300 60 l 428 60 l 428 -153 l 300 -153 m 300 839 l 300 1036 l 428 1036 l 428 839 l 300 839 z "},"€":{"ha":726,"x_min":29,"x_max":715,"o":"m 464 -17 q 280 35 361 -17 q 152 189 199 88 q 106 438 106 290 q 153 685 106 582 q 285 844 201 789 q 481 900 369 900 q 601 871 543 900 q 703 792 660 842 l 597 689 q 541 735 571 717 q 474 753 511 753 q 377 716 417 753 q 317 610 338 679 q 296 443 296 540 q 317 275 296 344 q 378 168 339 206 q 475 131 418 131 q 550 151 518 131 q 610 210 582 172 l 715 113 q 603 17 665 50 q 464 -17 540 -17 m 29 304 l 29 393 l 131 401 l 558 401 l 558 304 l 29 304 m 29 475 l 29 564 l 132 572 l 614 572 l 614 475 l 29 475 z "},"ƒ":{"ha":726,"x_min":39,"x_max":679,"o":"m 156 -133 q 86 -127 117 -133 q 39 -112 56 -121 l 65 28 q 97 19 81 22 q 128 15 113 17 q 184 35 163 17 q 219 95 206 53 q 240 215 232 138 l 288 636 q 329 799 299 736 q 417 893 360 863 q 561 924 474 924 q 623 916 588 924 q 679 899 658 908 l 643 756 q 615 767 631 761 q 576 772 599 772 q 522 756 543 772 q 488 714 500 740 q 471 651 475 688 l 413 163 q 378 12 403 79 q 300 -94 353 -56 q 156 -133 247 -133 m 158 435 l 158 567 l 260 574 l 610 574 l 610 435 l 158 435 z "},"₪":{"ha":1164,"x_min":83,"x_max":1103,"o":"m 83 0 l 83 793 l 542 793 q 665 765 613 793 q 747 678 718 738 q 775 525 775 619 l 775 324 l 626 324 l 626 535 q 606 616 626 589 q 539 643 586 643 l 285 643 l 285 0 l 83 0 m 379 0 l 379 506 l 528 506 l 528 165 q 726 193 651 165 q 839 273 801 221 q 889 396 876 325 q 901 551 901 467 l 899 793 l 1100 793 l 1101 551 q 1031 224 1103 347 q 799 48 958 101 q 379 0 640 -6 z "},"£":{"ha":726,"x_min":68,"x_max":681,"o":"m 68 0 l 68 117 q 174 205 132 147 q 215 336 215 263 q 200 432 215 383 q 169 528 185 481 q 154 619 154 575 q 192 769 154 706 q 294 866 229 832 q 444 900 360 900 q 578 870 521 900 q 681 788 635 840 l 576 685 q 525 731 553 715 q 463 746 497 746 q 370 712 404 746 q 336 610 336 678 q 347 522 336 565 q 370 431 358 478 q 382 335 382 385 q 366 242 382 281 q 317 165 350 204 l 317 160 l 681 160 l 681 0 l 68 0 m 74 381 l 74 492 l 167 499 l 563 499 l 563 381 l 74 381 z "},"¥":{"ha":726,"x_min":19,"x_max":707,"o":"m 268 0 l 268 207 l 54 207 l 54 300 l 268 300 l 268 378 l 54 378 l 54 471 l 226 471 l 19 883 l 215 883 l 292 690 q 326 599 308 644 q 363 507 344 553 l 368 507 q 404 599 386 553 q 440 690 422 644 l 517 883 l 707 883 l 500 471 l 674 471 l 674 378 l 458 378 l 458 300 l 674 300 l 674 207 l 458 207 l 458 0 l 268 0 z "},"≈":{"ha":726,"x_min":42,"x_max":685,"o":"m 482 497 q 408 514 440 497 q 348 551 375 531 q 296 588 321 572 q 242 604 271 604 q 188 584 214 604 q 142 524 163 564 l 42 599 q 143 707 92 675 q 244 739 194 739 q 320 723 288 739 q 379 686 353 707 q 431 649 406 665 q 485 632 457 632 q 539 653 514 632 q 586 713 564 674 l 685 638 q 585 529 636 561 q 482 497 533 497 m 482 178 q 408 194 440 178 q 348 232 375 211 q 296 269 321 253 q 242 285 271 285 q 188 265 214 285 q 142 204 163 244 l 42 279 q 143 388 92 356 q 244 419 194 419 q 320 403 288 419 q 379 367 353 388 q 431 329 406 346 q 485 313 457 313 q 539 333 514 313 q 586 393 564 354 l 685 318 q 585 210 636 242 q 482 178 533 178 z "},"~":{"ha":726,"x_min":42,"x_max":685,"o":"m 482 338 q 408 354 440 338 q 348 392 375 371 q 296 428 321 413 q 242 444 271 444 q 188 424 214 444 q 142 364 163 404 l 42 439 q 143 547 92 515 q 244 579 194 579 q 320 563 288 579 q 379 526 353 547 q 431 489 406 506 q 485 472 457 472 q 539 493 514 472 q 586 553 564 514 l 685 478 q 585 369 636 401 q 482 338 533 338 z "},"∙":{"ha":729,"x_min":246,"x_max":479,"o":"m 363 335 q 280 370 314 335 q 246 457 246 406 q 280 544 246 510 q 363 579 314 579 q 447 544 414 579 q 479 457 479 510 q 447 370 479 406 q 363 335 414 335 z "},"÷":{"ha":726,"x_min":47,"x_max":679,"o":"m 47 392 l 47 526 l 679 526 l 679 392 l 47 392 m 364 107 q 288 135 318 107 q 257 208 257 164 q 288 281 257 253 q 364 310 318 310 q 440 281 408 310 q 471 208 471 253 q 440 135 471 164 q 364 107 408 107 m 364 607 q 288 635 318 607 q 257 708 257 664 q 288 781 257 753 q 364 810 318 810 q 440 781 408 810 q 471 708 471 753 q 440 635 471 664 q 364 607 408 607 z "},"∕":{"ha":132,"x_min":-236,"x_max":367,"o":"m -236 -17 l 256 924 l 367 924 l -125 -17 l -236 -17 z "},"=":{"ha":726,"x_min":47,"x_max":679,"o":"m 47 551 l 47 686 l 679 686 l 679 551 l 47 551 m 47 232 l 47 367 l 679 367 l 679 232 l 47 232 z "},">":{"ha":726,"x_min":47,"x_max":679,"o":"m 47 151 l 47 308 l 300 393 l 488 458 l 488 464 l 300 531 l 47 615 l 47 772 l 679 528 l 679 394 l 47 151 z "},"≥":{"ha":726,"x_min":47,"x_max":679,"o":"m 47 214 l 47 371 l 296 440 l 488 490 l 488 496 l 296 544 l 47 615 l 47 772 l 679 572 l 679 414 l 47 214 m 47 0 l 47 135 l 679 135 l 679 0 l 47 0 z "},"∞":{"ha":1124,"x_min":53,"x_max":1071,"o":"m 803 165 q 697 183 744 165 q 606 237 649 200 q 519 329 564 274 l 514 329 q 456 268 489 299 q 380 218 422 238 q 283 199 338 199 q 167 233 219 199 q 83 322 114 267 q 53 442 53 378 q 85 592 53 529 q 176 688 118 654 q 310 721 233 721 q 406 702 364 721 q 481 653 449 683 q 539 589 514 624 l 544 589 q 621 669 581 635 q 708 724 661 704 q 811 743 756 743 q 944 708 885 743 q 1037 611 1003 672 q 1071 472 1071 550 q 1035 306 1071 375 q 938 201 999 238 q 803 165 876 165 m 301 338 q 383 365 346 338 q 450 435 421 392 q 378 514 418 483 q 294 544 339 544 q 218 517 244 544 q 192 447 192 490 q 221 371 192 404 q 301 338 250 338 m 803 340 q 897 378 863 340 q 932 467 932 417 q 894 567 932 529 q 793 604 857 604 q 698 574 744 604 q 608 485 651 544 q 698 381 653 422 q 803 340 743 340 z "},"∫":{"ha":529,"x_min":61,"x_max":492,"o":"m 138 -219 q 93 -216 114 -219 q 61 -208 72 -212 l 79 -71 q 103 -75 90 -74 q 129 -76 115 -76 q 201 -31 183 -76 q 218 114 218 14 q 210 273 218 194 q 191 431 201 351 q 172 594 181 511 q 164 760 164 676 q 183 933 164 857 q 256 1054 201 1010 q 414 1099 310 1099 q 460 1095 439 1099 q 492 1089 481 1092 l 472 950 q 451 954 463 953 q 424 956 439 956 q 352 910 369 956 q 335 765 335 864 q 343 607 335 686 q 362 448 351 528 q 380 286 372 368 q 388 119 388 204 q 369 -53 388 24 q 297 -175 350 -131 q 138 -219 243 -219 z "},"<":{"ha":726,"x_min":47,"x_max":679,"o":"m 679 151 l 47 394 l 47 528 l 679 772 l 679 615 l 428 531 l 240 464 l 240 458 l 428 393 l 679 308 l 679 151 z "},"≤":{"ha":726,"x_min":47,"x_max":679,"o":"m 679 214 l 47 414 l 47 572 l 679 772 l 679 615 l 432 544 l 240 496 l 240 490 l 432 440 l 679 371 l 679 214 m 47 0 l 47 135 l 679 135 l 679 0 l 47 0 z "},"¬":{"ha":726,"x_min":47,"x_max":679,"o":"m 539 133 l 539 392 l 47 392 l 47 526 l 679 526 l 679 133 l 539 133 z "},"−":{"ha":726,"x_min":47,"x_max":679,"o":"m 47 392 l 47 526 l 679 526 l 679 392 l 47 392 z "},"×":{"ha":726,"x_min":67,"x_max":660,"o":"m 163 158 l 67 254 l 268 457 l 67 660 l 163 757 l 364 553 l 564 757 l 660 660 l 458 457 l 660 254 l 564 158 l 364 363 l 163 158 z "},"≠":{"ha":726,"x_min":47,"x_max":679,"o":"m 74 61 l 175 232 l 47 232 l 47 367 l 250 367 l 356 551 l 47 551 l 47 686 l 431 686 l 531 856 l 653 856 l 553 686 l 679 686 l 679 551 l 478 551 l 372 367 l 679 367 l 679 232 l 297 232 l 196 61 l 74 61 z "},"∂":{"ha":790,"x_min":65,"x_max":726,"o":"m 335 -17 q 201 17 263 -17 q 102 111 139 50 q 65 256 65 172 q 103 422 65 351 q 208 533 140 493 q 364 574 275 574 q 471 547 419 574 q 558 469 522 519 l 536 335 q 465 407 504 386 q 386 428 426 428 q 309 410 342 428 q 258 358 276 393 q 240 267 240 322 q 256 196 240 225 q 299 152 272 167 q 356 138 325 138 q 428 158 394 138 q 489 222 463 178 q 531 340 515 267 q 546 517 546 413 q 529 657 546 601 q 478 741 513 713 q 388 769 443 769 q 310 753 346 769 q 242 706 275 738 l 160 822 q 276 897 215 869 q 407 924 336 924 q 583 876 513 924 q 690 738 654 828 q 726 522 726 649 q 676 238 726 360 q 538 50 626 117 q 335 -17 450 -17 z "},"%":{"ha":1174,"x_min":38,"x_max":1136,"o":"m 285 -17 l 776 924 l 888 924 l 396 -17 l 285 -17 m 261 369 q 145 403 196 369 q 66 502 94 438 q 38 658 38 567 q 101 869 38 794 q 261 944 164 944 q 421 869 358 944 q 483 658 483 794 q 455 502 483 567 q 376 403 426 438 q 261 369 325 369 m 261 476 q 324 518 299 476 q 350 658 350 560 q 324 797 350 757 q 261 838 299 838 q 197 797 224 838 q 171 658 171 757 q 197 518 171 560 q 261 476 224 476 m 913 -17 q 797 18 847 -17 q 719 117 747 53 q 690 272 690 182 q 753 483 690 408 q 913 558 815 558 q 1073 483 1010 558 q 1136 272 1136 408 q 1107 117 1136 182 q 1028 18 1078 53 q 913 -17 978 -17 m 913 90 q 977 132 951 90 q 1003 272 1003 174 q 977 411 1003 371 q 913 451 951 451 q 850 411 876 451 q 824 272 824 371 q 850 132 824 174 q 913 90 876 90 z "},"‰":{"ha":1713,"x_min":58,"x_max":1654,"o":"m 286 -17 l 778 924 l 889 924 l 397 -17 l 286 -17 m 282 363 q 166 397 217 363 q 87 497 115 432 q 58 651 58 561 q 122 863 58 788 q 282 938 185 938 q 442 863 379 938 q 504 651 504 788 q 476 497 504 561 q 397 397 447 432 q 282 363 346 363 m 282 469 q 345 511 319 469 q 371 651 371 553 q 345 790 371 750 q 282 831 319 831 q 218 790 244 831 q 192 651 192 750 q 218 511 192 553 q 282 469 244 469 m 911 -17 q 796 18 846 -17 q 717 117 746 53 q 689 272 689 182 q 751 483 689 408 q 911 558 814 558 q 1072 483 1008 558 q 1135 272 1135 408 q 1106 117 1135 182 q 1026 18 1076 53 q 911 -17 976 -17 m 911 90 q 976 132 950 90 q 1001 272 1001 174 q 976 411 1001 371 q 911 451 950 451 q 849 411 875 451 q 822 272 822 371 q 849 132 822 174 q 911 90 875 90 m 1431 -17 q 1315 18 1365 -17 q 1237 117 1265 53 q 1208 272 1208 182 q 1271 483 1208 408 q 1431 558 1333 558 q 1591 483 1528 558 q 1654 272 1654 408 q 1625 117 1654 182 q 1546 18 1596 53 q 1431 -17 1496 -17 m 1431 90 q 1495 132 1469 90 q 1521 272 1521 174 q 1495 411 1521 371 q 1431 451 1469 451 q 1368 411 1394 451 q 1342 272 1342 371 q 1368 132 1342 174 q 1431 90 1394 90 z "},"+":{"ha":726,"x_min":47,"x_max":679,"o":"m 293 133 l 293 392 l 47 392 l 47 526 l 293 526 l 293 785 l 433 785 l 433 526 l 679 526 l 679 392 l 433 392 l 433 133 l 293 133 z "},"±":{"ha":726,"x_min":47,"x_max":679,"o":"m 293 213 l 293 411 l 47 411 l 47 546 l 293 546 l 293 785 l 433 785 l 433 546 l 679 546 l 679 411 l 433 411 l 433 213 l 293 213 m 47 0 l 47 135 l 679 135 l 679 0 l 47 0 z "},"∏":{"ha":978,"x_min":113,"x_max":865,"o":"m 113 -167 l 113 883 l 865 883 l 865 -167 l 675 -167 l 675 717 l 303 717 l 303 -167 l 113 -167 z "},"√":{"ha":810,"x_min":42,"x_max":819,"o":"m 386 -114 l 178 460 l 75 418 l 42 508 l 274 604 l 415 183 q 430 129 422 157 q 443 74 438 101 l 449 74 q 458 129 453 101 q 468 183 463 157 l 692 1139 l 819 1139 l 518 -114 l 386 -114 z "},"∑":{"ha":736,"x_min":36,"x_max":724,"o":"m 36 -167 l 36 -53 l 329 357 l 50 769 l 50 883 l 690 883 l 690 724 l 282 724 l 282 718 l 524 358 l 271 -1 l 271 -7 l 724 -7 l 724 -167 l 36 -167 z "},"◌":{"ha":833,"x_min":53,"x_max":753,"o":"m 401 586 q 363 602 379 586 q 347 647 347 618 q 363 689 347 674 q 401 704 379 704 q 444 689 428 704 q 460 647 460 674 q 444 602 460 618 q 401 586 428 586 m 256 19 q 215 36 232 19 q 199 81 199 53 q 215 122 199 107 q 256 136 232 136 q 296 122 279 136 q 313 81 313 107 q 297 36 313 53 q 256 19 281 19 m 147 133 q 109 149 126 133 q 92 192 92 164 q 109 236 92 221 q 147 251 126 251 q 188 236 172 251 q 204 192 204 221 q 188 149 204 164 q 147 133 172 133 m 401 -18 q 363 -2 379 -18 q 347 43 347 14 q 363 84 347 69 q 401 99 379 99 q 444 84 428 99 q 460 43 460 69 q 444 -2 460 14 q 401 -18 428 -18 m 108 285 q 69 301 86 285 q 53 344 53 317 q 69 387 53 372 q 108 401 86 401 q 150 387 133 401 q 167 344 167 372 q 151 301 167 317 q 108 285 135 285 m 547 19 q 509 36 526 19 q 492 81 492 53 q 509 122 492 107 q 547 136 526 136 q 589 122 572 136 q 606 81 606 107 q 590 36 606 53 q 547 19 575 19 m 147 436 q 109 452 126 436 q 92 497 92 468 q 109 540 92 526 q 147 554 126 554 q 188 540 172 554 q 204 497 204 526 q 188 452 204 468 q 147 436 172 436 m 658 133 q 617 149 635 133 q 600 192 600 164 q 617 236 600 221 q 658 251 635 251 q 699 236 682 251 q 715 192 715 221 q 700 149 715 164 q 658 133 685 133 m 256 550 q 215 566 232 550 q 199 608 199 582 q 215 652 199 638 q 256 667 232 667 q 296 652 279 667 q 313 608 313 638 q 297 566 313 582 q 256 550 281 550 m 696 285 q 654 301 671 285 q 638 344 638 317 q 654 387 638 372 q 696 401 671 401 q 735 387 718 401 q 753 344 753 372 q 737 301 753 317 q 696 285 721 285 m 658 436 q 617 451 635 436 q 600 496 600 467 q 617 538 600 524 q 658 553 635 553 q 699 538 682 553 q 715 496 715 524 q 700 451 715 467 q 658 436 685 436 m 547 549 q 509 565 526 549 q 492 608 492 581 q 509 651 492 636 q 547 667 526 667 q 589 651 572 667 q 606 608 606 636 q 590 565 606 581 q 547 549 575 549 z "},"◊":{"ha":754,"x_min":74,"x_max":682,"o":"m 300 -14 l 74 458 l 300 931 l 456 931 l 682 458 l 456 -14 l 300 -14 m 375 146 l 381 146 l 457 315 l 524 458 l 457 601 l 381 772 l 375 772 l 299 601 l 231 458 l 299 315 l 375 146 z "},"|":{"ha":367,"x_min":121,"x_max":246,"o":"m 121 -347 l 121 1042 l 246 1042 l 246 -347 l 121 -347 z "},"¦":{"ha":367,"x_min":121,"x_max":246,"o":"m 121 429 l 121 1042 l 246 1042 l 246 429 l 121 429 m 121 -347 l 121 286 l 246 286 l 246 -347 l 121 -347 z "},"@":{"ha":1242,"x_min":68,"x_max":1174,"o":"m 589 -235 q 391 -203 485 -235 q 224 -106 297 -171 q 110 56 151 -42 q 68 285 68 154 q 117 548 68 431 q 252 749 167 665 q 449 879 338 833 q 688 925 561 925 q 945 863 836 925 q 1114 690 1054 800 q 1174 435 1174 579 q 1145 269 1174 340 q 1072 151 1117 199 q 972 80 1026 104 q 864 56 917 56 q 760 83 804 56 q 706 161 717 110 l 703 161 q 626 94 674 121 q 536 68 579 68 q 406 124 457 68 q 356 275 356 181 q 376 398 356 338 q 435 506 397 458 q 523 583 472 554 q 633 613 574 613 q 695 597 668 613 q 740 544 722 581 l 743 544 l 763 601 l 879 601 l 818 300 q 883 174 786 174 q 964 205 925 174 q 1028 294 1003 236 q 1053 431 1053 351 q 1031 574 1053 506 q 963 695 1008 643 q 845 778 917 747 q 672 808 774 808 q 497 772 582 808 q 345 667 413 735 q 238 503 278 599 q 197 290 197 407 q 230 111 197 188 q 319 -17 263 35 q 449 -93 375 -68 q 604 -118 522 -118 q 717 -103 660 -118 q 818 -64 774 -87 l 860 -168 q 730 -219 797 -203 q 589 -235 663 -235 m 576 189 q 623 204 600 189 q 674 254 646 219 l 708 447 q 679 480 696 469 q 639 490 663 490 q 564 458 596 490 q 515 377 532 425 q 499 286 499 329 q 520 213 499 236 q 576 189 542 189 z "},"&":{"ha":914,"x_min":36,"x_max":889,"o":"m 335 -17 q 172 19 239 -17 q 71 113 106 54 q 36 242 36 171 q 67 366 36 314 q 145 456 97 418 q 247 523 193 493 q 349 581 301 553 q 428 644 397 610 q 458 722 458 678 q 442 776 458 756 q 392 797 426 797 q 330 769 356 797 q 304 690 304 740 q 337 572 304 635 q 424 447 369 510 q 547 327 479 383 q 682 228 614 271 q 791 169 738 193 q 889 138 844 146 l 843 -17 q 708 28 778 -3 q 568 107 638 60 q 409 235 485 164 q 274 386 333 307 q 181 543 215 465 q 147 690 147 621 q 177 806 147 753 q 261 892 207 860 q 389 924 315 924 q 546 869 488 924 q 604 722 604 814 q 576 616 604 663 q 503 532 547 569 q 410 462 460 494 q 316 397 360 429 q 244 331 272 365 q 217 253 217 296 q 234 188 217 215 q 284 144 251 160 q 358 129 317 129 q 456 155 407 129 q 550 224 506 181 q 645 349 604 278 q 710 508 686 421 l 883 508 q 803 314 853 407 q 681 138 754 221 q 531 26 617 69 q 335 -17 446 -17 z "},"¶":{"ha":867,"x_min":54,"x_max":733,"o":"m 411 281 q 232 316 313 281 q 103 422 151 351 q 54 600 54 493 q 102 783 54 715 q 229 878 150 850 q 406 907 308 907 l 467 907 l 467 281 l 411 281 m 543 -111 l 543 907 l 733 907 l 733 -111 l 543 -111 z "},"©":{"ha":1040,"x_min":64,"x_max":976,"o":"m 521 -12 q 346 19 428 -12 q 200 112 264 51 q 100 258 136 172 q 64 451 64 344 q 100 643 64 558 q 200 788 136 728 q 346 878 264 847 q 521 910 428 910 q 695 878 613 910 q 841 788 778 847 q 940 643 904 728 q 976 451 976 558 q 940 258 976 344 q 841 112 904 172 q 695 19 778 51 q 521 -12 613 -12 m 536 176 q 400 210 460 176 q 306 304 340 243 q 271 450 271 365 q 308 590 271 531 q 406 683 346 650 q 536 717 467 717 q 643 692 600 717 q 719 635 686 668 l 647 554 q 601 591 624 578 q 549 604 578 604 q 444 560 481 604 q 408 450 408 515 q 444 332 408 375 q 542 289 481 289 q 604 303 578 289 q 658 339 631 317 l 719 250 q 636 197 681 218 q 536 176 592 176 m 521 68 q 664 95 597 68 q 781 173 731 122 q 859 294 831 224 q 888 451 888 365 q 859 608 888 538 q 781 727 831 678 q 664 803 731 776 q 521 831 597 831 q 376 803 443 831 q 260 727 310 776 q 182 608 210 678 q 154 451 154 538 q 182 294 154 365 q 260 173 210 224 q 376 95 310 122 q 521 68 443 68 z "},"®":{"ha":633,"x_min":43,"x_max":589,"o":"m 317 435 q 178 470 240 435 q 80 569 117 506 q 43 714 43 632 q 80 858 43 794 q 178 957 117 921 q 317 993 240 993 q 453 957 392 993 q 552 858 515 921 q 589 714 589 794 q 552 569 589 632 q 453 470 515 506 q 317 435 392 435 m 317 500 q 420 526 375 500 q 491 601 465 553 q 517 714 517 649 q 491 826 517 778 q 420 901 465 874 q 317 928 375 928 q 213 901 258 928 q 141 826 167 874 q 115 714 115 778 q 141 601 115 649 q 213 526 167 553 q 317 500 258 500 m 206 579 l 206 853 l 326 853 q 406 831 374 853 q 439 763 439 810 q 426 718 439 739 q 389 686 414 697 l 449 579 l 368 579 l 325 664 l 282 664 l 282 579 l 206 579 m 282 718 l 311 718 q 346 729 335 718 q 357 757 357 740 q 346 784 357 774 q 313 794 335 794 l 282 794 l 282 718 z "},"§":{"ha":726,"x_min":54,"x_max":674,"o":"m 524 192 l 417 272 q 489 315 465 290 q 513 379 513 339 q 485 446 513 419 q 413 493 457 472 q 319 535 369 514 q 225 582 269 556 q 153 649 181 608 q 125 750 125 690 q 153 857 125 810 q 236 931 182 904 q 367 957 290 957 q 507 930 444 957 q 611 868 569 903 l 524 750 q 452 797 490 778 q 376 817 414 817 q 315 801 335 817 q 296 757 296 785 q 324 709 296 729 q 394 671 351 689 q 484 631 436 653 q 575 577 532 608 q 646 502 618 546 q 674 394 674 458 q 656 310 674 347 q 604 244 638 274 q 524 192 571 215 m 333 -112 q 187 -83 258 -112 q 68 3 115 -54 l 178 100 q 251 47 213 65 q 333 29 290 29 q 400 47 378 29 q 422 93 422 65 q 396 143 422 122 q 327 182 369 164 q 238 221 285 200 q 149 272 190 242 q 81 348 107 303 q 54 457 54 393 q 98 576 54 522 q 213 657 142 631 l 307 576 q 238 534 261 560 q 214 471 214 508 q 242 407 214 433 q 313 360 269 381 q 403 319 356 340 q 494 271 451 299 q 565 203 538 243 q 593 103 593 163 q 563 -7 593 42 q 474 -84 532 -56 q 333 -112 417 -112 z "},"™":{"ha":938,"x_min":6,"x_max":904,"o":"m 438 504 l 438 939 l 581 939 l 636 799 l 668 703 l 674 703 l 706 799 l 761 939 l 904 939 l 904 504 l 789 504 l 789 646 l 803 804 l 797 804 l 715 568 l 626 568 l 544 804 l 539 804 l 553 646 l 553 504 l 438 504 m 129 504 l 129 825 l 6 825 l 6 939 l 378 939 l 378 825 l 254 825 l 254 504 l 129 504 z "},"°":{"ha":500,"x_min":54,"x_max":447,"o":"m 251 560 q 151 585 196 560 q 81 654 107 610 q 54 756 54 699 q 81 858 54 814 q 151 928 107 903 q 251 953 196 953 q 350 928 306 953 q 421 858 394 903 q 447 756 447 814 q 421 654 447 699 q 350 585 394 610 q 251 560 306 560 m 251 653 q 319 682 293 653 q 346 756 346 711 q 319 831 346 803 q 251 860 293 860 q 183 831 210 860 q 156 756 156 803 q 183 682 156 711 q 251 653 210 653 z "},"℮":{"ha":1111,"x_min":64,"x_max":1049,"o":"m 557 -15 q 366 21 456 -15 q 208 121 276 57 q 102 269 140 185 q 64 451 64 354 q 102 633 64 549 q 208 782 140 718 q 365 882 275 846 q 557 918 456 918 q 749 882 660 918 q 905 782 838 846 q 1010 633 972 718 q 1049 451 1049 549 q 1049 445 1049 449 q 1049 439 1049 442 l 250 439 q 244 433 244 439 l 244 179 q 248 164 244 171 q 256 150 251 157 q 391 49 313 86 q 558 13 469 13 q 735 54 653 13 q 875 167 818 96 l 947 167 q 777 35 879 85 q 557 -15 675 -15 m 250 465 l 863 465 q 869 472 869 465 l 869 728 q 866 745 869 738 q 857 758 863 753 q 722 855 799 819 q 558 890 644 890 q 392 853 469 890 q 257 754 314 817 q 248 740 251 749 q 244 722 244 732 l 244 472 q 250 465 244 465 z "},"^":{"ha":726,"x_min":72,"x_max":656,"o":"m 72 383 l 286 931 l 440 931 l 656 383 l 499 383 l 431 572 l 367 760 l 361 760 l 297 572 l 229 383 l 72 383 z "},"†":{"ha":696,"x_min":64,"x_max":633,"o":"m 272 -111 l 283 621 l 64 610 l 64 763 l 283 751 l 272 989 l 425 989 l 414 751 l 633 763 l 633 610 l 414 621 l 425 -111 l 272 -111 z "},"‡":{"ha":696,"x_min":64,"x_max":633,"o":"m 272 -111 l 283 126 l 64 115 l 64 268 l 283 253 l 272 439 l 283 625 l 64 610 l 64 763 l 283 751 l 272 989 l 425 989 l 414 751 l 633 763 l 633 610 l 414 625 l 425 439 l 414 253 l 633 268 l 633 115 l 414 126 l 425 -111 l 272 -111 z "},"̈":{"ha":0,"x_min":-243,"x_max":243,"o":"m 149 794 q 81 822 108 794 q 54 889 54 849 q 81 956 54 929 q 149 983 108 983 q 217 956 190 983 q 243 889 243 929 q 217 822 243 849 q 149 794 190 794 m -149 794 q -216 822 -189 794 q -243 889 -243 849 q -216 956 -243 929 q -149 983 -189 983 q -81 956 -107 983 q -54 889 -54 929 q -81 822 -54 849 q -149 794 -107 794 z "},"̇":{"ha":0,"x_min":-107,"x_max":107,"o":"m 0 794 q -76 823 -46 794 q -107 896 -107 851 q -76 969 -107 940 q 0 997 -46 997 q 77 969 47 997 q 107 896 107 940 q 77 823 107 851 q 0 794 47 794 z "},"̀":{"ha":0,"x_min":-254,"x_max":85,"o":"m -8 796 l -254 1013 l -125 1138 l 85 889 l -8 796 z "},"́":{"ha":0,"x_min":-85,"x_max":256,"o":"m 10 796 l -85 889 l 126 1138 l 256 1013 l 10 796 z "},"̋":{"ha":0,"x_min":-172,"x_max":319,"o":"m 171 786 l 71 831 l 192 1081 l 319 1022 l 171 786 m -71 786 l -172 831 l -50 1081 l 78 1022 l -71 786 z "},"̂":{"ha":0,"x_min":-247,"x_max":249,"o":"m -175 781 l -247 849 l -96 1033 l 97 1033 l 249 849 l 175 781 l 3 914 l -3 914 l -175 781 z "},"̌":{"ha":0,"x_min":-247,"x_max":249,"o":"m -96 801 l -247 985 l -175 1053 l -3 921 l 3 921 l 175 1053 l 249 985 l 97 801 l -96 801 z "},"̆":{"ha":0,"x_min":-232,"x_max":232,"o":"m 0 794 q -128 824 -78 794 q -204 902 -179 853 q -232 1011 -229 951 l -122 1029 q -103 972 -118 999 q -63 930 -89 946 q 0 914 -37 914 q 65 930 39 914 q 104 972 90 946 q 124 1029 118 999 l 232 1011 q 204 902 229 951 q 129 824 179 853 q 0 794 79 794 z "},"̊":{"ha":0,"x_min":-178,"x_max":178,"o":"m 0 782 q -132 824 -86 782 q -178 925 -178 865 q -132 1026 -178 985 q 0 1068 -86 1068 q 133 1026 88 1068 q 178 925 178 985 q 133 824 178 865 q 0 782 88 782 m 0 854 q 45 874 26 854 q 64 925 64 893 q 45 976 64 957 q 0 996 26 996 q -44 976 -26 996 q -62 925 -62 957 q -44 874 -62 893 q 0 854 -26 854 z "},"̃":{"ha":0,"x_min":-260,"x_max":260,"o":"m 93 797 q 34 811 61 797 q -14 844 7 825 q -53 876 -35 863 q -89 890 -71 890 q -124 871 -111 890 q -140 808 -136 851 l -260 815 q -238 931 -258 885 q -182 999 -218 976 q -93 1022 -146 1022 q -33 1008 -58 1022 q 15 976 -7 994 q 54 943 36 957 q 90 929 72 929 q 125 949 113 929 q 140 1011 138 969 l 260 1004 q 239 890 258 936 q 183 821 219 844 q 93 797 146 797 z "},"̄":{"ha":0,"x_min":-201,"x_max":203,"o":"m -201 824 l -201 946 l 203 946 l 203 824 l -201 824 z "},"̞":{"ha":0,"x_min":-146,"x_max":147,"o":"m -50 -354 l -50 -210 l -146 -210 l -146 -117 l 147 -117 l 147 -210 l 51 -210 l 51 -354 l -50 -354 z "},"̣":{"ha":0,"x_min":-107,"x_max":107,"o":"m 0 -308 q -76 -280 -46 -308 q -107 -207 -107 -251 q -76 -134 -107 -162 q 0 -106 -46 -106 q 77 -134 47 -106 q 107 -207 107 -162 q 77 -280 107 -251 q 0 -308 47 -308 z "},"̧":{"ha":0,"x_min":-153,"x_max":129,"o":"m -137 -329 l -153 -251 q -40 -232 -71 -246 q -8 -189 -8 -218 q -30 -152 -8 -167 q -115 -129 -51 -137 l -49 6 l 63 6 l 24 -85 q 102 -121 75 -97 q 129 -187 129 -144 q 59 -290 129 -257 q -137 -329 -11 -324 z "},"̮":{"ha":0,"x_min":-232,"x_max":232,"o":"m 0 -322 q -128 -293 -78 -322 q -204 -215 -179 -264 q -232 -106 -229 -165 l -122 -87 q -103 -144 -118 -118 q -63 -187 -89 -171 q 0 -203 -37 -203 q 65 -187 39 -203 q 104 -144 90 -171 q 124 -87 118 -118 l 232 -106 q 204 -215 229 -165 q 129 -293 179 -264 q 0 -322 79 -322 z "},"̱":{"ha":0,"x_min":-201,"x_max":203,"o":"m -201 -258 l -201 -136 l 203 -136 l 203 -258 l -201 -258 z "},"͡":{"ha":0,"x_min":-633,"x_max":635,"o":"m -583 747 l -633 836 q -330 965 -492 922 q 0 1008 -168 1008 q 331 965 168 1008 q 635 836 493 922 l 585 747 q 393 829 494 799 q 190 873 292 860 q 0 886 89 886 q -190 873 -89 886 q -393 829 -292 860 q -583 747 -494 799 z "},"ː":{"ha":406,"x_min":61,"x_max":344,"o":"m 61 0 l 193 253 l 213 253 l 344 0 l 61 0 m 193 424 l 61 675 l 344 675 l 213 424 l 193 424 z "},"ʹ":{"ha":406,"x_min":0,"x_max":0,"o":""},"ˈ":{"ha":197,"x_min":22,"x_max":175,"o":"m 31 749 l 22 1031 l 175 1031 l 167 749 l 31 749 z "},"´":{"ha":768,"x_min":300,"x_max":639,"o":"m 394 796 l 300 889 l 511 1138 l 640 1013 l 394 796 z "},"˘":{"ha":768,"x_min":153,"x_max":617,"o":"m 385 794 q 256 824 307 794 q 181 902 206 853 q 153 1011 156 951 l 263 1029 q 281 972 267 999 q 322 930 296 946 q 385 914 347 914 q 449 930 424 914 q 489 972 475 946 q 508 1029 503 999 l 617 1011 q 589 902 614 951 q 514 824 564 853 q 385 794 464 794 z "},"ˇ":{"ha":768,"x_min":136,"x_max":632,"o":"m 289 801 l 138 985 l 210 1053 l 382 921 l 388 921 l 560 1053 l 633 985 l 482 801 l 289 801 z "},"¸":{"ha":768,"x_min":232,"x_max":513,"o":"m 247 -329 l 232 -251 q 345 -232 314 -246 q 376 -189 376 -218 q 355 -152 376 -167 q 269 -129 333 -137 l 336 6 l 447 6 l 408 -85 q 487 -121 460 -97 q 514 -187 514 -144 q 444 -290 514 -257 q 247 -329 374 -324 z "},"ˆ":{"ha":768,"x_min":136,"x_max":632,"o":"m 210 781 l 138 849 l 289 1033 l 482 1033 l 633 849 l 560 781 l 388 914 l 382 914 l 210 781 z "},"¨":{"ha":768,"x_min":142,"x_max":628,"o":"m 533 794 q 466 822 493 794 q 439 889 439 849 q 466 956 439 929 q 533 983 493 983 q 601 956 575 983 q 628 889 628 929 q 601 822 628 849 q 533 794 575 794 m 236 794 q 169 822 196 794 q 142 889 142 849 q 169 956 142 929 q 236 983 196 983 q 304 956 278 983 q 331 889 331 929 q 304 822 331 849 q 236 794 278 794 z "},"˙":{"ha":768,"x_min":278,"x_max":492,"o":"m 385 794 q 308 823 339 794 q 278 896 278 851 q 308 969 278 940 q 385 997 339 997 q 462 969 432 997 q 492 896 492 940 q 462 823 492 851 q 385 794 432 794 z "},"`":{"ha":768,"x_min":129,"x_max":469,"o":"m 376 796 l 131 1013 l 260 1138 l 469 889 l 376 796 z "},"˝":{"ha":768,"x_min":213,"x_max":704,"o":"m 556 786 l 456 831 l 576 1081 l 704 1022 l 556 786 m 314 786 l 213 831 l 335 1081 l 463 1022 l 314 786 z "},"¯":{"ha":768,"x_min":182,"x_max":586,"o":"m 183 824 l 183 946 l 588 946 l 588 824 l 183 824 z "},"˛":{"ha":768,"x_min":0,"x_max":0,"o":""},"˚":{"ha":768,"x_min":207,"x_max":563,"o":"m 385 782 q 253 824 299 782 q 207 925 207 865 q 253 1026 207 985 q 385 1068 299 1068 q 517 1026 472 1068 q 563 925 563 985 q 517 824 563 865 q 385 782 472 782 m 385 854 q 430 874 411 854 q 449 925 449 893 q 430 976 449 957 q 385 996 411 996 q 340 976 358 996 q 322 925 322 957 q 340 874 322 893 q 385 854 358 854 z "},"˜":{"ha":768,"x_min":125,"x_max":644,"o":"m 478 797 q 419 811 446 797 q 371 844 392 825 q 332 876 350 863 q 296 890 314 890 q 261 871 274 890 q 244 808 249 851 l 125 815 q 147 931 126 885 q 203 999 167 976 q 292 1022 239 1022 q 352 1008 326 1022 q 399 976 378 994 q 439 943 421 957 q 475 929 457 929 q 510 949 497 929 q 525 1011 522 969 l 644 1004 q 624 890 643 936 q 567 821 604 844 q 478 797 531 797 z "},"ְ":{"ha":0,"x_min":42,"x_max":135,"o":"m 89 -99 q 123 -113 111 -99 q 135 -147 135 -128 q 123 -181 135 -167 q 89 -196 111 -196 q 55 -181 68 -196 q 42 -147 42 -167 q 55 -113 42 -128 q 89 -99 68 -99 m 89 -240 q 123 -256 111 -240 q 135 -290 135 -272 q 123 -324 135 -310 q 89 -339 111 -339 q 55 -324 68 -339 q 42 -290 42 -310 q 55 -256 42 -272 q 89 -240 68 -240 z "},"ֱ":{"ha":0,"x_min":42,"x_max":424,"o":"m 378 -99 q 412 -113 400 -99 q 424 -147 424 -128 q 412 -181 424 -167 q 378 -196 400 -196 q 344 -181 357 -196 q 331 -147 331 -167 q 344 -113 331 -128 q 378 -99 357 -99 m 160 -240 q 194 -256 182 -240 q 206 -290 206 -272 q 194 -324 206 -310 q 160 -339 182 -339 q 126 -324 139 -339 q 113 -290 113 -310 q 126 -256 113 -272 q 160 -240 139 -240 m 89 -99 q 123 -113 111 -99 q 135 -147 135 -128 q 123 -181 135 -167 q 89 -196 111 -196 q 55 -181 68 -196 q 42 -147 42 -167 q 55 -113 42 -128 q 89 -99 68 -99 m 378 -240 q 412 -256 400 -240 q 424 -290 424 -272 q 412 -324 424 -310 q 378 -339 400 -339 q 344 -324 357 -339 q 331 -290 331 -310 q 344 -256 331 -272 q 378 -240 357 -240 m 233 -99 q 267 -113 256 -99 q 279 -147 279 -128 q 267 -181 279 -167 q 233 -196 256 -196 q 199 -181 213 -196 q 186 -147 186 -167 q 199 -113 186 -128 q 233 -99 213 -99 z "},"ֲ":{"ha":0,"x_min":42,"x_max":408,"o":"m 272 -118 l 272 -172 l 42 -172 l 42 -118 l 272 -118 m 363 -240 q 396 -256 383 -240 q 408 -290 408 -272 q 396 -324 408 -310 q 363 -339 383 -339 q 328 -324 342 -339 q 315 -290 315 -310 q 328 -256 315 -272 q 363 -240 342 -240 m 363 -99 q 396 -113 383 -99 q 408 -147 408 -128 q 396 -181 408 -167 q 363 -196 383 -196 q 328 -181 342 -196 q 315 -147 315 -167 q 328 -113 315 -128 q 363 -99 342 -99 z "},"ֳ":{"ha":0,"x_min":42,"x_max":408,"o":"m 272 -118 l 272 -172 l 179 -172 l 188 -311 l 126 -311 l 133 -172 l 42 -172 l 42 -118 l 272 -118 m 363 -240 q 396 -256 383 -240 q 408 -290 408 -272 q 396 -324 408 -310 q 363 -339 383 -339 q 328 -324 342 -339 q 315 -290 315 -310 q 328 -256 315 -272 q 363 -240 342 -240 m 363 -99 q 396 -113 383 -99 q 408 -147 408 -128 q 396 -181 408 -167 q 363 -196 383 -196 q 328 -181 342 -196 q 315 -147 315 -167 q 328 -113 315 -128 q 363 -99 342 -99 z "},"ִ":{"ha":0,"x_min":42,"x_max":135,"o":"m 89 -99 q 123 -113 111 -99 q 135 -147 135 -128 q 123 -181 135 -167 q 89 -196 111 -196 q 55 -181 68 -196 q 42 -147 42 -167 q 55 -113 42 -128 q 89 -99 68 -99 z "},"ֵ":{"ha":0,"x_min":42,"x_max":283,"o":"m 238 -99 q 272 -113 260 -99 q 283 -147 283 -128 q 272 -181 283 -167 q 238 -196 260 -196 q 203 -181 217 -196 q 190 -147 190 -167 q 203 -113 190 -128 q 238 -99 217 -99 m 89 -99 q 123 -113 111 -99 q 135 -147 135 -128 q 123 -181 135 -167 q 89 -196 111 -196 q 55 -181 68 -196 q 42 -147 42 -167 q 55 -113 42 -128 q 89 -99 68 -99 z "},"ֶ":{"ha":0,"x_min":42,"x_max":283,"o":"m 238 -99 q 272 -113 260 -99 q 283 -147 283 -128 q 272 -181 283 -167 q 238 -196 260 -196 q 203 -181 217 -196 q 190 -147 190 -167 q 203 -113 190 -128 q 238 -99 217 -99 m 163 -228 q 196 -242 183 -228 q 208 -275 208 -257 q 196 -310 208 -294 q 163 -325 183 -325 q 128 -310 142 -325 q 115 -275 115 -294 q 128 -242 115 -257 q 163 -228 142 -228 m 89 -99 q 123 -113 111 -99 q 135 -147 135 -128 q 123 -181 135 -167 q 89 -196 111 -196 q 55 -181 68 -196 q 42 -147 42 -167 q 55 -113 42 -128 q 89 -99 68 -99 z "},"ַ":{"ha":0,"x_min":42,"x_max":272,"o":"m 272 -96 l 272 -150 l 42 -150 l 42 -96 l 272 -96 z "},"ָ":{"ha":0,"x_min":42,"x_max":272,"o":"m 272 -96 l 272 -150 l 179 -150 l 188 -289 l 126 -289 l 133 -150 l 42 -150 l 42 -96 l 272 -96 z "},"ֹ":{"ha":0,"x_min":42,"x_max":135,"o":"m 89 815 q 123 800 111 815 q 135 767 135 785 q 123 732 135 747 q 89 717 111 717 q 55 732 68 717 q 42 767 42 747 q 55 800 42 785 q 89 815 68 815 z "},"ֺ":{"ha":0,"x_min":42,"x_max":135,"o":"m 89 717 q 55 732 68 717 q 42 767 42 747 q 55 800 42 785 q 89 815 68 815 q 123 800 111 815 q 135 767 135 785 q 123 732 135 747 q 89 717 111 717 z "},"ֻ":{"ha":0,"x_min":42,"x_max":329,"o":"m 283 -287 q 317 -302 306 -287 q 329 -336 329 -317 q 317 -370 329 -356 q 283 -385 306 -385 q 249 -370 263 -385 q 236 -336 236 -356 q 249 -302 236 -317 q 283 -287 263 -287 m 89 -99 q 123 -113 111 -99 q 135 -147 135 -128 q 123 -181 135 -167 q 89 -196 111 -196 q 55 -181 68 -196 q 42 -147 42 -167 q 55 -113 42 -128 q 89 -99 68 -99 m 186 -193 q 220 -208 208 -193 q 232 -242 232 -222 q 220 -276 232 -261 q 186 -290 208 -290 q 152 -276 165 -290 q 139 -242 139 -261 q 152 -208 139 -222 q 186 -193 165 -193 z "},"ּ":{"ha":0,"x_min":42,"x_max":135,"o":"m 89 451 q 123 436 111 451 q 135 403 135 421 q 123 367 135 382 q 89 353 111 353 q 55 367 68 353 q 42 403 42 382 q 55 436 42 421 q 89 451 68 451 z "},"ֿ":{"ha":0,"x_min":44,"x_max":307,"o":"m 307 800 l 307 726 l 44 726 l 44 800 l 307 800 z "},"ׁ":{"ha":0,"x_min":42,"x_max":135,"o":"m 89 821 q 123 806 111 821 q 135 772 135 790 q 123 738 135 753 q 89 722 111 722 q 55 738 68 722 q 42 772 42 753 q 55 806 42 790 q 89 821 68 821 z "},"ׂ":{"ha":0,"x_min":42,"x_max":135,"o":"m 89 821 q 123 806 111 821 q 135 772 135 790 q 123 738 135 753 q 89 722 111 722 q 55 738 68 722 q 42 772 42 753 q 55 806 42 790 q 89 821 68 821 z "},"ׇ":{"ha":0,"x_min":42,"x_max":183,"o":"m 183 -96 l 183 -150 l 125 -150 l 143 -289 l 82 -289 l 99 -150 l 42 -150 l 42 -96 l 183 -96 z "},"ȷ":{"ha":374,"x_min":-62,"x_max":294,"o":"m 56 -276 q -12 -271 15 -276 q -62 -258 -40 -265 l -28 -118 q -1 -125 -14 -122 q 28 -128 13 -128 q 86 -99 69 -128 q 103 -12 103 -71 l 104 688 l 294 688 l 292 -8 q 270 -143 292 -82 q 197 -240 249 -204 q 56 -276 146 -276 z "},"¹":{"ha":458,"x_min":88,"x_max":351,"o":"m 210 560 l 210 956 l 88 956 l 88 1042 q 174 1064 143 1050 q 240 1101 206 1078 l 351 1101 l 351 560 l 210 560 z "},"²":{"ha":542,"x_min":60,"x_max":481,"o":"m 83 560 l 83 635 q 210 744 156 694 q 294 836 264 794 q 325 913 325 878 q 303 978 325 954 q 242 1003 281 1003 q 188 984 213 1003 q 140 935 164 965 l 60 1007 q 151 1090 100 1061 q 263 1118 203 1118 q 406 1070 353 1118 q 460 936 460 1022 q 439 848 460 890 q 383 764 418 806 q 307 676 349 722 l 481 676 l 481 560 l 83 560 z "},"³":{"ha":519,"x_min":40,"x_max":464,"o":"m 257 543 q 131 572 188 543 q 40 651 75 600 l 125 718 q 179 667 150 683 q 243 650 208 650 q 302 668 278 650 q 326 719 326 686 q 292 776 326 758 q 192 794 258 794 l 192 876 q 276 895 244 876 q 307 949 307 914 q 287 994 307 978 q 235 1011 267 1011 q 184 994 207 1011 q 142 954 161 978 l 63 1025 q 151 1095 106 1072 q 258 1118 196 1118 q 350 1099 307 1118 q 419 1047 393 1081 q 444 968 444 1014 q 423 893 444 924 q 363 842 401 863 q 435 792 406 825 q 464 710 464 758 q 435 622 464 660 q 360 564 407 585 q 257 543 313 543 z "},"⁴":{"ha":518,"x_min":47,"x_max":501,"o":"m 296 560 l 296 840 l 304 1000 l 299 1000 l 240 892 l 178 776 l 501 776 l 501 683 l 47 683 l 47 754 l 249 1101 l 421 1101 l 421 560 l 296 560 z "},"\r":{"ha":347,"x_min":0,"x_max":0,"o":""},"µ":{"ha":785,"x_min":54,"x_max":690,"o":"m 54 -243 l 61 -68 l 88 374 l 213 374 l 239 -68 l 244 -243 l 54 -243 m 300 -17 q 138 57 189 -17 q 88 260 88 131 l 88 688 l 276 688 l 276 283 q 299 176 276 206 q 369 146 322 146 q 439 165 410 146 q 501 228 468 183 l 501 688 l 690 688 l 690 0 l 536 0 l 522 97 l 517 97 q 422 15 474 46 q 300 -17 369 -17 z "}}}
